<mxfile host="app.diagrams.net" agent="Mozilla/5.0 (Windows NT 10.0; Win64; x64) AppleWebKit/537.36 (KHTML, like Gecko) Chrome/138.0.0.0 Safari/537.36 OPR/122.0.0.0" version="28.2.7">
  <diagram name="Seite-1" id="_E5xaiqXVfZg-KqF7Inc">
    <mxGraphModel dx="1384" dy="763" grid="1" gridSize="10" guides="1" tooltips="1" connect="1" arrows="1" fold="1" page="1" pageScale="1" pageWidth="827" pageHeight="1169" math="0" shadow="0">
      <root>
        <mxCell id="0" />
        <mxCell id="1" parent="0" />
        <mxCell id="9vM-ji-AnAJC31aWE_Pd-1" value="" style="shape=image;verticalLabelPosition=bottom;labelBackgroundColor=default;verticalAlign=top;aspect=fixed;imageAspect=0;image=data:image/png,iVBORw0KGgoAAAANSUhEUgAAAb8AAAE3CAIAAAC1ktiQAAAgAElEQVR4Aey9Z3MbeXYuri/gz3Ff3bJ3J6w3iAFAA0zIGYwgQFLMOYAZJHLO6EYjAwQDCCZRFClRgRJFUcyiGDSzVdcu27dc5Sr7vV/p7/NritZfOzM7653da28B1YVqNDoeoJ9+znnO75w7jenBxpmh8admy4Hfex7zvI25zsLOE9K4553ccWgemYa3LePPnFM7nqkXXu2Op3d9UvfK6ziJOk4i9uOIaT84/cqj3/eZ3gTGnhr8F7HAZRy/SuFXqeBVMniVCFzGg9dJ4n069M1M8Crhv4hZjkLmQ8J0iBPv08T71PSubey5230WIa5SofczxHWauE6H3s+Ermf872Lu83DwOolfp8hvZjznkYENs/MU972LeN6GTW+8rdnBuqhGGRtWxoZqyc7uVV3XytS9Oc3QpnVk2z76zDnyxDG4Ze1bN7cuaIe3jerkQN8Dc9vieNeKaeqFy3Ua8Z3H8cuUbseue+mffuEIoaPjcOZJ8tsM+e0MiU7bfU5SH4lv09H/M098mw59mw7A5cSnd+39Dw3taxOW4dahFuXIttlyEHCehDxvw/6LaOAiaj5w16ZGjK+d+FU8dJ0MXScNew4NnJh9dGsav4iTVyniMjH1zNKYmayODKjSo00Lkx2rhrbl6f6HloGHtp41c9equTVnbF7QN83pGuem7i3omhZ0TXO6psyU2NXetT7dvjrZND+szgw1zWvblrWdq9M96xOjTyy99ydNr31jT8z3FiY7VgwDG/ahLafmsWt426157BrcdPQ+sHWtWtqXzC1Zg9zfXT3LrZrlVmU4ijRbnqqQpyoUqQpZslyO3h3HoeBlKniZCrxL4pfp4GXKf5H0XsQ95xHHCaF9ade9cjlOSOsbv4DA+DiG3hkCAuMF6XwcExJMAcEUhFkCgvoK4wfhWwGJphAsFJGYgGBwA3QBwRCGGKIQQxzGhCQmIpki9FFAYMIQUxRmCUNMAY7xAwx+AOMHYQ/iaAksRDsXhjBRmCmLsmRRlijKFMVLxJESYZQliGLCMEtIMsXhEjFZIiRZkghLGsakUZYsxpJGYTURnCFTSMJRbidxpEQSKRVH0H5I9C3JlMBCWF8UZsLhYixFvFQaKxNFWMIIUxjBJFGmLFoiibIkiRJxDO08whJFWdRRqJ1LInAO4jBTGi+VxEtFEfiWOpYozBKjr6gZWZQlj7LkkRIxLC8RR0olUTicJFYqjcE87BaWs8QRpjjCEoaZghBYRhItUSTKqhNliniJPM5SJFiKBJzVzTWii0LbouslMRFBF5OYkGQKoyxxokQMl4B2ThkkwhLHS6QRlpTE5FGmNArWEBAMQQgTRjBRtEQaLRNHS4UkC86TZMEPR/3E1O9IMvkhTBjCBDiDF6Dzg/AuIOjiMEMUpv4MTD7BEOCYKIRJSKY0xJCEaCIC/VXgcph8ksHDaTx/MdtTxPYW833FPF8R11PEdhWVu4rK3UXlrkKOj8b2FlegFSrcRWxPcQX6tsJdRH0sdxWWuQsVybLKVHnVTEVVurwmw67NsOvmOMoFrjLLrVvgwsw8RznHqV/gKee5ynlufZZXn+Mrs1zlIu9Oy0Kv5tG0/rXLuO/R7zl1r5yTL2zti6OqGc3UrkP/2mM5CNiPCPsxaXkTnNxxDmzohh4a+x/oBx6Y+teN3Su6jtxU8/y4/TjoPY8ELuLEVTp0PQMwdJUKXafx96ngVcL0xm07Ia3HIetRyHIUMh3g1iMf8T4FkHqddJ2RxHWaRIgZuk6jaYa4SutfORtnJhpnJ2zHAeJ9umF2rD45PP3SNvhwsnF2Qp0eU8aH62JDNWT30Jax74G+MT3Ump3ou2/qf2AZ3LQCbj4w10V725ZG+x7oBh4a1PGhoS3r2HOX9oXLdhTynscDF0n8MjX9wjH23Kl/5bMc+uzHpOOExAGyk+Q3aeKbNPkNYCj5zUzomxnim3Ti77PkbzPEt2n8CmAdv0rZDgNysnmkQ62Wy9qyo/pdj/0o5DkL+9/F8atE8DIWvIjhVwnnCW459A4+tA1t2Qe37L3rlo5lo/skFHwXN++7e1YGW7K69mVD+4qhY83Y/cDctjQ1sGWTB9rKpqtkvnZlbLg6PKhMjDYt6Cj0bM7qm7P62phmdMc+9sLasjTYsqhryU2PvbBYTnDzYdB6iE+9cLUt6hWh7r5N28Ajh2bbNfrUM/7cO/7MO/bUM/LEPbjl6LsBUFPjzATH1FCZ4VTOcDpXRiaeW02vvfZjQjHDVmTY5jc+ZC4ATfwK3hF6xr3v4o5jYvixnucv5gfpvCCNjzP4OKAn72aGwQnAQl6QQX0FdxrOEIWYfJyOgBXdGDhDGMKEBB3uE9iQDu9+2EQUZYnCcEsL0S0kIuEmF0SYwhBD4C8W4LA5AmtAZ3GIKSMxeQRTxFnyGFMaY4niaIqVCMMsAYACSxwG3ET3PCZCH8UIUgHO0M6pd1g/hMGtTjIl0TIRiXAffYStbkGH2iTCkiVK5YkSRbxUEmHxQwzqqSABkAXEBDwNA+DKAF9KADSjpRKYZ0kQ+EpiJeJYKUK0ElG4RBwuQacBjwQE90xZFFAewDEKkA3oRjIBahH0w2PgI74DpMZLRTGwkijCVCSY1akSRaJEkWRVpkpkyRJRHHaCti2VRACCqXkhwsePmFsqi5fIEiWSGAXKcM6yGAtgNwJPCxHJBOPjDD56YgF6kpgwjIHRCAYfnn/wBII/A4F+elhIPSNZ/BDGI+g8nP6f7wQdfhEc4wXovACdC/8lOh9nwF8CpwlhWzovhCaCzvYVs13FFBTCu6uo1F5Q7gT0ZLthebm7kO0pBgCFj7CkzFlYar9b5izkeAFYFYmyylRFZbq8Kl1Rla6omeXUzXLq5inQ5NXOc2rnKNykQJOryvLqF3nKRZ4yy1Ut8uqz3Dv1sT5lpFdgUakSPeqkRp3UyL337mWGKsnOhtkR077bcui3HQYt+z7Nlq4tq2uZ06rimo7c2NCmuWt5qmlmuIbslvvaxM57fGuD9pl1+oXdtOfxvY0CjH47g3+TdJ6HxneMutde8yFueBPQ7fkmX7jx6xQQUopsXqWDF4ngRSJ0DaAJE8JQ455LlRpTpUaVyZH61IgyMQzzCTSTHlXPjNfFNc0LY0OPDIObxu7V6e4VQ+eyvn1xunNJ17tm6l41tuYmetd1A5uGgYf6tsWR7mWt9qXHuB+wHYfc51HnSci877EdBUafOiZfug37fushbj0iLEc48T5FfJPGr5PB62TgKq5/7Qx9MxN6nybfpyO/nQ1dp0l4QsyQ72fI6xn8Mqnfdahjff1retNewHFE+s7jxGUqdJ0ir9Ph9zOet2TzwnTbkr57zdy7bum9b+pc1neumNpyRsdREL+Im197eLYWVXykfVHfs2bueWDp37QNbNqGthz35kYHH1lbFkab5yaa5yZV8ZEbAM3qWnKG1iVD67LRcODXH/jUM6Oda8aedZN6ZsR8gluOcOshbnztG39m63lgRdDpHNvxaHf92l3/9G5A+9I/ueMbferRPHJ2LBtaF6cbl3g1c8A6KzMc457X9y4RuEgFLpL+8wTwzYskekfc8zLpu4z7LoF1et5GbIdBAcJNnr+YFyhGVAIDoAx+vK9wOh/dCbwgXYjTEQ7ShQSdH6QJAnQhgYlwhIPARDBhkCEhGFISk4QBXoUEQxoGVBUQDEkYk0VZwihTEMbQjcfg4XR+iMFHvFUYQtgXwsQknbqNhTEmQl6EtiSTgj9gwRR7JVnAcYAWMUURgCpYDqjKohilkKTAtEQSZiliLBmigYIQIlkIPSXRMkmkVBQGHBRHS6SJElmcBWQzzEJEG+MTCKyjJUB+YyXCKFMaA7hEq7FkMcAjIKoIByXxUnGcgkU4k5uJZArQsYQUvY0wFTGmNEo9CZgCgi4haKIQgHJVvKQywZLEAKkpNESMFTHHOEsSL5XFyxCFZEkQbt6yV7QQqCLFhQHC0BMCwTewfoopw/pRliReIoxgfEQShSSTT8A1AiaG4DlEsd2bx+dH9PzoajCEBPyO8HOTLD6J8WBi8MMYP8JAmIsemUEG10/jIvTkBmkcnAY0M1AsJGhCCjpxOtdPZ3tpHADQQo67kOulUBIIJttbXO4qLHcXVviK2f7icmdhuauwwgXQWe4uqvAVVXiLSp0FimSZIgW4WT1TUZ1h18xW1M6yATrnOHWz7PoFrmqBh4gntz7LrV/g1mf59VmuKsdTLXLVWa56kVe/wL3TuTR2LzPINaqE9obqUF9ddFAZHVIlNGJfs2pG07w42bI41Z7Tty3q2hf1yuhQU3pQ4m4XOdo7cuMSd4fY1SawNiij/Q3pIVVy0HKIm/bcntMwIOC36dBvZygn1/Mu4jzBHWe4Yd+vfeWZeG4G9ASIBLjEL1MuADIvfpUEPEUAGrpOq+KjquRoXWK4Lq6pSwwrkwCjgJ7x4YbMWOPcePuytjY60LE01bk8XTYpV/jaqwKdjamR7hVj97Kxa9nQkBi6lxnVbNmErmaxu2XkscV6SLjeRrzvYq4zsn1Z233f0PfQpHlsnXjh0u15dK88+leeoc1pRCoTxHWKuEoF3sV959HAu3jgXTx0BYg59dJnP8JJQM9M6ApOOHiR0L926l76LPuE4yjsOYsGLpKhq3T4fcZ5HBS6W+8taNuW9J0rxs4Vgzo5ok6NNi/o2nKm5nl9Y2aqKaNVJ8faADqtw489Q1uuwS378LZz7Kl79Klb89ipTmlaF3WNmbG6+GDT/NS9rK51ydC+aupAU0tuqnVJ1/fQNrBl0zx2Dm05rMeE7ThkOwpVEj2dqyb0ES05JkafOQc2DVOvvNoXnrFnzoGHpt51Q+MiT4VclepZTmWGM7ptdZ6EfeeJwEUycJH0nSd85wkI7JxHvRcx72XM8ZYwH/scbwn3ecR5GtLu2ASBYn6wWOAv5iMGygc+CA4aP8QQAzhiohAQN7Qc3nkfmQUgLDBN8NZ5QTr1zg/SBTgNnDsCEwZpFMEUEgBtgDUIPW92hW5FUfTGLxaHSyRhTBJmiEggegJY8wYLhEB1gRSDv0/d7WHgUJIIJosgDxS5ukD9KDYaKRVHSykCKIkwFdESKfihTPAuKfoZYokQxlHrA6mMscCfpVz1CCAvRAAIJqBzHI4FzBehG5DQMLMyBq49ePSwSYksUSqNlQjRJjchCHSgG/86xhInS0SIdVIwB6BGYgArJCYOY5UxVmWcKY8yJREUWAizJJFSiC1EIRoAPn4UCCY1yWKlVfFSORVMQDRWACyPIUIEGahikM4L0Dj+Yl6QLghh4jBcGkRRwJ7AK/khxg35RdEPIUUqwxB7EYWQGxFiisMsCQrUAMIiFikNYxAToH6LEEMQZghIBo+gC0i6NMIQETSBn8bz0zhBOo+k80nkxBAMLk4D+hmgcX3FPD+d46NxgFSChw7g6AFnvNxdxHYXVrgKqIVlzsIyVyGApquwzF4IMArTXYSbZdXpsqpUWc0su2qmvGa2AkBznlM/z2lc5DYguKybB7e9foFXv8BTZXnqHJqyPPUiX53lAw9d4NypDvVXhwbQe38NOVBF9NWEB2rI/rrkYHN2snVxui0LuNm+qG9MjjZluiW+rsIeMcfUzLe0iBztMl9XDdmrSgyqkkP+i5j/Iha8RGHK386EfgvBwdC3M84zwnsRxa9Tweuk+5w0vME955Fb1hm6TgffJXQvHYZ938Rzs/ciCkHP9zOWfW9dRFMdHqiLD9enRqlJmRxRp8fUqbHGzGjb0njT3FjL3PDgQ3PfurEa76gj+1rmJloXtN2rpq5lY/eKse++efChdfypS+bvkAU6TPs+30Xcf5kIXCUDl/GOFX3/Q2vvhmnosXXkqX3kqW1ixzm2bdG9cJPvMwCO1zOBdwntjhug8zzuP48hxJwRsITTr/2IfgIJBZZ9NeM6I8e2XZPP3Ppdv2Ufd51EvG9jnrOw+Y1XlRptnB2/tzDZlptWJYYriV51eqwxPalOjqtSE40zk80L+tZFQ+eKpWvV3PfAPrjl1Gw7Rp+7J156x597Rp64Bh/aO1eNQmdzI3p+NM1rW3P6rvvm3oe2voe2/k37wCPH8FPX+HPv1Ev/1Ev/0JbNeRKxHZP9G/bONZP9JGQ7JqzHBMzAfMh+Qo7tOPSvAxM7Lt1uYPSJY+SJs3vD0Lk+bT8h7adh51lkfMfmOIk4jiPWQ8JyiJuPg9YT3HlOavcccPOQmCiMySJMMcmEOwdIIl2IF4sgREUT4OB5AUoi/51y4QXgldMkEMbCRLAJAjLw8RkCgibEiwXBYiFy/G9CpUHYzy1p5RPgwkPYC6EqH8Kp4LMD3IQQMJEwAxFSAhNSvj8J9yocLgQYysPpgODIi0TxU7qIBGIrizDlEQhQAlkDhxRDAU2WKIy8ZkABFLKEb2+8bHDMEY+m4n0iEuBPGiuVx0sUMVZ1oqQSPFxEJAkmBDECwJGFKIZ7Q9NQHIB6HohiLGEcgomUSy4JQ9wTuCfBFOKAVqIwXRbF5FGIYELUIkQ57OCzS2PgRIvDTAUAN+KGJAYrhEukEBmAWKokAbFReBJEShAzLZHHS6pTpVWpMjmKMwhRuBmYfphJxYXhtwvQuAEaN0gD9CQxaZgpDTMheIJ+FwHyzQUhcBFkEXDh+QGIukgjmCzKlEZgTUkYA78hBD8xNwjBTVkUThUsAJFZTBpmiEMMro/G99FEATrfX8QPFLN9xfDnAWZK5xA0EUGXEnQpSZcA0abz/TQIYrqLy92F5e4CoJkouMkN0Mo9RYhsgiNf5igotRWUOmAFtq+4zFVYartblSqrQlddk6moyVRUZypq59jKObZqgaPOstVZAND6m3AnBDpVi7yGJb568SNoIiRV3rBRHqBnDQnoWRserI0OqjPD9WnNvex4y6K2FfFNYJ3APfWNqTG5r4NvbVUE+xWhfo7hnsDWJvW0qlOa8R2z9zzifRcNXMZ9F1Hfu2jwKoG/TxHfpr0XUeuR334SBDZ3nQpcxt1vSe9b0IhAIAKaCeHRwGW8c0XXvjjVPD85/tzkPY/o95z18ZGa2FBNdEg9M14V7m+cHW3MjN6bH+tY1natTVXh3ZWBrqa5wdbsqDzQ2ZDStC9OwZSd6lzSda8YO5d07dlJzZZN/8o3ueOY3LE6TkM3WtZVgnif6lo2ti9Nq9ND3fd1LdmRtpyu/4FlZNvRlRuh0DN0PeN9Gxt5bB1+bKa4J3GVJt9nBCyR7nWgdX7Ydx4F//2bTOj9jP8yNvbYNfHUPfLIOvhgemhjenzbVJcaqk0MSQOd9anh5uyk1N8tdnVKPV11kWF1alyVGFMlx5tmp5tmp1oW9G2LhvZlU/eaZWDT1rE61ffQqH3lm9z1ju14+h9a2lf0smBH7Sy7aV7bNK9tXzaAg79lG3rs0DxxjT73TLzw6l8Fja9xNBHTL/2jT9yabdfAlr1/y247AcS0n5CO03D/lsF8SFiOCMsxiRQ8wrgfnNrzTbzyjL10jb5w9j82Os+io8+s/evTE89cEzuu8RdO3b7XfBQ0Hwd6Hk7c+uYUheT6aRw/cq/wYlB7CCaPoHNxOicA78Iokx8CagmMMgSeGoS6ggyQeihBiaKfAEaYIHhDS1HwC0VLcTrCO4xPwgTeIgJcWMFH4/rpggClSgFPgfMJ0Hi+Yp67iO8HJxHdwAjfAUMZ6J6nSCiDH6ABXwaIpwOxRY6/GNgoUwIciokw5QadEbACcgGjDGOCCMRDgUsCcAMcSCJMeYIliQANlEdZ0jjEFgURjBug8QN0QZAhRuGIqnipDKlblGtPBS5FYQA+BTj+JSDIxECTAbYegrMCiocD+5OAAnYTw5XGgOrKo0x5nEW5w2LwnZmiCDjgQgSv4ujHqEIMAgs3SA1BZAgHy5IlikSpDMlByAeHiASakFwWgoeQCCKYdD4i+NJIiYRkiiEqTefjNBCCQvBjIW2HIUKPKAmJyUA9K0EPJAyerEjHo4KYPHjogjQkDjNkEUyK5Cl+sJjtLuB5CrmuAo6rgOMu5PiK4WclQDviwD+KJgoWw4QXS8hiIU4rcxVSyg/SgoBUVriKKAZaZi8od9ytAOi8W2q9W+YoKHcWcLyFVanSaoDOMnDVqSlTUTtboZyrUGe5qixHtQhOunKBWzfPVWd5DTmEmzmYV+f4qhxftQiUU7XIU+X49Wj+Tg05UBseqIsN1oT7Whe1LTlt8+Jka24a+GbO0JEzUMSzeW6yhuwDac/bJg/0KQL9NRGN2NlVTfQYXrtcb0nXWcj3Luq/iLlBa475LqL+yzjo7+9T5LeZ8G9nQT66BsZn3HO5TkL/KS5dp73vooMPzf0blt51c+eyvjU73TynbZwZb5yduJfVNs1PNs5NNGTG65MjlWRvx8pU+/KEyN4stDYJbfdkng65v3NwwzLwwNKzauhe0XevIsq5Ye1a0rXldGNPXcb9gP2EdJ9HUBAT0gCoE2vP6bqWDV2r+p51473Zybacrm/dNPzYPrihdRzh5PsMcZmafO6ceO4YeWxxnRD+83jwMklcpvrXp3pWpwbWDaOP7faToO04oHvt9F3EXGeh6ReuwYfa3geG7jVdx/JUa1YrCXSIPS2VoT5ZsIetb1CEeqsjg+rkeEN6EhHPqcbMVENqQkZ03TDQNVPfpq1nw6DOTIC/vzw+/NTRuabvWNE3Z6cURHvT/GRrTte9DrFRzbZz+IlrbMc7+dKn3wua3oQsB6T1MGw5IE37Ie2ub/yFd/S5R/PE1bakHd42Tb10dqxOaF+6LUch63HIdhK2n0asx6T1OGw+CunfBKb3fdP73ul938Suu/eBrmdN3//A0r1maF2eaFsdHdg2TL/28H2gDqFgFsAQx08DlAzQQechACb4gGtAIvh4Mdx7JJJWkbYDmgD+kbXhND5MN577TXQsCFiGpCeQDiBGCXouiEJ8Au5VoKLIxwe13U/j+Wg8P1oSoMG3IDjQ+H4AVn4QbmkJ3KuUUgGkErR4BHngPILaC6DPR8rvbQgPwnPgloLij+YBHCEmgBxhKnQAgkwUE4QRcUYiCXJjAelQ5BT8cVG8BPYTpItDDDHJEAZoYoJeCYFRTBwB8gUhiChTFGWCRI74oxhpXKALIcEaSUNU7BWSB6RxmCSIpcoTpRCKjYI3fSNVw2mAlUQhJmyOhHtKBQLVCwn0wD0RvILuHyuR3ERCS1CsEy4TBSXgKuQRliLKqkyw5HFAWwnI/cjpJuGS0VEgFMMF9KRL4fzhiADulKYE4AhSO5+A5wcH/TpcfzHXVwQ2p/wS9NCt8IJuDojpA9bJRkFMrq9YEKTxghA64AeKhYEicbBYBL8UOO8AlIh+st2gHZW7iiuchVwQ08FbL3cWlDnuljsLyxwFZe5CCjQrU+XUVAPQWV4zU6GcY9cvcOoXkRyU5dXNQ3xTneWrc2haBKAEPz0nUC/y67OU/85XLwnUywJA0hz/Tk24vzbSf29mtCM33bY4BbiZA7LZgaCzZWGqLatTx4eFFnVVvFQRLxXYGkX2ezyTuooYYhsa+x6MNWcnhza1tuOAKqlRJTXq2KDtOABIehkPQU5SmnqnEo8gPWjXKfe0u05IKr5JBQ1ro93Vka6mzDAQRoR6bYvTHSv61tXpe7nJpuxEw/x44/x40/x4faKnY3m6a2W6ZVHXvDClTo8NP7INP7ZrHtkGNyyDG9ahTdvQpm34kWP4kWP8qUe364dY51nEehRwvyUDl4ngVZJSpTogEKnvvm/oXJ3uXjXrdmyOI9xxgrtOQ44TgnwPcpBp39e/PoUVlOn3nL6LeOAi4TjC9bt+3Qvf1I5nesc9vGWefOYw7/utBziEO88TPev67jVd1+p0x9JU88JEfVyjILpqo0CiDa/dHENDNTkIiDmjbZjVNs4CeiqIbkWkt3FmsjVn6Lxv7t+0DT91jjx1NM5Oti5Pt61paxJdHUs6kaulITOhnhnrWDX3PrD2P7RpnjhHn7kndjz6Pdy0T1gPSdtR5GY6jlqPw9pXvvEXnvEX3pFnzqbs8Mi2yXCE69/43Wdx11lMt+dxvY27zuO2k7D1JKzddfdv6YafWQwH/q5lfdeK4V5mvCpVKk+WiBLorkBUAqnhCPgAKBk8P/hrohBdSNAEQSCD4IgBihXzA0U8ggaoB+EqGqWlAm8NAoDygwheQU6F/BjQ3wEWEUSC9FTMDQAbhdjiLXri4LhRu4IIKaA2YnYQb70J0n0MbgLwicDfhHceCPrAgyByBwwU8BSmIF0QBNVFeOtHU8HKEOghlGAlQXxTFmVVxlmVUZYiArI+AEqEQgcGUCogsAhTEO8DuRkFXvk4nR+goZggRBIhJhBliaMQPwVii5QTUL1QOgGcLShCEIpFKVCAYqBrofQpYMRRoJ+IHbMQYMGlCUiGMEKxYIR9KD1I/DGjgE9A1FJAAPrf5FGF4WKBQVPRWySyQzoXFRJBeVqgQcVKapIl1UlWZbJEnqyQx0vlUaYixpKDegZmBOuFMUEUODg/SBcG6AJIPEIIfhPXBpQECchTRKUWcQM0QRAFuAN0Kp2owlvM9hRzfKChV/iL2PAnoUEGEsLZCg945RxfEc9XyPMWc72gpFOhTAh0QkwTvTsKKoB+Fpa7CkrdIKyX2BDrdBVWplBCEgjr5TUzbCQQQU7SjXu+wK1bgPwkCjpVWV7jEgWdfKCcKMQJkLoIy5uW+eplQM96ENxBeb9TFx2oiw2o4v3ti1pALmCdOqQR6dTJYWV0QBHo5BjreQalPFYijzBryL7WhemG5KgyPtic1bZktffmJxpnx1SpYTWaXGdhRO4SVDonfp2ERJ/36cB1AgD0KqVOa2rDQ9Y3fkDP67TnLKJKDdTGeqoj3d339d33pzuWtbXh7q5VY/cDY8+mqXvD1L6mb85N1KeGGmaH1XPtPQ8NHWuTkJ2zqB996qCmkSf2/vujldcAACAASURBVHVDfbRbs2kd3XaOPnGNPnYa9wjzG8JxTHrPYyOP9cY9t/88hrKp0sGLZNd9fc+6oW/DNLhl9Z1F3Kchx1Fw/LnJcYpDhum3ILJP7lisIx3yYEvn8qTl0Be4iI89MVoPCOs+rt/1Tu04R59YpnedlgO/5cBv2vf0rht61w099/Vdq7q2nLZ5YVKdGq0k+mujmtqoRkSyutfGetfH1KmJhllt0/x00/x0mU7ZvqRvyU3J/N0tOX3bir5nw0yhZ0N6onle25gZqUv2VeKdrQvaPojS2mTBzp4H1r6HwD3Hnrv7N4z6VwHLIWk/hiRcxwngJpVUa9gP6F77tbveqVde/Zvg9Guf/iBgOSWtp6Ru32s9I22nYcdZ1H4WtZ6Qrdmp1oWp9kVdBzxBda0LU/JUWWWiRIa0BRCXqXsS8opATEdONKAnUFHECjkAeYCS/CDcUYCzIeRN/yd6MngBoKs8P00QKAb9PUSXEAwRgfKTUOofRV25IN8jr5BK7Qxh/AiKAICyBECJ2C5KiwEcpAFOfaSxvCCcoRhAmQqJgoIkCpdQiEklzfADxQJEBsUkQxJmiMMMMcgddBFJ5xM0PvApCnmBsVJRPxmK/d3kNgEAURgH+g+KCSBAoaTnEHKfIb8V5DIhOKGI2YWZkLeEnFkKzYEtBuncYJEAh0eIhMSkCCU/HgWCnpTKj8KdENBEPjJkxSKqSOcRxVy8GNJdUaan9CP7QymTyBvAqSQBSMkUEXQk6cDJUHBP/Y4oCQGUN8hkgp8bYgKVUawyXlqVLFMkQM2vSrIkUaYgAsIRCg1jYir/AR5OdGEAVB2et1gYpEtJiDvDgw2uDp4NXKQHAsGE3DWaAMnokHHhpyGZkcYJgEQOPNRTzHEXcYBdwgS0FMD3o26OZCLkjxcixCyCd8fdcvvdCqQLlTruljsKyqx3pRFmZaKsKl1enamonmFDLifKQEJaELdujq1c4Cip/KQsT7nAUy3yG3ICcMkpDx10IS7FQxuX+Q0UbiIGqsxy6rM8SaQE0FMZH1QlettzkxB5XJruWNK1ZqdUSY3U11ob6a8O9fHN9TzrPYG9pXlhsmVhsiWrbVmcgimrbV2capobuzc/0ZKbas5qEZGETEmUy5ke2ppqnB01HXj8VzHfVdR3FfVfxSrx7qbZ0Yb0yPCjadNrtzo12DirUaUHBh6a+x5Y+h9Ye+6be+6b+tbNPRvGnodGJGXo29emjIfe9lXt4LZ16Klt8Imlc12rTAzWJ/o7lsDZb1vS3psfb8lqp3Y82h3P5HOP9oXH8NpvOSJcp5HAu+TIY0PjnMb6xk+llJrfeAe2LAObVshI3zC3LYxRcVv/RRyk/29mUHp8hvw2E7hM2E9wxylBhXS9ZzHf23jwIuk+jThPCPOBj/krBu8uA1z+TcsAhCBMt+h5b25c6m2vDg9UhwdEjrb2lcHBLX3ffYPU3wXEc25K5G7rXjN1r5nal/VNCxPqzHj7sr7ngWnwsW3kqaNjVVsbGWxd0LYuaNsWpu5lxloXJgYfWjWPbLXxwV5AT1fL4vi9uXHNlsV6GLYfR2wAoGHLITG16xrfcZgOIEvMsB/Q7wdM+4T5KGQ5Je1vI/ZzNJ1FzAdByxFBufD204jutbd9cbo+PiRLlEniZbJEmSwOQi24kEg2pRCKuv8hagmhRsRAQQYtoiRaKidJBCAL2eyCINy0IONQtxCK+nO8xXwveGd8fxGl1FOCO9xg3mKOuxA4CCjvkAmP3HYIegK1AaUI5UIFARQgGIo8ehEOgUUqiMknIcdeSjLEcA4ofz7EhIgBSpYCNERIyicYXKDGNEBwEiJxcM44xkWhAPDZw0CvII4ZYUrQMwMSv9FClLIK+YlCJJuISXRKKPORYp1UhBQMRQ0ToPIHEOWkUusp3RxJZyh6cKNowTVC6hUgMpWnBXEMJIgD7H5MJ4J8UrhwyJdEHJYKayDspkIQNykKJAvwC8lrVKYBijCg7AUSwTpi5VSGpiiMSaIYJFHBQANQfsTAuyFjFPQuFKCgxEA0roGKDjOkJORj8v3FEC3xwyNTCI8ihggH1xsingSdh0ZAIEcBcjPEBE2EQxxTFATMFeA0rr+4HKRzyGmnwBESjNwQ3wRVHd5R1tENeoJ7DpOjsNReUOYsqHAWcJ0o3OksYHsLFYnSj8FNdtUMykaaZSvnOJD6Ps9B8U1ISFKB/sOBUObHqX4BkpYAYVGIU53jNwJu8kE7gnQlmOoX+RI0FuBOXWxAGevoWBrve2DsXNG35abacsjfTAxWEp1iR6vY3iLxdgpdbcroUBsA63RLFuFmbro5Owm4CQx0sm1JF7xIQn7PVQKw8jLKN6slvnZ1YsD5lgDcvIaFdZE+ZbRf5GhqmhsR2tQNqaHGtEa/H5jc8Q4/dg5u2vsfWHvXAUZ77hs716a77+u71nSda7qedX3vQ+PgtnX4uX1kx6F5ZhvctnRv6DpWpmsi7b0P9J2r0605rWHPZz7AjW8C+te+wS29/rXXdR5FeYvJkcf60R3n5K7Hew65qKZ9r/6Vk5J9fOfRvgcj1kOv45SAwVFXydsMefLbGRwJ9NRAKUDeqzRxmcIvk+4z0rDnxH5J5xdgCqJlCJLzDf0bpv4Nc98DY1tuoi7WKwt0VpK9NbGhptnJ+uSYItQvcreLve1VkYEyvbJzxdi9Zup7YO57YO5c07fmpprmJ+8tTPZsWPo3LUPbtvaVyZZ57b3Z8Uqii2tWVoe7lZHewU0rRKgXJhrnxtpXdE2Z0XtzY02zY2NPbbZjAFDrUUi356nMsNtWRsyHuOWQMB8StqMw8uvDAK9nAJ3WU9J8RKAVcOrddhq2nYbNx8GRHYs0WSYF9CyXUuh5mxf9MekHRg0h9YbyoCHT01fEQT6XKEgTEzQJyQAYxTEJsEuaBCEXL0Dn+Ongr3lpHE8RsAx3EdddxPUWcalMFD+NC+NGCvmeQmAloPyisShIoEdIhElCDBFO5/npgiAS7kHtwcQI/uQkiLNw64ZgsAoifRh41gTshArOorAdSvkkmbAmAXFJEQljXagcKQDrILA80IUQzxISkFWDgn2A3TyCjhL7GTBAKAKeLBoiBU8LCYQI0TgfJCUBAURyP6XkoBx7amQRSwjxSqQ4IXkEiCF4zQCaYhKSqGRhupgE8ghqNXo2IF0InG5I44exTEwYLgWJWRgPuf+8EJ0P3BlQlRuki8kSWbRcFGIBMUf7l6LkeT7QbXgeoFSEm5xNCpdFNxmvSGeDpxGKcqKnAi9I5wRpnCAI8Td5rJAIBYFX4JLeIhDHKOEOpwuRziMAR4TGBbeALoBwdjEvUAQhnWCxGKEnP1DM9Rdxkc5+MzQIMc1yF2jlAIsoA6nMQcElUofcENCEsCYIRCAZlXkKyj0FAl8h21NQlS6rTldUpSoqk+CtV89UwPChDLt+nlMH2jogJiRsZjlIKUKAmONB/maWC8nw4Mtz6xdBZ29Y4jcsCxqWefWLN1/VL3IlH1O+RGHWHc2WcWjT3P/Q3LWq71jWteWmW3NT3fdN7UvTQleb2NvZPD8hcrSIvZ3K2GArcurbcrrWxenWnK4xM9o8PwGh0mXdxDMzcZX2XcX9V1HbaaB9bULiaRG5W8S+Ntd5yHcZdV+Eq11tDIyB5V95C+QtkLfAT2oBVj2d4yoAuES4SQlEFHQqZzkUnVQv8ppyvKYlXuMS94ZIIjqJcjlBRoeAJsArryHHb1wRqJb5MCG1vSHHa1ziKWLw5ENOAzzn7gxv2/s3TN1rBnDbl3Ut2cnaSJ/Q2ca3NfNtzR0rho4VQ9uSXp0aac/pqaljydCWnW5dmK4me5sXxjtX9SPb+sAlUE7/VWxsx9icG1FGBwXWhspInyLcq0701VnUP6mt8jvLWyBvgbwFPrcAg8moQiMvATfn2HVz3No5Tu08R7nAoaCzdUVwbxl4JTVcHdTzJcDH+kV+HRpB1JAT3FsWID8dBCJV7oaEolFbMLQBtD7kHIjD2J2+B8a+B6ae+4behxZldEgZGVRGB/m2ZoG9VRkf6Fw1dqwYmucmu1ZM3asw9ayZUCqloZrorsT7ZN7OluyY7o1T/8ZVHe5TpYYaF4Yb5gblgU4F3qMgeyrDvZ9fYv5z3gJ5C+Qt8CezgCxQDqLQ/M2g9ToEnQ2L3MYcT52FgKY6h0BzGcimapFfn+PX53ggDUF8k9dwoxFBuBMSPLM8KosLkrFiN8NqBRAMYdzRPLYOPbIMbVn6HppqYz2VeJfU18a3qCuJjp51c+eqsQuGPBrbF7V9902DD60DD6x9983dK4ZKvK+S6JMFO2XBTgXZXRnuZE1UyYJt6oxGPTtYE+6sxFtlvqY/mYnyO85bIG+BvAW+2wK84RIYRARDLUEUomKaMHAoB5gI2e8oYVO9xG9cAT0dcDOHpKFlvhotgSHtWR6kppEsSRhTRDFZokScgEEHVG4sn2Dc0e/79W/8E7ueocfWzuWpztWpKrK/kujtfWAc2LD13bf0r1t7Vg2tC2Ojz5wTzz1jT12j265KvE+Od8uCnXK8UxbskBOdtEEZ19wk9bVXQ97iSMv8WFtu4ruvLL80b4G8BfIW+BNboDp8U2hOCSo5Gi+URXmaSE9vWOI1rX2ETmoM+xKlrVMpnzyoagiDVjEhVTwwypJGmdI4VTDwpurVHdsZaTrCNduW4W0rFMR86mjLjWoe20afuDSPHJotx/CWXZ0YrIv2Dz8xQ/Lgrq91blgR6JEHuuV4lxzvkgU7inqlXFOL0NUu8XUoiO666EBjeriilv8ntk9+93kL5C2Qt8D3WqAWqnOCCoSKeqB6H2jMpXoZ8pDASQcFCXnoOeCnaipvaYkPaQwwGIwliMCoXFRXsFQSYUojDFCN0FgDcbjkjvM8Mv3K3bFi0EKJtoBuzzv21Kbf9Wt3vNod79QLr3E/2JAeUSc1qsTQ8BOT8yxaExqoDPZUBnvlgW4F3lNF9HOMzTxTC9/WxjOppb5OBdFTGxn43mvKf5G3QN4CeQv86S1QrmLdsE404BIy4YFmotFES3xqWBFIRlmQ4KlwJ1V5D9VzgTIraKwXjJ5C2bsMEUlD43epMV3MO/YTGO/sOI1A6Z0TUr/nGXtitbwhzPu4+Q1hPyGb5yYaZ8bVM6N1saGG9IQ6OaZOjlajakzV5EANOUjVZ6rQNVXivXxLo9DZLvV1liq4f3rj5I+Qt0DeAnkL/JAFIN8ISeogEN0W+0AD2EFPX+I3LguaVgQNSzx1jssnaVyimI0XcwLFqHzXTUYzDFGDVgWQqyQJM8UhuiTMkITpd1xQsTHuOo9A1cvz+MQz6/RLl+Mo7DiOuE4jljeBrvt6GMazMNE4O94wM9aQHlclRuqimrrIUF14CJHQHrmvqzrUX4X3CGz3mGPVXPO9H7qg/Hd5C+QtkLfAn8UCNWlIdFflIPSJ0o8Q8cxRafCgvEPiZ44nCKNxXFA1sViIF/Nh0AFUO4WREbelamDgABoJBoPuYPzCHd9FwneZ8F5AfwXvWbQlO2na93nP497zuHnff292rGVxpHtd37Y81ZyF8ez1yRFVYkQZg25ClYHuGnKQY2ioxPvUqAi8KjVaTfbzLI1/FsvkD5K3QN4Cf5kWCIfDT58+/YFr+4d/+AeVSvUDK1BflcqYCCKhVBKo6pC/CYgJoLnEVwKqcgWoXoEsCu0DxFGmgIShpVwoYYOKJ6ByUDfVT6hSiqisIjtBu+M8I32XMc9FxP0u0ro42ZbTtuW07rPw5DNra3aycWa4bWmsc1XbtaZvyU2iaiAj9cnh+viwKjGiSo7I8Q5FsE9oa+Fbmhpnxu7NjTdmhtXJwd97VRiG/d+/+qvPph+zVX6dn8QCJSUlc+hVUlLyh+7w+PjY4/H87lb7+/uhUOh3l//eJalU6uXLl793tf/yCtSVmkymz/ZALf9s4Q9/fPr06fz8/A+vk//2j7fAwcHBhw8fvg9A//Vf//XDhw+JROLHHKhxWdiwImhchkDnTVoSZMhDkSQ0LBVqbomgvR1LAX2loCQrcM8gnYfToL4iVHGFQieflI+CAijlsaI7jjPcDdAZHnmm17509NzXD28b9a9cA1vTmsfG3gfaoS1z/6axa03fuqRtmoMAqApaDGmUiWH1zGhDZlTibVHGRmqjmprIYHVkoCYyyBqV/96r+gw3bz/+3g3zK/wkFjAYDG/fvj07OzMajX/oDk9PT78TPS0Wy/T09B+6NwzDUqnU7u7uf2HDH7nJysrK7u7u0tLSp+sPDg4eHh5eX19/uvD3zufR8/ea6KdagQLQZ8+efbbDf/mXf/nw4UMwGPxs+fd9pDI6AT1RXicke0J/Ny4UMESjhqB2DAz8x2QxSEhC1fUxITQFge4jUJA7zBCSNBEJLbag8A2aymJFd4B1XoQtqP9i/4ZhYBM6rOn23LpXaHrp1e64R7YdA5uWjhXKeR9Vp4frE0PK+KA6NdIwM6KMDddFh2sig1XhgZrIQOPsSLlO+X1XQi2/xcrvnPnhbfPf/iQWWF5efvjw4ebm5vLy8u0OGxsbtVqtVCp1uVy3qKrT6Xw+n9lsFovF1JoUeo6Ojnq9XqvVKpPJqOVarbajowPDMK1WOz4+3tbW5vF43G53e3v77SH4fL7JZKJ2KJVKqeWfoefU1JTX6/1sQwzDjEajz+cbHx9XKpVarfZ2n52dnW632+v1jo+P3y78dGZlZWV5efnw8LC5ufl2eSKRePjw4afo2dzcbLfbfT6fXq8vLS29XbOrq8vj8TgcDpVKlUfPW7P8GWbevn374cOHTwH07//+7z98+EAQxI8/eiNU+qC8ddRjI8eXx6kWAAwRicqwQr1XmjgEAIoKtUDjrI+1uwBDBQRDHKJLQ3QFFC2EjoSlkUJWuPCO+yJiPcRHHpsGHhp617WtC0PtueHpV27ja7/xtV//yjf10jP+1Dm0aW7LjXcsa5WJPqGrUZ3SKOMD9cmh+sRQ4+yoMtpZH+tRJQfqE1AttC7S/8PX9p2g+enCH948/+0faYH29vaTk5NAIIDj+NHR0S26mc3m09PTbDZ7fHycTqcxDFtZWTk8PHz06NHe3t6jR4+ammDw2OnpKUmSu7u7W1tbJycnW1tb1PkcHBxQnvvW1lYul6NW2Nvb293dHRsbwzCso6Nje3t7b2/vwYMHu7u7T58+7enp+ZR7lpeXr66uHh0dbW5uPnv27PDw0G63UztfWVk5PT3d2NjY3d0Nh8NXV1fU8kAgcHR09OjRo42NjZOTk2w2+7vGWVlZWVtb29vbCwQC1LdcLndnZ4ckyXfv3lFLTCbT/v7+8+fP19fXX79+vbm5qVZDcQar1Xp0dPT06dONjY1nz57l0fN3zfsnXfIpgP7jP/7jhw8frFbrH3REFOLkQZW5ZUHjshAKmKKm9tVxaIAK4y+pXiaoLDRUX4XOSx+5J6ooBo2VoP8VFCcUhoF7lkQKMbLgztRLZ98D4Jv35gZkiXJ5skKRLq+eLTPt+y0HuGk/YNjzQV+gl67Rp7ahxxYFOVAVHqoKD9YlNPXp4bbckOaxcWjL2Luu61zRtmTHm+ZGHac/9GR4/b/+16dA+Z3zf5B18iv/oRaIRCJv3rxRqVSNjY0HBwfhcJjag9FovLq6WlpaqqysrKmp8fl8b9++1Wg0GIb19PS8efMmmUxS6LmxsVFbW4thmMvlury8pDa/Rc/Nzc2jo6OJCRhs1tLSsre3t7i4iGFYNpvd2dlpa2v7j6h3Q0PDs2fPqOW33FOv1+/u7lIBytLSUoodYxim0+nev3/vdDoxDFOpVNvb2xTqtbS0HB0dUWeFYdh/EOTLy0uz2fyZQSj0nJube/ToEfWVwWA4OTnR6XS36Lm9vb22tiYQCDAM6+vrOzk5icViGIY9evTo4cOHXC5k4Fksluvr63zc8zPz/qk/Hh4efvjw4d///d8/fPjgcrn+0MOBzw6DLwXQHS8OXUuhH1SyTJ4qk8ZLqdq1ghD0woPE+Jt2pFCxkGpVL6G6CqL639D+GtVRxYi7dOLund77+qEt88i2yX4cMh74mlfFTavivoeT2l2H9QC3vAmaDgLGNz7Dvm/6lWfkqbU6oqkKD1VHoM9EJdmnSg83ZEYaZ3qaZscbZ8ZUieF6pMj/wBV+J1x+tvAHNs9/9UdagMfjPX/+nIItDMNyudxtbN5oNF5fX9+qK8vLy9vb27eH6+/vb2yEbIrT01Ofz0ct/w9P/9b5/RQ9Nzc3bzdcXl6mDrG7u5tOp0c/vtLpNCUW3aInhmFCoVCtVvf392s0moWFBcpri0Qih4eH9fX11D4JgqBQz2q1Xl1djYyMUMvlcvn+/j7Fmm+PTjHotbW1iYmJt2/fUt794uLiysrKp+j57t07r9d7u9XW1tbGxgaGYYeHh9FolFouFAr39vby6HlrpT/bzAf0Ojs7+y8cEdLjl4XSJHQVlcago70sViqLl0B7KNQpDypYo9bZAtSyieoOK4Jq1nQRAdX+Jaj1yE2XeT+NEfwNnbhbFPz1HftpyHEWNh34dfsux1vSekbYzgjrGWE9JWzHhPHAbz7wG9/4TAd+00HA8NpbTWqqyKHK8CDb1CC0NYq9bTXRgbr4oCo5rEpCDFQZG1HGRn/gIpd/9rPPsPJ3P/7A5vmv/kgLUAQt9snr+vraYDBQgcV3796Njt78fBvo9buH+1Q1mpiY+E70XFlZud1wfn6eEoUODg729/dff3zt7+/v7e196rmrVCoqQLm3t/fy5cu9vT0KPWdmZnZ3d0UiEbVPm81GoSdBEKenp1SwFcMwFov16YPh9gQo7kkRyUwmQzFum832KXq+f//+U9K6srJCPTnOzs5wHL/d1bNnz/LoeWuNP88MFev8u7/7uw8fPnz6VP6RR5dES6HXSLwUGuFB6z3U2j7GksYw0IhQaWoQiFBXGGjA5YOWMIh40oXQlgo6vnBwGgencQN0jq+YFvhNUeDXd/2/vON4G7ad4JO7duMbr/0t6Tgn7W9JG0AnLBx6pNO/9lgOg4Che96pFy6Js6UK764J9VcTPWW6ekWov5LsryT7QG2PDtVGNMPbeu+7m2f1913e78LlZ0u+b8P88j/eAqurqy9fvlz/5PXy5UtKOzIajZ+i5/37929dXQzDbtWhH4Oe9+/fvz3VbDZLoeTe3l46na78/78+Rc9kMnl8fKzT6aRSKZvNzmazFHqmUqnXr1/L5Te5HG63m0JPn893fn5+i55MJnN3d3dubu720NTMLXqGQqHd3V2Px0Nh8afoeX19/Sl63r9/n0LPy8vLT9OwXr58mUfPz8z7J/34T//0T7exzk9joD/+oLJ4qSRagjrxYWKCISaZ4gjq+RyFrirQtiQA7ZWgFyyB8VBPQ9TNBbWtDtKhExTqmgUNQb2FNN9vivy/LvD/6q77l3c8FzHHedh44DO+8dnOgIfaofF3yHZMmA/8NfG+qnD38CPDxFPb5DP72FNrNd4jcTTXzXPqZtkSd5cs0KMgoL17JdlfRQ4Y9z2uM9J9fhNH+74r/AwrP/v4fVvll//xFujp6Tk5OYlEIp/uKh6PU9rRZ+iZSCQODg5aWlowDGOz2U+fPqU0mR+Dnru7u7do++jRIwpMNzY2/kOAYjKZ1NGj0SjlLN967p/GCtRq9c7ODoWePp/v4uJiaGiI2jCXy1HoOTo6enFxcZs+pdFo3r59+6kDTq1/i54dHR0nJydra2szMzNUOJXaz3/w1tevX2cyGWr9mpqa3d1dCiV3d3dvoxzU/vPoSVnpz/D+b//2b5/FOqk0prW1tR9/9Ko4swq62pXIokxZjFkZL6mKQzMVyExCnVz5qCUq6oqKurqi/iJCHBMTqF8T6oHM8UHPZLansNDzqwLvL3/j+ttfmb664zwP289I+xlhPcbNB37rMW4/JR1npP2UtJ+EqmO9NbHe2lhfbby/NtpfFxmoCfXJvR0SZ7PM08Y2NAKA+nrkRH/nqsZxSjjPQoCeb38Pen5nqjyFoT/eKPk1/wsWiMfjJycnnZ2dn27b29t7enoaDoc/Q8/Ozk5KNycIYnl5+ejoSKfTUXHPW8D6Ps99Fb18Pl8mk3n37p3D4aBUnZOTk1wu5/f70+n0yckJ5RTfomckEjk/P49EIjiOb29vx+Px/f19q9Xa0tKyv7+/ublJ7fAWPTEMW15e3tvbI0kyEAhso1d1dfWnV3cb96QWrqysnJ+fU9GJT7lnJBI5OTmJx+N+v58S6Cm5LJVKvX37NpVKkST5BL3y6PmZef9EH//5n//5w4cPJEl+tv/T09MPHz7s7Ox8tvz7PkIb58jNJI6wZDEYUyQB9GQBbqJ286jFPDjm/CDqcghdWqHhFT9QzEH95ctdhdBU2Vdc4Prlr92/+JXt61/qv7rjeEvaTwjLUbCa7DGjKKf1CADUfhyyH4VqYwg0o9DzXRkdRJXnh6AEfRRK0CujQ6WTdaVjdX3r4xM7FvOhz3FCTO86yqbqvu9KPl3+GeX8v3/1V59+m5//U1ggk8n8rqiCYdjMzEwmk9Hr9ZlMhkIN6uh9fX2zs7Pr6+vZbJaCTgzDMpnMbSLR2NjYLWXLZDKUmrS5ubmysoLj+P3799fW1txu9+21aLXabDb74MGDXC53uxOCIKidVFRURKPR+/fvLy8vW63W3t7e1dVVimhMTU3lcrn19fVYLGaz2W6DrSKRiCCItbW1+/fvJxIJKqfq9nDUTAa9qHmr1Xp7wlqt9nYewzC3272ysrK+vj43N3drhPLy8kgksr6+vrKyYrPZZmZmKC3+s0PkP/60FqCinL/rRlBHoVz4T8NKP3B0AWqEhxqpYtIoSwrQifrxfWw9zw3SOFRDQzQok4dD1z8uQeP6adAVmWrt6SpguwoBOp2/+JXz6186vv6F6cs79hPSeoSP79iqyZ6acK/lMGA+RAz0rMqIKQAAIABJREFUmDTv++tjGqpXB4WYdZEBCjTrY5q68KDU1VY9Cw3mq2cqpO726lCvzNsmcjSJXP+ZHf0DV5X/6i/VAhR6/oRXp9Fo0un0LXzHYrGDg4OfcP/5Xf13s0B/f38qlfqBszo9Pf2Bbz/9ShhliqKYJEyXRhiKGEseY0migJ6iEAu11P44BDPIgG7YfhrHX8z20So8qO2rt7jCA02Sy92FFd7ivzV/+Uv7139r++pv7V//wvbVHedJxH5M1oR7KXbZ/2jKdOQzHHotR8Gxp9DpqC48UOnv5JvUXL1SbG+uCw/AwshgFd7NGpZXz3CqM5zqDDRNhn7zGbbmkd5+/GMHUX16kfn5vxgL/OToKRKJHj16RCU8ZbPZk5OTH761/mIsmb+QP94CwjjUhFckWJWJEnkMSsTzwww+SnrnBencAA0K0KEadPwQQxDG+CSDEyhme4vL3YVsL8Aox1vM9xUJA8Vfm774W+tXf2v96he2r762fnnHcUxOv3DVhPvqogN10cG6cH9duF8ZGRx8PKWKD9fHNQp/Z00GCGbtLKcmA1NthgPN6mY5Suhax6nNsGtm2NVochyHnCek/Qez5f94c+T38N/cAtlsdnZ29qc9SZVKRRDE/Pz87Ozsrcv/0x4iv7e/SAtI4xDrrEywZDGmBIaxYzySIYpgMC4TzaPB7KgOSIjOJ1DP+gCN46OxUcSzwlPE8dF4vqKvDV/coufX1i+/tn51Z3jbqIwN1EX7FXinyHFPOccVWBskzmaJo0VgaeAYlCXjCopU1mbYyjmQ2pVz3Pp5LtdUr5znKuc4SoBRbm2Go3/lchyH7Ke47fRmPNxf5I+Rv6i8BfIW+B9kAWmUJYti8ihTHmVJI0xJlCUGHQmThzFxGMgmqkdHg4pKEAAtrgDQBOgEnd1LxT2L2J7iL/U//4Xly19YvvrK/MVXli+/sn55R+HvkPnaZL52kfMex6QECplh12SAVFITNiKtybChzfxMRfUMuybNrkmx2YY6sau5fKq6Ghx2Tu0cV7M1bTvGrSd+y7G/Z+Nm7Mf/IBPnTzVvgbwF/iItIA5jkjBTSmKogidTESuVx8vk0RJFhCGBEsiQ18nxF3P9xaAdfeSbFd4ijq+I64clSHAvrnAXfW358mvzl1+Zv/zK8uWX1i/uNK1ImpbFjctidU5Aed81s5yqGXZVBqYybTXfosY0EvgqXVGdrhDa1ZV4uyLYJg+AQMQzq3hm1cQzs/U4aDn2mQ499bFBdXL4L/JnyF9U3gJ5C/yPswBV/FhIQvU5RbwEcpVIloTE5CRdEkIllHC6EKeJcZo4WMT3Fpc7CytcRRUeiHvC5CosdxaWO4vKHIVfmb/42vrll5YvvrR88YX153caloXqnADyN72tEndz9Qyba1JKXM01ZF9tuL8m1FsDSnqrxNEoc9+rDXfWx3tqI51VoXZ5oFXma5V6W/u3JiZ2LcNPdAqiqzbcq05qmuegoE7+lbdA3gJ5C/w/t4A8DkqRKIqJYixJHOof8yHZE4p7QuMNKBdPFwZpgmAxPwAMlE3hJiR4FnK9RRWuAoSehRXuonJH4ZfWL76w/BzerV/cqSP7VXGNKq5RRgeriR6Fv70S76ole+vC/bXhvppQT224ry7Sq4z01sf6lNHeukhXFdEu87WIHI1sQ600zJLHSqqS5dWpCr6tvircpSDaa8Ld/89Nlj+BvAXyFshbAMPAbReFMT6qnySKsqCKUpjJJ6A+PEqPZ/CCNB4OuMn1FbO9RRUeyE+CFCUXhZ6IflJs1FkIrBOmn//c8vM76sSIKq6pj2nqqRz4yEB9bKguMgDiewSmWrK3luytCfVUE91VRJc80C7xtFToqosH+KIQVm6oYptrRO7G6khXTbS7NtZTF+tTxvLtiPP/27wF8hb4b2EBUZgJqvrHtCRhCDx3Po5xAzR+EMrF83A6F6fxAsVcQMyCMsfdcuddtruA7SkCt91VVOZE9NNVVO4s/ML08y9MP/+5GaY7DclRZXRQ7usQ2hpl3vbacD8Fowg3+2rI3mqiuzLYpfB3KvydMm+71NMmdjUL7U1iZ7PY0yQn2hVEuyzYWkl2yvE2ub9V4WtX5pu5/7f42+RPIm+BvAWgZKcgjAlITBhiUk01eEE6P8gQBKFoiIykS0goocT2FVa47rKddzmOu2xXAdtdUO4uKPcUljnultp+jSC1sMxeUGYv+ML085+ZfvY3xp/dqY9rasK9VaHuSrxLEeikkj0rg10ixz2eWSWwNsi8bYpAp9zXIXY0c43KMm1lZaKsZFzBNtRJ3C1CexPXpCqfquYYlEJ7UyXRVRnoVMVuqjn8QT+dQCBozL/yFshbIG+B77KAUqm8rS/zhwFLCBOEmeC5hxlihJXSECYkADG5QZogQOf5aRWQqFTEBp29GI01KqrwF5V7KdUIEJMKfZba75ZYf/Mz489+ZvjZ3xh+dqcyUVaZKFMkyySeFpm/vZroVfg7SycqZfEyebxMFisTWBpl7rbyqWpFvFweL1Mky+WpMkWqHE0V8kSZIlFemaxgaqQyV0tjckQdH1LH/zD0VCqV32Wu/LK8BfIWyFvgcwv8oRgKlBN882IeThMSdHEIk0HBY7qQgHAnJ4Cg01NU4S0q9wCA8vxFXF8h119U4aHU9gLKnS+1F5TY7rKsv2FZfv03hp/9te5v7sgTFEqWMjQiWbQEMktjqPhdrEQGVewhNwpKMcfKZPFSRaJcgeBSkUQzScBNvrmhhuhrTI3cS482pUaU4X6hBRrC/MjX57bJf85bIG+BvAV+0AK3XQZ+DMiAsB6gs/1FbH8x2w8t2qFcPMkQQrt2GgzK9BdX+IrLPYXl3iK2u4DvLeB7C4W+Io6roNRewPYUcrwF5c6CEhugZ5m9oMT6m78xIvRUxAEfFQnglfLYzYwiXo7gskxGVbGPlcpjN/PUmlWpCmqqIfvUiZEaorspBaxT7mlXzvNq5zg/5qpYLNYPmij/Zd4CeQvkLfDdFmhoaPgxIINhGB9ncIM0tp/GDdB4AfDWeSTIRFwYjlnMcxdyPYXAQL1IancVljkKyl0oP8lZWGq/W+q8W+q6CzO2ghLH3RLnb0odvy6z/fp/T//1HQXingCdn0w3YArAWiqnADRaKosCzlYmy6tSkJ9UnS6vxnsbU2MNyaG2BW1jcljqaqmd49TMctqzUz/mwr7bKvmleQvkLZC3wI+wgFL5ezqfUyhEpShBHRCcLiaKRQSNR9C4wDppbJSiBBVAgkX8QHGFD5z3Mifo7OVuqK5U7gQwLXUCCS2zF7Bsv2HZfs2y/brM+Zv/PfXXd8Arj5bKY+CVA8FErroiVorGM5UqgJDCChDcTJRXJcqqU+U16fK6eHd9qrd1eWxw09S3buhe0bUvTjXPjrdnp/8/9r60rY0rW5f/c5/7+XQSG41b8zxL4ClOlMRJPI9xbGwHDGbUWCrNI2KyMWYGS4CMEAKBBAIn/eH8mHvW3riuhJ1q2+1On05Kjx7YNddeJb1a47t+mPjl4lPg0GV/vYdwuF04CXAS4CTAJgF2kCFbjbgDuz4E3dttEbE1LDKHhXpaANDpA8TUUUIjJdRTAl3gKN8TEuNJoRFUGfEUQxBtl/eflPWflPR9IR04KRs6+X8e/t8We1yBtUuZDRp1ykDZBADFf0HflNliMjvAq8yRkDsS8rPxy9cXuu6u9N1/NdixPvTzWv+dl3035nquTfdcfv74x6edP078culZF/us9Ho9m0i4bZwEOAlwEng/CbBDDUJv2OeCYkMY6OLNgJ6ggWp8ECMCZygQggh1fqHOz9NBtTsmRfbyFS6eDBDzhGzwBPztg7/SgRNgyw+dVAycaIHEemLku47YRIBO2SOAHNFBnnII4k04ZRQS7tWY6u764sNfSq6usqdzw9OxNvTzy6Fb831XX/Rcft7149NHV190/zjxgH1K7ycWbi9OApwEOAn8Awn8wxC8joZidi0lAjbPAPg9gQXZy9e5eTovpgXxQHWmxgPRdo2XB7zIHp7G3aoYOCHt/Vza+4Wk9wv4++RzSe8XqPdzSd8J9AQGLSo3kC9pfdBpU+vlqz08lRs8popBXCrv4uFQFE/p46kpyIS6OH33YXGwZ8vXVfI+LHjuvhy8Odd39UW3YpBHXAOyflBxOfT8B8+c28xJgJPAp5DA+fPn2dGGNC8y0EhHiQmFEhjsUJEJ6qDag9njgcSTr6MERkpg9PGNfp7Rz1N7WqV9J+T9JxWgeH4h6zsJ6NnzOer5DPV8Ju7+rEXj5WtAWW0gs4NWHlCxpHHxNR6+ysf/Kn3r5lLPreWejvXB7i1/T9nfXaI6Vt13FvtvzPZefPrLmdAV0E8HW8HDiiP6LPNRq9WfQmjcOTgJcBLgJAASYEEbsNyBDQRBlVFAZKBFQOIZEGggCg+JStAp0weZTGqMngZKqPfx9V6egSKJSlC1qRw4AQDae0Ly5HNxz2eSns+k3X9DXf/VYvALdJRADS4AgGH8hqQntZunGeJ9Fb9xZarr+szju7m+h0V3T9nftxXs2Qw8XPPcXSZaJxjs56LXlJ5WtQt8AdL+EzJW3fPs2bPsz9zlcmWz2fHx8VQq1dPTw77zR29NJBKvXr366MPfeeDDhw8TicT4+Pjo6Kjf7//mm2/IbmtraxMTE+885O2VCwsLc3NzTqdzYWFhfn7+7R3+HGvS6XShUPjQubx69SoYDP7eUaFQ6JM/09+7Frf+f48E2NETV2eK9UGxISg2Qmd2AaQrBQQaP1/l45HAkSYgBK4QHxCFQBcjTLCk9rRqPK2qoZPy/pPyvhOK3i/kvRBwl/V9ruz/XN7zeYuVFtmCYj0lUPp4SuwDVQy1KoZasTkvsHu/vzDy843Znru5/l9eebo3QOt8VPD8tNR3Y/bJlanH5+M32rNKx7DcnpKbY1Kl+6TKc1I51MoyHxahX79+fX5+fm9vL5/Pz8/Pv3r1am9vb2RkhOWQj96USCS2trZYDg8GgwTFWPZp3BSLxXZ3d9fX1+fn51++fLm3t/fy5ct79+45nc7/XPSkKGphYaFxmp9qnE6nNzc3P/RstVqNBT19Pt/w8DA5Zz6f7+3t/dDzc/v/J0qABW0QQqawhHQu0oH3E0jjVW6+xs3TuU9o3CeVrpNKV6vSy8N6qFADbeDAmYlpPSE9HkLtfVCgCbpnz+foyeeo+3Px47+JO/+rxQSher4mIFD5+WofT0OCSC6+2gOXsbi+/Wb4p6vTXTcXAEDv5Qevz3Z9m73zVerG2cjltrSyLaNyZBS2lOLq9P1HhcH7+Sd3lx93FodY5sPyeJ4/f767u+tyuZh90ul0vV53u93Mmk81YEfPR48ePX36dH5+/j2/gS6Xa39/f3x8/OLFi+QO+/v7K5XK9PQ0g56PHj2iabpxdu+cy/8e3fPhw4djY2OLi4vvKYR3Tuf3Vv7z6NnV1XXsxm7fvk3W9PX17e3tDQwMPHr06PdugFv/p5EAC9ogBF2IzRGJCXiVxAbo3g7hIx3gHk/n5wGnJyXQBnDFEe4/rMTxcxI2l/eD6xOHjL6Q9HyBugl0fiZ8/F+ix//VQg5WBwS6gFCPaejVHlA5TwevnI5c/Sb784/PHl6cfHR5qvPKi86Lkw+/St86Fb7kyKjtaZUjo7Gn1Y6M+s5Sl6sa8dcT/oOjN8t8WJ7Z7u7u6Oho4w7ffPNNf38/WTM1NbW7u7u8vFwoFIrF4sDAgNPpnJ6enp+f39jYyOfze3t7MzMzuVwun89vbm4Wi8Xbt287nc5KpZJKpYrFYj6fr9fr5BIMel64cGFubm57e3t5eXlzczOXy92+fXt8fHwTv9bX151OZywW29nZyefzKysrW1tbNE033iS5jY2NjcuXLzeu9/l85AbW1tbICXO53N7eHlFpv/322/n5+a2trVwuVyqVCoUCUVTfRs/u7m4y5ZcvX+7u7j579oxc5eDgYHR0dH19fW1trV6vp1Ipp9PZ09NTKpXW19eJHLa3txOJhNPpDAaDlUoln8/ncrlKpRKJRJxO58DAwPb2dqFQyOVyu7u7k5OTjfefzWY3NzfL5TIRQjQarVQq5LQ7OzuxWKxxZ6fTOTMzs7y8TFY+ePCgVqtRFOV0Ond2dlKp1Pr6eqP8GfS8cePGy5cvy+Xy0tLS5ubm6uoqkQNFUZVKZW1tbX19fWNjgzxuRvd0uVzb29uMpkkuGgqFdnd3nU7n+vr6f//3f6+vr5PO7LlcbnNzc3l5eWtra35+/vvvv/8fZ9nGxkYymSwWi0R6sVisVCrl8/nd3V3ygLq7u8lzIRKbnZ0lV6nX6yz67zGZcIt/gARY0AZ0zyhWPzHHEnaAijFhnQhAkxLoA0Jov+EXqPyETB4S5hlKeagv6oNcJemTz6V9JyRY/RR1fybGgaMWSHeCYDpf5xfofQJn+vYPEw++H+/4buz+hYmOC+Md3088+OHZw++fPvj+6QPn8N2z0eunwpfahjWOYXXbsNoxrH684fbtx/0HCfp1KvA6Rb9O+Q8SLPNhkeZvv/02ODj4zh18Pt/BwYHH43E6nRcuXHj58uXi4qLT6Xzx4kWlUnny5InT6Uwmk69fvybf6sePH9frdfLtJd/5K1euOJ3O4eFh8gVj0DMej+/s7BAH688//7yxsTE2NuZ0Oufxy+l03rlzp1KppNNpcmMTExMETRrvc21tbWZmpnFN45hAwM8//0yAuFqtOp1Ot9v96tUrMt979+5VKpVkMkncncf8nvPz88vLy+T+PR5PvV4nCuze3t709PR3331HkGt1ddXpdE5NTa2vr1+/ft3pdKbT6b///e8EPUulEpkXEUK5XL5y5crU1BSDdx6P521PxczMDJHzrVu3tre3s9ksmdfo6Oj29nbjHFnQs1KpLC4uXrp0yel0Pnv2rFgsknsjlns2m61UKr/88ovT6bx79+7m5ub4+LjT6Xz16tXTp0+dTucPP/zw8uVL4gIm6Dk4OFgul5mbYW6DQc+BgYHXr18TPXR8fLxYLBJEfvz48e7uLvmEkF/Tq1evEpnv7OyQT1EikSCfkNHR0UKh8O233zqdzt7eXsYH7fP5Hjx4wFyUG/zbJcCCNsRyN4LxDoon+ECBcglpgZIO4kUkagTWOrboVV6BwgPEdDhrkyfvb5X3faHo/Vze9zkuNDohffKFpOdzcdffRF1/a4GoOj5M6eZ/m/nJmb59NnL169RtQE8MnYChEw/ORq+3DSvtWXXbqKZ9XNs2orky1XF15n7HWt/QbpA6TAJ0HiYDr5PUYTJwmGSZD4usf/31V0bTPLbb+Pj4xsYGQQrm+0/QM5fLkZ1pmq7X6/fv33c6nbdu3drZ2QmHw0T3ZJSU3t7ew8NDp9PJoOfc3Nzy8nLwzWtqaoqckEFPAlg0TZNdyFWO3d76+vrz58+PrWQW19bWGIXR5/Pt7++TTZcvXx4YGKAoiqbpYrFIlOK3dc9yuZxOp9/cYHBjY4MAx97eXiAQIKcaHx8nAZNCoTA1NUVW3r9/f29vj6An0ZiYk9Tr9aGhoUwmU6vVRkdHXS7XtWvXmBtmBgx6er3eg4MDgi9Op7O/v//g4IDZjQx+T/esVCrxeJzsw6iczGARv5hTzc3NEfk3emxu3LhBfg8Iem5ubh6zUcjh70TP1dXVqakpZuLLy8vkd44RuNPpnJycZEJYfr9/b2/P6XRGIpF6vT4xMeHxeG7evMncITf43yYBFrRBCGg9zWFkjYitUWSOSAmGggMUl2lCKw4vDxKY3JAer3CDD1Tp5uFIEbg75X0nFZhaSfIEnJ6Sns8lT75ATz4TP/msRYljRMBeByzKPIf/wlepWz88e/Djs4c/PH3w/cSD70bvnYtd+2pce2ZM0z6mbhvT3Fl60rnu6S75Biq0v544gs4j9Ez59qNDuzTLfFhEf3h4yMDBsd2mpqbW1taYlclkcmdnh6Anoz3RNF2tVomWcfPmzUb0ZMzM7u5u8rVn0HNpaWltbS3X8Hr58mWj7hmJRA4PDxu2w5C5EzLI5XIs0ZXGqBGDnl1dXWtra5ubm0tLSwsLCwwivI2eu7u7x65OIvh7e3t+v5/cAIOe6+vrTHz/ypUrW1tbBD1//fXXYychinkqlVpdXd3b2yuXy8T2b5wag57BYLBerzNuREaMx3ZmnkWj5V6pVKLRKNmTAU1mkM/nG9V25kH/+uuvb/uIa7VasVis1WqZTKbx0mT8TvQkHoPGuRMtslgsMr+pk5OT+XyenIRBT6fTGY1GiUdoe3v7XxS9fHsW3JoPlQAL2gB6BsHpaQ5LTWFkjiJjGCx3TUAEhUIensrHV/twNw7gB4EKd0JVh2lBoDSTAKi07yTq+QKS5Ls/lzz5XNr7GQL0HDypdkNxkcVz3jl848r0o2szXVemOy9NPbr0HN7XZrsuP39wfkJ7Zkx9alTVXfIN7obde1FfPeGuRdx7Ye9+jBjs1EGiZ9MDafOsGUssotnY2GDsI7LbzZs3V1ZWaJoeGxvb3NwkHiun0zk6OkrsvhcvXjDfWBb0ZOxuRmli0HNmZob55jidTuYSjO7pdrsPDw+7u7tZ7nxsbKxarT5+/Lhxn9HRUWKEvhM9nz59ynhmf/jhh1Kp9Hu65+bmZqOVyijg70TP39M9Dw4O3gYj5m47OjqGh4cZpZhZz6Dn4ODg4eEhYxmQRWY3MmjUPe/fv9/oOWFBz2O6J3FTOJ3Oer3O/JT29vYSF0etVkskErFYbG9vz+fzHbuBd6LnMXT+4YcfyFHvg55kz9u3bycSibd17WNX5xb/XRL4h+hpoMXwhlJ3kRl6akIPd2BBxmWaatxzGAfZeWoImMNb6eIphlrlgyflg5jTE5dpgu755Avpk89lT/4me/JZi2qo9fKLB1dePLgx33Vn+clPL3t/etkL3B9zXVenO28tPLm/MvR4w9+z6RvaBaD01ePUYZI6SAzu0l0bg30Vn6sW9h/EA69Trr3wneVHclxOzzIfFhEnEolff/11fHz87t27ly9f7unpWVxc3NzcfPTokdvtZr6NN27cyOfzxIv/nuiZy+WI35B42Rotd/JVHBoaIvZ+LpcjNjiDnjdv3tze3macholEohFtyXQePHiwsbGxtrY2MDBw5cqVO3fukGwB4sp8J3oSa5F8mVOpVKVS+T30nJmZWVtb++mnn4gDrlgsErXxnej54sWLV69e3bhxg/g3Dg8Pie65sbExNTVFkDcUCq2srNy7dy+fzzMq1dDQUL1eP/Z0ZmZmlpaWnE7ntWvXyuUy+TFwOp0TExOlUunYzs+ePVtfX2f8y3//+98ZvzMLepK5kx+nX375hfGuElfy999/f+3atVwu1+j3dDqdz58/L5VKxFvK3EYjev766699fX3ffffd6Ojo1tZWV1eX0+l88ODB+vo60Vv/IXouLi5OTk4Sv+fjx4+Zn5ZgMHjsZ5K5AW7wb5EAC9oQhjpgR6YEelpgjojNJIhEA3Odxo+J6TxHnYfVQ606Fw+SmXx8nY+nhWxQvtLHk7uAFkTubpW7IAQv6f1C3P2ZuPtvLV+lrl+f7bw6/eD78dsXJ+/eW+m7vzZwN9/308u+uy/7H6y5ezb9Azsh737MX0/46oCe4N88TLpqwf5daqBKDdaC7r3wwA6ldhMSZmCxZ5kPu3yTyWS5XCaG5P7+fj6fZ/SdiYmJ3d1dEk9fXV0l3wcW9KxUKozfk8TcV1dX6/U60UMZ3ZOY/7u7u6urq+VyeXV1lXwnx8bG6vU6CRBFIpHt7e1Xr14VCoVGO7RxLv39/blcrl6vl8vlnZ2dcrlMoJPJWCI7+3w+4lZzuVyVSqVQKKyvr8/Ozs7PzxeLxWfPnr1tuf/yyy8rKyvk3iqVyosXL8ip3omefX19W1tbpVJpbW2NxPQJelIURfIQ1tbWdnZ2yMpgMLi9vU1wv1KpvO26zWaz9XqdeFSDweDW1tYafm1ubr6deEBmVCqVisXizMwMozw2Sowx2JnB999/Pz8/T/IBtre3mfiSz+crl8ulUmlzc/PVq1ckBLS7u0vi3deuXcvn84zZQQTCoOetW7fK5fLGxsb09PSNGzcWFxcrlcrq6ur29vbS0tKtW7ecTicLepKwntfr3dzcJJLc3t5mQmr7+/tczL3xk/9vH7OgDUJIF8RN20PIGEKmsMgUEulpEQkf6YMiPRB98jUBIY6cY9D08jXQi5ingtZGPPlQqwxYPlsVrlbF0EnV4AllP4TgxY//1mIIiiwRZI9L2hLSn5a7Hm96H5e8j9bdj9Y9XRu+J+XA0G4Y9M2DhK8e9+5HPXsR/0HctRfq3/XrKL7ez+tY67mz/EDrbtVAaT0Ud+r8Apb5/PGyrlQqsVisq6vL5/MRzP3j7+EPu+LVq1cfP37s9Xr7+/tv3Lixs7PDfdX/MOFzF/q3SIAFbcDvSQmNtMiA0dMcFhuDYn1ApKfFEHwPiY0hoQHoPqEACViX3K0aLw8XW7ZCFj3OpVcMktZGUE6pGTqpHjwp7/1C0v15i5ESWIKiKy9+6qv4h0CdDPZWAo/LvifbVP9OcKga9tZjrmqwZ9PzcLW3Z9PdXXZ3lQb1Pj6hJ8GUIgDJUJ7k5ul9fFNAYKT5LPP54+VL0POPv+6/5YqpVGp3d5eiqPv374+OjlarVS695t/yILiL/mESYEEbsNz9Anhj16cxKDLQQh0tgi7EkDYvNIZEhpBIHxRpaCEwIgHFx0kglnOD31MF9jSAm3KwVTt0Qu86qRk4oRw4Ice5ny16H69/1+/eD3vqUU89+qg4cPvlL/fWevp2KO9BbKgWfFDo1Xh4ajfvbq7z4Xrfpee3tT6BnuKTN26cRMhBTpLiUI2Lpxpk41j6w2TKXGhzc5OJuTMr/6yDCxcuTExMFIvFcrlMAm5/1ply8+IkQCTAjp46P7DHaf1CDSXSBkTQkIOCthyrmg/4AAAgAElEQVRH+Z5+IZQeAQOTSOsHqjmND3jqlEB4dBK30gSbHcAUeDxOqvEbiD77vmgZqgW9B1H/63hH4Ynaw9dTwtu5RwPVgLce6dl2/zh9C2cywfHX5+6Bpulp1fmgvMlA8Q0UUDFDkhTuFq8YAlI75cBJ1eBH1rlznwZOApwEOAl8qATY0ZNwehJyTx2NbXZaDIgJoIldojSY85h+SaTxCSEFHqdvAqU8uDt5clcrBI4GT8gHTygHQfdUAl/yFy3eg2jHWg8hSIbUJ0rw8FWfux7x1CPYKscJUB6+Akg/wbOp9fB0XrDQDX4BNO3EnUDw4cDPpPHw1ZjdjmU+Hyoabn9OApwEOAmwSIAFbRBCWkqopcVgrYcAK/VvoFOLAfTNInAsaf3AKk9atyvdfOhu5OIpXK3yoZMy10np4AloCTfwhWLgC+UANIZrgTx7N+4h54HAExR74nQnrZev9wl0fqHGK1R5BEcwPNgKCiaQz/OUOJavAIWWpxzia4Z4WhcPGJu9EO9nmQ+LFLhNnAQ4CXAS+FAJsKANxNyxl1MfFutxmicAaBAYP4n6qYE6dbDilQBr8MYVR0daowrzKBPzGoLvrpMkgoSJl3BnDpUHIvQq6M9BeJngeKxO4racbqhhwvY7/AXb3MNXAaMdX+FuVbkhfKTz8DUu+GvAaqmWQ88Pff7c/pwEOAl8rATY0RPo6UKQHq8Pio1RiSGCq92hTbEIoJMWamihGnckhq7ublx1CaAHY8BTL2717uHJh0D9lA+2yvpOSp+ckPZ80aLxCwwBAY6hC6DoCBRJwF3iKCWMn6SIEyffwybgZPZDPZPCxdNgZRMMdg9f68Yt5D3QzINlPh8rIu44TgKcBDgJvEMCLGgD3PKYXckYlBhCCFPVSSBPnsLhI79AA600hXpaCOH4gFjrF6k8QAAKfTu8gHL4LSDqp2wAajflgJ5fSHs+bzEGheYQdJgzBITQT84LAAodjd1QAar08OSDEGmSY5tdPgixJzUlUAcEqjftj9/UyEPGEqlwUrk4y/0dz5hbxUmAk8C/QgLs6Gkh/J5A8YlMQWTENruWglA7RN4hfiOEXptBkSkERfFaH1Abq73Q6Qgw0AdgiKs2W3Go/YS074TsyecyQE9KaKJFJlpipJGJFppogQ5z06s92N2JTXjlEO6v6eKBJxV3OtICox1fA13kcE8lN7TxBFpmuAy8WebzrxAfd05OApwE/rISYEEbhJA5IrbHpNYIskYAOvUBsT4gNtBIg1OXoKsb9nvqKKEBAFCkxbEfUDl9fBW2s5VeUvbOI33bSKs4ef/JFr1fhBsZi/SUSE9Btj2Y+pg3BP7ijpugypLw0xDEiMBIB4MdB9l9cG3IpcKLwPKEY/ws8/nLPmNu4pwEOAn8KyTAgjbA75mQwjsmMcWk+qBYF4DuxIBaOOtTQ5TQACTMm0Iic1BoogFGdbiHh4YSAYB6+GCOEwzEeaDAHjJwskXrF5D0UY0PdlIREISMJyBegtbGXuAQBR/qIECvYrBV5eJrvULQOt18jN9wBmgn54I1UA3q5vI9/xUfEu6cnAQ4CbxDAuzoaUxIzUmZLSmzJKSGoEQbEBmDYlMI6WkRcH3iELyGFqr8fH1AAG3jAgIbaKnYmUm9SWPCbkk11izBjekG6pAWyNmk+OqAEBjmfUIcXscZT6BjQiAf0ph8AsDNfhyIP+qAzNd4wTsAjPR+TOg01KoaalX2n4S+xC7Ocn/HM+ZWcRLgJPCvkAA7ehpiSB8RO+JSKHKPSLUBIVT6+HmWsMiO+ZKNIYmeEql9Atz5XawNCnVhsSkstIQEUALvF6q9fK2XB22Kfa1aDw7KDwEZKMTcCT6CkY4bu0MK5xBEh1TgEYC+H2ovXznIU0MIHxydBDdVmJlZ54MMebDxoUCzVTFwEvyeHHr+Kz4j3Dk5CXASeJcE2NHzdEpuCkO6kp4WW0NI7xUYgsgUBpJ5KNnEjCG6sFgTFGpDIg0tIH8NsD8Y+BqfQEeJdJRI7xeYAwITJVK6+PKBkwoXr+WoKzz08eCDhY79o0dISkGrdz0ux1S5wfWJTfuj3QA94Q3p9EcNPKEeCRL0Ve5PybGk1+vZpcNt5STASeDPJIHTp0+/CyR/dx373C1RqSUi1WAXpYEWmcMS3OYIbHYdpHwKjSGJCTjnRdAtLiyG9M+AAEJG0K4DEuFxbBx8klofKKGQ9o5VxhYom/cLNND3nZQlgXMT8ue9YLbjtCSc/QThINz0ww9VRuDl9AqgqJ70RMKBeJIYBQmhnk+DnuxC4bZyEuAk8CeWgN1u/128bN7ALgSgUwoItQEgB4FidL/QCAAq1dIiiCD5IHXJHIKQEe5XLMRReIjlQHDJw9d5W7U+yGrCfZAEpAuc2s3XDLa2aLBJr/XwNUOtqgFMzeRqhUxRz1G3OahhcvMhZu8FzZQ0/YDgkk8Ad4N1VUjQJ43g3XwljtSzzKd54u9eamtrYzkDt4mTACeBv4gE3g0QzWvZRWGJyaGZe0BsDEu0fqExKLFGkT0msUTF1hg0K9bRGCU9PEtQaIsgPSUwh0RmWmj0CSAliRZDu00v3xgQWmmBkYJaeIWLJxs42aL2QFm62sVTDgJ0Am7iHFGw9nEeEljiOO0euJuAyB4SlY4aeEJbpaOyTuUQ76hUCVdzssyneeLvWOJMdRbpcZs4CfzVJPAOjGhexS4QbQCUTVMYOeIyU0QK4wiyRCSWmNQWl9miUl1AoA9AyaUhICTcyaYgMgXFBuCsEwANKAVhenNQZAuLjJhMhGQoge4J9UVg3kNHY0h6p4SaAPZ4QjAdjHyNG6owIRWU1BcB7wgOPBEep8GTqoGTwNo0cAJ8BDiyxDKf5okfXzp16hTLsdwmTgKcBP6CEjgOE83L7AIxhJEhLHHEpfaE1ByVGcMSc0xmicoNIeAKgTbFYZE1LLaEoWOHGseIADGD8FZTQKWshyJOoZ4SGGmhGajpQRvV+IQthM9OjSFS7QarHvOD4kIlv0Dt42v9wOMJVJ5+4K/D/eMhsQkCRIOtqoFWiLZDdXyrAqMn+AV8H+/3ZBcEt5WTACeBv6AE1Gp1M2A2LbELBOrccaTIHJMbQkJrFJkiUgMNK7UBkSUktAYFJmjRISHpn+AhpQWEhwli7n4hBNxpKFIi9Mlav0gfQBpK1IIJliDrSIMriDRegcYvwmWeGCgDQgi7+wVaHGEHqMVBdhXUaPJVQ61qF86rBwBtVQ6dBFT1AsiyzKdp3s0Lcrmc5UBuEycBTgJ/WQk0Q0XTErtMtAGhPoT0MWRNKWxxhSki1dFCbUCAB9CowxwWGTH1pw7qjgTagEBNCSHDKYB0fqiF1wWEhoDIQIuBf/6Imh6s8xaliwcRJZ8AGOMh+A7pnBBJBxUSMkAx7R0UHRHoBKenT6D08SCCRJyebsy05ONhkhGIIyk8H1lrxC4FbisnAU4Cf1kJsKif7DIxRsBgNydkxpgEyjHDyBQWmiIiUwQZIxILqKJiLWRnivW0UE2QzcsH9k9KBGDog/i7MQit5UAJDSJdSKSm+EZa0IJ7b0IfDzLQ+kUQwn+jfkKMCIeJjlKUfJB5rwN/aCvmXuYpXa1qSG8C/IVkKJ9A5eOpqI/hWOI8nuwfAm4rJ4G/uASaFM6GBXaxmCJSfQgRj6ctLrHGkJEGLiVHUmqJAXeyMSzRBUCv1IehKskQFhmCAn2AD8Wafr7G1aoe4kFdJXTyEOkoIa6FB0htMfmB3BNacRKU9ILuqYXmHoQEBEx1qHYHnRS7RGEHnsoDifGEVhnY6SH0BOshyuT9SH5PmUzGLgVuKycBTgJ/ZQk0AGbTkF0mhiAyhiSWmNwaV1jjCiBLhrC71BKVgSuTxIVoSJ43QyxebAoJ7RGRJSyGYBEt0hMl1CeA8FEIM9VTYJ1r/cIWMyXQYU5PYFGCDpx8gptgqmPFE/8VQnYoWPSAqpg9hK/2Qt92LdjvPJUH54QCDQlp4PkxPTVZREBRVEdHR+MOFH41rvmE4zt37lAU9eOPP759TnLdt/++vef/wjXHbru/v//06dPkPhOJRD6fP3bPRqNxdXU1GAweW//+i3NzcxMTE++//79oz8aJe73e69evf9CFCoXCsY/fBx3O7fypJNAEmQ0L7OfHcIn0IWSJyc1RmSUmN4Ql+iAyhiF2hHu7A7OnIYRMEWSLIntUbAsLTSGIueMEe9zNGDfzgIIlP8TMobEHJWpR49C5sh9avKsg5RN0VOLi1B616ASg1XjBnNd6BRoXTwe4C+h5VGiE+euhFbKXp/bzVX6+0vsxLCEsIqjVai6Xq3GHpaWlycnJxjWfakxR1NbW1sHBwe3bt98+5/KbV7FYzOVyZGl+fv7tPf+Na3w+3zsxq1arLb55LS0tbW1tFQqFn3/+GSHk8Xhomj52z0ajsVgs/jPoSdM0RVHHTvvHLx4eHr6Z9+La2lqtVotEIu9/GwcHBxx6vr+4/nV7NgBm05D9iqao1BSBtzkq0wfFkDwflZGxNiA0BYVGChRBPRS/g+5piSBTREZC8EAgAmopvHWBo2Ik0CwpiMW3QPW6i6cCtRGnu3uOTHhCT4eDSGCwQ0NkzOkJVUle6P4GlZ44W56kKKl8fOx5BaZ71Uf1NWIRwR+GnkNDQ/l8vrOz8/fQk7nJ5eXldyIUs8O/a3Dr1q3x8fGJiYm3v/DHxHjhwoVCofDs2TOE0MWLF5n9L1y4MDQ0NDAw8OWXX/6T6NnR0XHz5s1/lyiY6x4cHPT09DCLiURid3eXWfyHg0b07MCvf3gIt8O/QgJNkNmwwH4tjJ4Al8aI1BiRWmJyPaiZgKf6ILgyoesRLdQHoTmHPiiGPNAQOuq4GURav0BPQxDJEAbrHtMZ8wxBMNlbgP4DIyb5ixOSBITGDoAVWO1wp0woj+eTrdBCDvs9gXKJsH9i6DRSfCMF1PQ6SsQyn4ZZNw1ZDjn2tUcIMbrnpUuXVvFrZmamVCrNzMwghIaHh9fW1tRqNTnn8PDwysoKQigSiWxvb8/MzCwtLZVKpe7u7mMXffjw4blz5x4+fPgR6Fmv18fHxzc3N8Ph8J07dwqFQj6fn5mZ2draIgiFECqVSjRNr6yszM3N1Wq14eFhhFB3d/f29vby8vLs7Oz29nY2m0UITUxMzMzMFAqFubk5oud+9dVXCKFQKFSpVGZnZ+fm5iqVis/nQwgFg8G1tbXV1dX19fWRkZFisbi2tpbL5Y7N7m0xTk9PE8U5kUisrq4ihK5fv14sFsmdr6ysMOg5ODhYLpfn5+dnZ2crlQpRVB88eFAul5eXl2dmZjY3N5lpMtedn58nvzEzMzOjo6PFYnFubq5UKi0vLzP7kEG5XGaU356enlqthhByuVzb29sLCwszMzM7OzuxWAwhNDQ0tLOz880335ADl5aWRkdHEUIzMzNjY2NbW1tra2vHTn4MPbu6un777TeEkN1uX1hYWF9fJ6LO5/NffvklQmhubm54eHh7e5t4Mxj0HBoaqlQqbrf72Pm5xT9GAk140bDAfnVDRGqKycxRiSUmsSYVhgjShYCqzhSRmKPQ7AhXIoltUWSJ4pTPAFDF4yR5MXQ9ogSmkEA5xNPRIpUPYFRP8ZSDrRpXawuuZxdqgWFepKfEOr9Q68MtNxoqMmEfTAvyBluPijWh4sjNU3h4oH56Ia+eBP51/k+PntHmF4Oe0Wg0l8uRD/2DBw8ODg5+/vnnjo6Oer3+yy+/QE8og2F9fT0Wi127dq1Wqw0NDRFZj4+Pv/0dJps+Dj339/cnJiYMBoNOp8tkMrlczmAwIIR6e3vr9frVq1cJes7MzJD1qVSqWCwihJ49e/bixQty6Z6eHgI3ExMT1Wr13r17BNF2d3dpmr5w4cLOzg5jCyeTyVKphBCiaXp3d9ftdisUCvLlf6deTNDzDH6dO3euu7u7Uqkkk0mEEIOeIyMjhUKB8Az09vb+/e9/J5Z7oVBIpVLkJimKKpfLZ86cyWazCwsLZGVHR8fbF21Ez2KxeOnSJYTQ48ePDw4OyFHM34mJicXFRbI4Pj4+NzeHEFpfX89kMmSlz+erVqtXrlz5PfR88eJFLpe7deuWVqtlTksGx9AzEokQ3XNgYIAcghC6dOnS7u7u4OAgQmh2dnZ5efn69es6nQ4hRNCzv79/Z2fH4/EcOzm3+IdJoAEwm4bsNwDFRVGZLSaxx6WmqEQbBMYQfRDZcczdGIEIEq7dFEHZe0RkpAUGPyQkaTF9sikiI+wh4CoNScCHiRvBQ63RmxZI4OskDTbATsdd4aE2HkfbjwLuR12PSZtiKNYEJlBwd0LzOKWHp8KF8OAe9X169FxofhWLRcbv+e2333Z3dw8ODno8nlqt9uTJE4RQLpcjSlx3dzf51v0PuGxvb3vevHp7e3/PfPto9GxUZr/77ruenp6hoSGPx3N4eEjsYqJ7kodNURTBvlgstrOzk06nu7q62tvbydaJiYlG5TGXy42Pjw8MDOzt7V2+fJnsQ34tCHpub2+fO3eOrP+9WE2tViu/eW1tbe3s7ExMTNhstkb0XFpaevr0KTmPyWQql8sEPff3999IDv7v7+8/fvyYoqhqtZrJZHp6eohqTA5k/jai59TUFFl/586dw8NDZh8y6OrqqtVqN27csFgsxWLR6/US2Hr06BHZ4eLFi3t7e4ODgyzoOTs7e+y0ZPHw8HDqzWthYWF/f5+osQih9vb2zs5O8uEplUpksrOzs9PT08ypDg4O+vr6yIeHWckN/ngJNEFmwwL7nbTF0Omk1JqAgLsxIoHCzQiQ1JlwBMkcRfYkskTAKrcnZPYkVMFDmB6zhxiDIswnguxRZA2JzBGZxi8whSCmZKBRC24DjyNFRzmbkKKEa42ALQk6aEK+KLhIIXPeC4ipdPMVbshSUhMWO9x6k9RuaoAyGTCXZT4Ns24ashzytsnJ6J79/f3lcjmXy01NTU1OTu7v7xP0jEQihUJBrVZPTEyQL1UoFNrZ2Zlpfr3zoh+Nnp2dneSEHo+HGONTU1PPnj1rRE9Gc2TQEyFEUdTi4uLOzg7zBZ6YmGDUOoTQ4uLi5OSk1+utVqvfffcducq9e/dev35N0HNjY4Pg4D/UPX/Gr+fPn+dyOeYQRvfM5XJjY2Pk/I1Ro9evXzdLbmZgYICEm+bn5yuVytbWFgNJjFQb0ZP5tXsneiqVyrW1tVgs1tnZub297XQ6/6ef1+vXr+/fv0/O9u233+7u7nq9Xhb0ZACauQEyODg4SLx5RSIR5pz3798vFAorKysvXryYnJzc2tpi0LPRC3F4eFgqlarVKqd4HhPsH7zYhBcNC+y34UjKbXFZW0rhSEDA3RpXQPAd4u9SIAqBlVIrMM9DzB2zLomhlPMoiCS1xSTmiNgWFllDUPNuCkuBnCkKCNuCG3KKoAAeiJCFekqs8fKV7lbF0EnFELQwAvR8090IqJQpaOauhpCTSO8X6X0CvReqPEmkHkMqOFJZ5tMw66YhyyEs6LmwsPD8+XNy7PXr1xn0vHz5crVa7ezsLJfLxFHldrur1eqFCxdYLkQ2/fPomc/niTMOIdTR0fEP0ZNc99tvv41EItVqlfg9G3XPfD4/MjLS3d19cHBw48YNsn93d3e9Xv9Q9CTHXr16dWtri5jtx3RPBua+/vrrSqVCAKVerzdq1uQkzN/z58/7/X5yM8xKhND7oydCKB6P53K5kZERBrn29/eZaM/169fr9XpXV9cx9MzlckTUL168YEFP5jyNt0cUfKPRiBA6e/bs76HnwcFBf38/cZozsbXG83DjP0YCTXjRsMB+dWtCYY7J2pLyUymZNSE/YgmJya0xqTmKzFGw3K0xqTWGDCER5HtCpqfYEBRbI8gcFOlpMRDcBYHITh+CXFFrFDkSEktS1qKjhHq/wOgXGKAPB5RmqkGpBEZk6CEHjd2BTB48BUDfBGXvhHUZLH2fUOcV6LxQJo/VVVzfCUygfxx6MrHvM2fOTExMHBwcEN2ThBEymUypVCJVTBcvXqxUKqFQSCKRKJXKVCrFONoY6f/4449Xr1599OjRwcHBnTt3rl69+u233zJbGwfMdZmV+/v7jO5ZKBSIw87pdM7MzPz666+M5f627pnL5SKRiFKpRAj19PTs7e0R9KzVakRLunfv3v7+vsvl+vLLL8vlcjweRwgpFIrx8XESDfufeMsx3fPp06fkhMztIYSO/QgFg8FqtUouweieRGIk19Xv9x8eHhL0XFlZmZycNJvNJG6Tz+cvXbq0uLiYyWQ0Gg35kdjf32+83Iei59WrV6vV6vr6OvME8/n806dPiTM3Go2Wy+Xz58+TjAhy293d3VtbWx+Nns+ePVtcXNRoNEajMZlM7uzsvFP3ZKJGk5OTKysrRC8+NlNu8Q+QQANgNg3ZL30qLf9yWGmJyY0RCSTMYxPejEk/DQFQIfVBsTkuNyWkuhCwgUA5JcU3BgS2MGqLSUmiEiSNhsDviXsfCW0xZIpKWgx+gYkSmPzAokRgkeAgITmGFh1evjYAxfPmoNCMaZqgzRG230Hf9PIBQykREN55BZhEmaf6KJYQFhHs7u7+Xr6nx+OpVqskOhwOh1dWVhiVjSibjB2KEPJ6vZubm2tra8VicX19/W19ZGJiooJf1WqVDJhA8LHbexs9iapLdguFQtVqNZ/PF4tFn89XLBZJhKpUKr2Nni6Xq1QqFYvF1dVVRh+cmJiYn59fXV3N5XKVSmVmZoaA1NDQUKlUWllZKeBXV1cX0T1LpRJjhmcymVqtVigUjt3zMTEqlcqlpSVyYwx6Xr58eWVlZXt7e21tbX5+vlgshkIhhFBnZ2ehUGBuksziyZMnxWKR3E+5XB4ZGTl2xd/TPYl+fWxnEq5ZX1+3WCxkU1dXF5nm6upqqVQinwGLxbK4uFipVNbW1ki4nzxiFt2zWq2+/axJ/IrE6IvFYjabnZ2dLRQK8Xh8dnaW0X8RQtVqlfz4ffPNN+RX5O0759b8ARJogsyGBfZLWxJSRxqsdShyj0ghgSkqNYSRDuuVkJ8UluhCYn1EbInLrFGpISiCNw0eSz0FdZyGEFJ7BeYo0IMaQuL2pNwBZHfSFnNAaKEEFhqIlN7gJrhBofGGF/planACvD4gNAWERkpgooHnTg3KJl+PGx8bgwITDc3jtH4RoQ75OIY6dhH81bYSv6der+/o6CAJ7X8FCRBl9q8wU26OHyGBBsBsGrKfyhBD5pTMGEYaIFsChnlDGJljsqMIUhi4QgwhpA9JjCGxBeg+we9pisogwTOEjBhqtX6hOSLTB4WOuOR0WuVIKs0JWYvexzdRAj3kw/9/0nigsfOTTiACIB3xAYsSZMv7IClfjVPltX5CxSwy0kIjhlFoIY8pQT+535NdOn/KrceiRn/KOTZO6s6dO6FQaHt7+ypO7WrcxI05CRAJNEFmwwK7fCxpuTkp00fF1rTCFJca4hLcoxhgkRRumsJSoP8IglsTZy9JTFGxOYZIK2Ni2uu8fFNAiAuWpO1pjT2pNEakLZibDjsuSXISrn7HPHdCLQ0xIrWPp3RDg2ISgidtNTV+6NuBo0winR/Q0xzkm4CYBJiWlO5PXKnJLp0/5VZiuf8pp/bOSeVyudXVVZJu+c4duJWcBBoAs2nILhlrSqELiUxJmSUtt6YVlrTCmpI50nJbUmaJgwEOsaAQ0oexZxPYQ6Rns4pTGbk5ITPFjqo8jbRQ6xMYQxJzTG5PKO1xcKQCtzzh+AB+EOhlJNKDwS7QUgKln6+i8NsHYXTSshhi9CGxLojb1EEhPHgHcI49bjuHTX6V9xNnLLFLh9vKSYCTwF9BAk2Q2bDAPncb6IkSU1JK0NOaUdgS0tNp+bmMsg0DKCmEBzs9CAzz1rjCkZTZ46QDEqCnMQzV7lpKqKfB8DdHxI64xJ6UQUdi6MAJpevg68QWOiaj82MWZKgjwvXsWPcEAPVD/F2N0z+ZAD1JacIIe1T3yTKfhlk3DVkO4TZxEuAkwEmgCS8aFtglY4wAuaclDo5OUuduzyhtw0prWmlJKGxJpTWuMIeREXrDiawJhS2haEvJcN2R1BBC7RmpPSGyxGQGIAmV45i72BwGyrsWSEWioJ8csIz4hdBDDmfLA4G8h6dwtZIiIshhwl0zMcsn7qwJWfE4t8kDPTyO3piUXuv/xBlL7NLhtnIS4CTwV5BAA2A2DdnnbgxLbEmlKSwFDTQmNcWk1qTcDpY7ZC9ZYjJrQmaDbHmxHjOGGCPIFkNtSYiwQypoVGSLARG9AbI+EbwDoKIaw5IWrV+o9/NNAYE5wDcHcM68/42dTh0RMWn9IgOFQ0OUwAiF8Ee4iROjRJjIDux3QkQPpUofxS3PLgJuKycBTgJ/cQk0QWbDArtYrDGFJSoniUpAeByTmOMSewLaEZuiUmtc5kjK7UlC/SlzJCBtHt5xiTkCDTiNAQFWS4HazhyVG3EnTmMIcuxbgIPOA6EePZDMCzABHR931sTVmRTw0WsBRvk6P1+Hw+4aH5RsknJ4CBxBrhLpgwRoq6YEGlrIMp+GWTcNWQ7hNnES4CTASaAJLxoW2CVjTSqw5S63JhVGSPaEek2csSQ1x2T2uKw9gewxiQGMcaktLjVFIK4DOIujSYYwMkWlljByxGRmnC5qjEmNcYkpitFTjXtsqH0CTEnH1/qF4AP1YY7kgFANHeYwXHp5Wg9P7eMBPuLWxDq/wExDe3g1IfqEKBN4RTn0ZH+c3FZOApwEPkICDYDZNGQ/lTECDdyhh3scNFBLHKATL8osCTmY7TGJLSE1x+SWGFTE2+JAAwoe0jiswVz0yBSWtCXk1pgM2nNGxKa4xByXtRgpgRbnyQPNh4uv9fDBB0qC7Li3sNovULl5GjfPAKnyAmNQqKcF0LcTN0jSB0RgyOPiTijohO6dYgP9iTmW2KXDbeUkwJOrMRQAACAASURBVEngryCBJshsWGCfuwlykkT6sBjQMKGwpVTGCNQaQUJSQmqISCwx0EYtcbktobTE5QbcRc6E2ZQtCWLyA9qaothzCkz1CFjsgsIWnR83JvLyVdAOE5LhdT7c383Lg07uNFjlag/fAPVIQjMN9ZqGoFAfFGlpkTYAGUugtGJ+T0IUooX0Tw492R8ot5WTACeBD5ZAA2A2DdlPZE8pQeXEWqQ1o8BZnFj3TEIWvTkus8TBtIdM+JjMHJfbUioMuGCw60NiAy5GsiQUJtgHDgQkBVZQSYvGB22IVJRARfEhNx5CRoRPHpRNQwByOfWUyBQQWmioiAfNNCDQBiFYpKNEpKZT7QMMBRY76ALP+T3Znya3lZMAJ4GPkUATZDYssJ/LkpCb4wCOxojUnlbYMwpLAqz4tozSnlZY8RgMeTDtgYIekDEGfKAWAEow8y1Y8cSLoIESSDVHZS0aWqAOCFRQYUmawUEDONwGDpLnCThqoFG7EHjjaaEmgENDZBNoqXwNdO/AHYlx5jxgKMVFjdgfKLeVkwAngQ+WQANgNg3ZT2RNKSFRKSo1x2XmmMQcQ+a4zJpUtCXlZ9NynDAP3s/2lMyWkJhDQnNIRAL0ZkhmUjhS8jPDCkdKaokjM5wH+iMBIidkLQZM8AGhc0yzZAwIDZABKtT4wJYHtdQDDHXw9gs0ASG06PQK1H6IyAPIeniQaQ+6p5BE4dV+oepTM9SxS4fbykmAk8BfQQJNkNmwwD53S0IOqfJRCdDQRSQkVdMQAXIQS1zmSClOJaWn0nJ7SulIqb7MKtvTCktcjqvgkSUqtqcVjmHlqWFFW0ZmPyrxxM7QuLTFTAshoYkWmAMCS4BvCQqtIZEpKAIiZMhDgq4bJCsewPGoRzGjk/I0vlatn6/DVrwWeOowL72Pq9Rkf6DcVk4CnAQ+WAINgNk0ZD+RFWfFk5g72OMJTPGZVFiTSntKZU8p25JS0ECTCpw/L3WkFKYYhJWsUZEpLDJEgS7EEBbZU1J7SmpNYjr6uNwQRS1Qoo75PoDpIwBRdTMt1AegDbwWzHOe2gf08nparAsBIx6sx/5NMOf9fHCMUsDvqadAadXhIJLax1nu7A+U28pJgJPAB0ugCTIbFthPZEupbEklsdZtKWD3AGpkUnSUUFgJaCYVtmFl26jGllLhNUoLzqUnGU5AqIyh1prEAaikwhJXQL4nmORegY6UG9FCU1BsCEA4CBvm0FwT6JQCEGHXBcVQFE/yk6BzHETkdYCe0MDTEIC3Dlyf4D9lmU/DrJuGLIdwmzgJcBLgJNCEFw0L7JKxZ1S2tNKRVlnicujSAQWXYnMUou22lLI9ozkzrHZkVNZhpTkls6eUOAlUAZ5N7Pe0JeWWuNSeBBvfBgnzEntc7kjKLQl5iwoCPnwTLbQEhaYgMgYlEEnHAXSgXKJF+ohYHxLraBGQfuJNKnCG4pz5oFDjB2olfUBMABfGNPrk/dzZpcNt5STASeCvIIEGwGwass8doDOjtqeU9jTY6bYkqJ/QHg5yP5WOtPJsVnMqq3GMqu1ZrKXGZEAdAja+3JZUtmeUZ4YVpzIKR0rWnlKcSSvak3JbApobt2igiYcQk9ELTUGoZ9e8CaDrAmI9ND4WGjD5sS4AqAplRS4IsuPsThxN8kKuktYvULpOqt2tBE9Z5tM074YFlkO4TZwEOAlwEmhAi6Yhu2Qgbp5RW5MKe0ZNMBFb4sCu5Mio2zOqL4eVZ9NyyPqMQfUR8IlEgVjEmlKYk0AmAuVJcQypKUBVK2Q7yR1peQt01wBSZaExCCzx4Lh0A8k89EKiRUZaZA2JrSGxEZyhYgisA4udUOMhuwGGQtdin8AQEOl9Jw1+Ht6NixqxP1BuKycBTgIfLIEmyGxYYD9RW0ZxGpRK0CXtwEoHRrcjrWrPqs6OqtqGlfYEsiUllqjUFJbYUkrgVYoj0C7DyBgUQ/pnVGpJyq1ppS2txN03gdzTkVa0mINCaxhwE2ouqaMceGgpF4RAvCUkIm9jUKQJCtUBnA/vgY6b+gC4QaEo3iOwhxDkPAXFEH/3thoDnN+T/YFyWzkJcBL4YAk0AGbTkP1EX42q2zMKW1Jmxc5KqGcHGFWdGVGfHlFYE1JLXGxLIkdcZotKzBGoSjJBb3exNSK2hMWWGC6NTwA1vT0jPzWssMQh1cmWVLbYI2JrGCx0UqWuwVlKEE+noNGbgRZD/yJarKWhzREpygTL3c3X+YWmkBg0Vkpoi4i1QZEujHQUVHnquIwl9ufJbeUkwEngwyXQBJkNC+xnsqfk9rTsTFp2JiNrHwbvpyOtPJNVnRlR2UdUtozSHJFBTCksNocgZm4Oic0xTBoSl5swr5I5LLZEIUMemm5ibynk3kdlLeaQSOcHXqWj3hu4r9FRejxJ8CQJSTTSBcTYSSpSDbVqhniQ4YQ1U9BbQ0J9BJHIkiEA6irLfBpm3TRkOYTbxEmAkwAngSa8aFhgl4w1Km1PKc5mlWeHFadH1I6suj2rPJWW2hISW1rRllWfGla1ZZQOqOAE0k97QtqGdVVLXGqNSy0xiSUqsURlFpwrao5BpN6WVgC/J6S4w1uoC4j0NOAjhIOOuD/4ah+4Oy0hZKKFoFfCVlgJ/YohvC42+lo1Lh5O/BSofXyVl6+hBHoOPdmfJ7eVkwAngQ+XQANgNg3Zz3Q6rfhqVNOWVrQPKx1ZpS2rbM8qzmeVpzIKe1rVPqw+PQwd4qwZhSkhAZdoRu3IKGwpqT2BHHFkT0ihSAkY6SHr04YTPx0p2alhRQtwylEiDJ3AOK/FhHV6zCSvpcBUh05JQZGOwoVGUFMEdMiGEKiiQCPi52u9PKxv4qQlSqSmBNog5/dkf6DcVk4CnAQ+WAJNkNmwwH4iawqi7ZCulFYB/KVVJARvTSlsI0r7iIqQJVtxJ3fgE4FEetA0bSnIpcfV8WC229IqE1TKg+755YiyLS0/Qk9jSKoPiPU0ckQkQF0H1e7QVlNLiWA9fhOSeT3N0wf4WkqopcBCN9HAwARtNSmRnobm8UAdGpWwzKdh1k1DlkO4TZwEOAlwEmjCi4YFdslA+42k0pqU2ZJyR0ZpwzF3SE5Kye0jSntWZcWsydCNA2rhIYveFDvCUFKSRFYSYDXHZW3DmtPDCkda1qJxt6pdrZDj6cfGewAphyADSYcrjvQBscojMNAIcuADImAS8fOMlEDv5+vx/joKiOVVQ4QrhA/Z9UGxLsD5PdkfKLeVkwAngQ+WQANgNg3ZTwSVlynlqayqDSBPDjCaVjjSKmtKYUkDQTL4MXGJkSkGOqYV5za9wUoIHJkgiASoislAwYrHY3mLISA0UoIj4z0gMlAiIyaHB/TEOUwGWmwIivW02ECL1S6ekeLjNkmQY6+lRIawREeL1R6ezgt8oHpabIrIDEG26TTNu2GB7RhuGycBTgJ/eQk0oEXTkF0wGP4kpzLK86NqCAellZYkRsCEzJZVmVMwtqcBQHHtJkAtBlDctwMjKbDKh8HvaY4T3AQ8hUpNsMqDoFpq/Hx9QGiNiG0RpKcBB7WU0BQQmQMiSxCMdGNYrAuLjTgHyhQW6Wme1g/d3kEn9fH1Xh4UJmEtVUtxuif7A+W2chLgJPDBEmiCzIYF9hO1QRm7GvKWUjIb+EDB72lLKswJqSWtsGUBNE2E8TOrtWfUlqTcnJCDVxQUUsBQjKcwNmOmO0sC+OtMMWmLMSiBLHcK+Dp1AeCmswUBLo1BsQF3LtYHRJawRB8AsiZbVAJ5pEEESBoUaIElBHRSUGBpCNlDvj02+Vnm0zDrpiHLIdwmTgKcBDgJNOFFwwK7ZICGDquWONOI5HsqTmWVwC2PCUTsoyro2BGXQlhpWGkbUVoycseo+uyY+vyI8kxW0T6qah/X2IaVpiRooJaE/HRadn5E2QJgBxa6EPhBAiJIngd2ZShaAla6gEgfQHoKMpmMtNARPVqpDQHtnTEsMYWkhqBETyNDUGIOA+uyAUMty3waZt00ZDmE28RJgJMAJ4EmvGhYYJeMY1jdntWeyarODSvOjanPjKrasgpbWu7IKM4Mq+wQSlKcyUJYyZyQ2YchjoRbd8jaYb3iVFZxakx5ZkLTNqY+NQZsTO3DqlMZ4A1pAejE6AmF7WGkh7YeYmtQYA0K1X7wbGK7Hqx7ktVEoBaaGgHs8g1Bvj4gaIsBqpLm8RB2p8Us82mYddOQ5RBuEycBTgKcBJrwomGBXTLtWYC808OKc1nluVFIlW8bVbVPaIFRKSb9alTjSMscGbljWGVJYKKQuMwel0ICU1TiSMtPjyjPTqjOTajas4r2EcgDPT2ssKUV9rSy5Y3miPRBRLq/G0NiSwi6CgOeYtDU0ZDMpA2IjGGJEajtpTow0gUaiq+DZkcCPS0yhiRHzeODyBjiMpbYHyi3lZMAJ4EPlkADYDYN2U/01ZgG+moMq+wZ1ZlR/akR3ZH3c1hty6gs2L8J9B/DilMTWnsaVxwlpLYoskaRIyFpA2xVOTIqewxZIsgUQ/a0xAx59TJgRzYEkSkMgEj0R4KYBhoZaAQrgwgcoEEEHeJjEn0EFokGaghKDG+2wj602BCWQtsQDj3Znye3lZMAJ4EPl0ATZDYssJ/JngEXZ9uo2jGibsuqHcNqEgWCgveM2p6BFHrgr8uq2se0p8bUbVmlIyO3p6X2lASUUJyoZE6CQoqr3SXmOHJkVLaUskUXEpkiUl0AgZFOgyvTEEOmqMQcFlkAKAEftQGowjQAWZPUEII1BFKN4PREhpDEHJGZwlJzBJnhEAg3sbwaZt00ZDmE28RJgJMAJ4EmvGhYYJdMe1bThsmP2ya0jlGw4u1p6GhkiQP5MWzKaggaQkQoLbePqNpG1La0CnI/4xAjgmqlLD4qg637OPQotiYULebIkSKpCwjMEYk5ITPGpaYIMkAMHYx33JlDoA+CikpS6M04o9MYAl8n0TQNQWSNgq5roMHY1wc5vyf7A+W2chLgJPDBEmgAzKYh+4lsaRxnJ+H1NHTpwAlJQNZpwQlMbVkNLuKEukxLSgFYmZQ7ktK2tBz2wdWZjhFQWnFdvArq5TNAU99ijUDE3BgSW2Nia0JqwumgWN8UGSLIEAbmJEMQmUNisPlD4NMEiKT4BvB4QscO7PEEhRTwNIL0UaSLcPme7A+U28pJgJPAB0ugCTIbFthPZIUIDzg9rSkgmbeD7qkCkvmYDNLmofISNE3YOgxbcRMkuQPb6ZD1mVE5RtXt41rQYYfVX01ov57QnB3RtI/oWvQ0MoVl5ogULO4IMsakhogE04UI9WGxkclbogWWiNgUxigJpUfApqwPCHTQ+R3nihKQjUmMUZE+zOme7A+U28pJgJPAB0ugATCbhuwnsmKyDzt0N1K1j2gABDOqtozCkYHMeXNSjpmToG7dmpLYM0rHsNoxrILs+oz8VFb55Zj61IjWnoZDzo2qTmWkjpTEjs/ZAm2IMD2dNiAyRCUQF4IEeAgBmcJSU1gKoaSw2A4l9KBd6oJiQwhscxuOQBlosY4CdiV9QGwMiYwhgT4g0HN+T/bnyW3lJMBJ4MMl0ASZDQvsZ3IMq61xhT0uPzOsOjeqPj2qOpVVfjWmOTuqcgxrsG0uh25xaYU1KbOmFY4R9alxTduI0jGiPDWiduCkektC5kjLwWZPyexJmT0lh84cAHlBoTkMXYyOWD6DEG3XBxGgKs23RsX2iMgeEVkiIntUYgFb/igQT6x1SxT6KJlCUj10e8fuUS7fk/15cls5CXAS+HAJNABm05D9TDiqrrDFZbaY7NSw8vSo0pGWnxkBpRIaFMflOGQETk+IJmXVjjFV27gG3mMaMOT/v0UPuZ92AFm5FdpqSlpMEbEhKLJEJJCiFJJoaSHkzEO8SKinhaaw2BaVtMUkjijCte0CLbTrOMphMoTExjCE6cHAD4q1tMgQQqaI1MRlLLE/z/fYStP0e+z1KXehadrv93/oGQcGBv74W/3Qm/zo/f8EU/P5fH+CWZAn2ASZDQvsz9eekVkTEituL+zIKNqyoGOaYzLwfqYgpA7KKbhEwTdqT0gdCcnptPzsiMoGjYzUbcPq9hFtW1ZzalSLjXo1JIcmwW3aAklIQaSjMTUyrto0RpAxJNIHhZDjGZJYoxJrVGyLIltMYoZNUqjLDCFdEJkiAmMI+JmOEkKDEmtU5ohL7LFPnC1fKpVcLlejjJaWliYnJxvXfKqx0+mcmJgolUq3b99+5zlLpRJFUe/c9AlXrq2t/ZNn6+7uXl5e3tnZKZfLu7u7y8vLjx49YjnnzMzMs2fPWHZ456ZMJrO8vPzOTe+/8ptvvhkbGyuVSlX8KhQK/0u+8P/8U3h/IfzenvF4vPTmVS6XV1dXk8mkSqX6vf2PrY/H46urq8dW/ocuNgBm05B9OvZhhT0F0XNbWtk2ojo9rjozrj6Vhe5GQF6XVJwe0bbjVNC2rKY9rXAkEFDHZ1WnR1SOrNqWAlqmU6Pa06O69hEAUHIqyPc00MgUkZnx+ygJKYyMMYkuJDQEhYaQ0EjC7rgQ0xSRGcOAp9BBCdrOIUtEYo/JjKCuio0hqT0uN0Ol5ieOuddqtT8GPTs7OwuFwsTExMHBwe+hZ6VS+Reh59TUVDgcJh+F9/96vPOjY7VaS6XS2NjYpUuXzp8/f/v27dnZ2bW1NZPJ9M79EUIqlUomk/3eVpb1/+StGgyGxcXFQqEwODj4ww8/3Lx5M5FI1Ov1UCjEctH33xSNRp8/f/7++zfu+U9OrfFUHz0m6PkIvzo7O4PB4O7ubjKZfM8TcuhpH1ZZU4QQBNI2HePqtlHV6RFl27CiLQt+z7MjqjMjSkycrLBCmSY0HIY8p4wKUkGH1aey6tMjoIQS6IQAFICstMVAi/XQb0NkgFR5qBTSR8TGmMQQFuppvh4zJ5GkJayiYjq7gNAWxdlLYUlbQm6PSUxhsT4Ib2NYqvEKdX8seobD4VwuVygUlpeXBwcHEUJTU1PT09PMx4uiqPn5eYTQrVu3pqamCoXCyspKJpOx2WzMPmQwNDTk9XofPnz4PuiZzWanp6fJp5NoBAihmZmZp0+fMqeNxWLk0vfv35+eni4UCvl8PpFIKBQKhND4+PgUfhUKhenp6XK5vLCwMDMzgxAiR5FBb2/v8vJyoVB48eLFjz/+iBA6c+bMxMQEmXJ/fz+zM3Pd27dvHxwcPH78mFnT0dHR19dnNpvJ/h6Phwjt6dOn586dQwi9ePGC3PnU1NT4+Hg2myWCCgaPgoDz8/MPHjxYWFgoFApzc3N3795FCGUymdnZWYRQOp2emZmJRqOr+JXJZMilOzo65ubmCoXCzMzMkydP3r5ViqL29/eP6cXZbJagp81my2QyKysr5AzMbr29vfPz80Se8XicXOvOnTtTU1Nr+PXs2bOLFy+m0+l8Pp/L5ch1L1++/PTp00KhsLa2Njo6ev78eYRQOByem5sbHh4uFAqMuMiAudv5+fnOzk4ykYWFhY6OjsY90+n0/Py8xWIhK6PR6MLCAkKos7NzZmaG3GQ6nTYajQihZ8+evXjxgux57dq1+fn5rq4u8qD7+vry+TwjOrIPQU+z2cxc8enTpysrKwghq9XKCGd2dvbBgwdkn/n5+b6+vpWVlUQi0YiePT098/PzzC80c8L/lEGTwtmwwH7/YGhDiFxmTUgdaeWpEW3biOb0GPyFUvcR5ekR1dcT2ra0yhKVW+JSW0bhGMbQidGzLas+N6L+coygJ2Q72dIqW0Jui0tabCFkBMY5XGEZhiJL6LoRAA+mDvs3TRGZFZd8GoMifQA4QTCBPITdLVE5VBlFpEC2hLVXU0QK3PKsLruGWTcNWURAdM9zDS/Gch8YGNjf33e5XNeuXYtGo7u7u5cuXfJ4PNVqlQAN+Vw+e/bMZrOtrKxMTk7euXOns7NzdXV1dHT0nRd9T/TMZDLks3779m2/3//69euHDx+GQqHNzc0zZ86QM+fz+ZGRka+//np9fX1sbOzq1as9PT3FYpHoDiMjI7Ozs6Ojoy6X68mTJ+vr65FIpLe3FyG0v79PzrC/v7+8vNzZ2dnV1VUqlchXK5vNlkqlzs7Ohw8f5nK5er1+bCJms3l9fX15eXlgYOCbb75p3NrT03NwcLC0tPTLL7/09PSUy+WRkRGC+8Ryf/78OcHBS5cuRaPRWq1GDq/Varlcrqenh1x0amqKoGcul0MIJRKJQqEwMjLy008/eTye169fd3d3a7XafD4/PT19+/Ztl8u1tLS0ubnZeDMEtZeWlo6tZBZHR0cLhUJXV9fNmzdHR0eLxeLX+FUul5PJ5JUrVwYGBqrVqtfrRQgtLCxMTk7+9NNPBLKnpqY6Ozunp6efP3/e29srl8uXlpZmZ2fv3bv36NGjXC5HdFKKosgv08DAAHNdMmDmvru7S+be0dGxvLxMfjCYne/cuVOv13t6esia5eXl0dHRH3/8sVwuZ7PZy5cvd3d3F4tF8uympqbIDyRC6Nq1a7VajaBntVqdn5/3+/1kLszJWdAzlUqVSqXu7u47d+5MTk6ura2RX2XymfH7/R6Ph0HPzs7Ocrn8nwudCKEmvGhYYGT1zgHmlgfj3ZGStuOEJHtGBRnyGZVjTG3NKr4cV58eUbVlVeDWHNUAgcgIMCjjzFBl27D67IjiXFYO5Z6QMA91So6UwpGStJjDEkhLgqZGOJIegiASrr8Ep6c5IrFGpY6YxAIlSQIDLYRKzRD4PQExw4CbEHOPQHdjrHseRZDeOQ2ysmHWTUOWQ2q12lbzq1qtEr/nTz/9ROAGIXT16tW9vb3u7u6vvvqqXC4T+/rq1au1Wq2np6evr69er1+8eFGJXxRFlcvld170/dGzWCyasC18/vz5SqXi8XguXbpUrVaJCnzv3r16vd7R0eH3+6vV6ldffUUuHY/HiZpD4ICowFqtdn19nflwM+h5cHDQ2dlJ7vPFixdEpy4UCul0mqzs6+v77bff3p7Iw4cP5+bmarVatVrN5XKpVOr7779HCPX09Pz222/kG4sQymazxLvH+D2fP39OABEhdOPGjYODA3LyWq3GfLGz2SzZJ5PJMOi5ubnpcDgQQm1tbZubmzRN37lz5/DwkLn/sbGxt9FzeXmZxYW9tbXFmPDfffddrVZzu91ff/11d3c3+XVUKpW5XC6bzSKE8vk8o1FeunTpu+++QwgR9EQIPXz48PXr13fv3iVPgcAuQoim6f39/StXrrwtw0b0ZFyxqVTqbX/o4uLixMQEQujKlSu1Wu3Ro0c0TW9vbxO9HiGUSqXW19eJYfRO9KxUKowS3XgnBD0fvnlRFFWtVmOxGELowYMHzIe/v7+/VqtdvHgRIVStVpkPEkHP/1GWNzY2otFo45n/48ZNeNGwwD4RR1Lanpba05AM7xgGiCTV7o5hnBg/rMbmuercuKZ9GAqNSGgIquMhUqSDZHuMtqfGdOD6hNgRji+llS1vkjoxhVIQk4iEMM8x2OxCcwTZIhJLEFmwdonD6/+PvTdvb+Jas8X9xe7vdgIlqUZJtoaaNNnGJDmH5CSBJNAkZMYc5snxoLlmSbYBM7oNxo1jwAYbQ9LpPk//dz/A/Qq/s/Y2uiWGOoHQGQ6lxw/sGlX7LbN49zusFR0oR1OVWIp4nZkqS4KhqAwlkMqkUWP/6uOeJ0+epKEf+mfX9ywUCjRxcfPmzaWlpR9//PHQoUMMw7TbbbrsKpfLS0tLiURicnLyxx9/XPJ9ugj1hPV/Pnp2UaZYLN69e/fUqVP+f65dZDEMY3Nz0/fNS+vr6wzDuK7bTbk8Dz0fPHjQjcBSr5BhmLt373Zjrx9++OGDBw+emEJ389133z169Cj1VW/evDk8PDw6OrqxsfGXv/yFnlMulymi+dGzG/fYvXt310r0PyF6FfW7n/A9u9kJGnUdHx8fHR3d3NzcvXs3vWpsbOxp9Lxy5Ur367qP3R1sbm4eOXKEbmYymZWVFQoBY2NjV65cWVxcXFpaun//PkXPY8eOLS8vr66uXrp0aWJiIplM+l/HyZMn/+u//sv/Fuh/DOPj4ysrK0+HcRiG8aNn1zPt/ufXfUiGYc6ePXvnzp1isTg1NXX9+vVoNGpZVtcg9IS1tbVg9Dx58qT/nnRcq9V++OGHx3mjlcXFRQqd1HVtt9s0ArO0tLSxsfHee+9R9OwajaLnrVu3XiIl+PTD/LZ7fIDZMwx+Kt3mVWSNkPxRTbGbPaeuZc5NkE5NvuhJOZt0IpF2I8Q9AawCQqUWCuZzLjLvqg1FeJW4rn20mwiO53fgQiZ0yNvjZ8Etn6lsy05tS5UjcC3LsVQFKaOtmqRyNFOJKfVYtoqUPWEPgTearoCGJFV+xTn3gKxRq9VaWlo6ePDgRx99tHv37o2NDYqe33777f379//85z/Pz883m03qYty9e3d/7+eZdv+F6HnixIk7d+6MjIwsLS1Rv6nRaNy6dav3m/dT9OwuWl8IPe/cudN1hfbs2dMFOP903nnnHf/mvn37Hj16dPToUYqeXVerXC7Tf9W/AnqOj48/jZ6O46ysrHRjHfSZv/rqq/37YaIff/yxC1uKoqysrJTL5ePHj29ubp45c+aTTz7ZvXv3/Pw8RU+GYXRdP3TokGmat2/fpgvzru95/Pjx9fX1PXv2+F8E/cVYWVnJZrN+c9Hxz0fPnTt3rq6uHj169MqVKxTfTdP0B1LHxsbof3LPW7mvra09kRqlz0B9z0KhIJOP/yHn5+evXLny+eef79mz569//asfPQ8fPty9/MGDB5VKZW1trevF+2/yBxr3QKZvI3gKuoNFOoqTGsi8k8J4LMxprZKGNDpZs6OJkzLP42S5yWmOJLu87PKaQ8qVCD8T1vtAVeBs3wBwEOXu/eOMdOYNWsA0MImq+GyVyVSjA+UIRJEmUdGJ9BEajQCUmWokQ9iYSNCTyrZnOAAAIABJREFUeqP4M1vDkwXMxzfrnmHAJQHoubCwQMN2DMOcPHnyp59+ouiZTCaXlpbGxsY2NjY+/vhjGsJ/9OhRN7I+Ojra/Wf5xFf/QvQslUq3b98+efLkvXv36GKZBmc/+ugj+kXHjh2jv9yu674cei4uLnbx4syZM3/729+emEKj0bh9+3YXIhmG2b9/P3XMR0dH//a3vx08eJBeQp2XJ+KeXWfwF/qee/fu/fHHH7sBwZmZmafR84svvnjw4IE/VbJz5875+flLly4xDHPr1i36nx/DMPv27dvc3BwdHTUMo+vWffDBB/fu3aPWGBsbowZnGGZsbGx5ednve9LoZHepe+DAgePHj78q9GQYptPpzMzMPHjwgPraNPje9fE9z7t+/TrDMDMzM91klD+KEoye/qxR912vrq52YynNZvN56EltdebMmfX19e676N7kDzTowQvfRvAUFBOKb7IBBhC5ycpQ10CHO9hA6lGlCfpOOJUkpU4X6WR1T5iZbFF1Rc2VNC+u2WLOEnTiimqWoFscdI0GpiKPWy0xpstzVMVPMmqV0UlHJq2HT4xvS4y9kR5/MzNByjwnGa0WzdVjmSrltYtmqixZy0cD5uObdc8w4JIA9KQp1DNnztTr9fn5+dXV1W6OuNlsXr58+erVq907X7x4cXFxcWxsbHJykqY4uofowHGcafL56aef6ODMmTNPnNOtWOouzBmG8a/caTJ9bm6um1pNpVLz5HP27NlyubyyskIjXH70ZBjm5s2bs7Oz1HPpupPPXLk3m83V1dVx8rl+/frTK/ddu3bRVa1pmpVKha7cL1++HI/Hqe9548aNM2fOTE1Nra+vU4v9T/ieDMPMz88vLCycPn3aNM1nxj0pfm1sbMzPz5um6TjOrVu3bty4Qf+zmZycXFtbm5qaOn369Pz8/NWrV0VRPHXq1MOHD6empsbHx69fvz43N3fhwgWasL548eLZs2fHxsYWFhZoXmtmZub69evU7Zqenr516xa1G00hvkL0/Pbbb9fX1ynoMwyTy+UWFhYuXbpEUzf379+nv0uTk5Pr6+uVSmVycnJhYeH+/fs0Bv0S6LmwsHD16tXTp087jtNut7tRjvX1db/v2f2fxvO85eVlGht94rf6D7HZgxe+jeCHhwtJWEJQp4ncUUwm6Im292YsZ8Y0W9Qd8NSRQk5Og1+J4lDVEjMNoiLnifnpRN4V85A1RrRUbrBKPdqHbM/49vhZKoeJHna4mZPMQCWSrkZllMpHklOgT0YTEVzUbQPfvZEiCXelGis02FwjmqpFBiqRftJ3RJf2AfPxzbpnGHCJaZrd3wZ6mmmaNG2yY8cOy7LOnz9vmubIyMjU1FQXs/bv32+apj+WlMvlyuXyuXPnZmZm/p41erq8sVKpmL0fGsr0P5tpmvSfQbVa7XpMuq6bptl1Zr/55psnnnlkZKRarZ47d256erp7z1qt1r0DwzDHjh07f/6853k0ntidaTdu2Gg0qCMmSVKlUjl//rzjOM9bue/YsWNiYmJ6evrChQvtdvv06dPxeJxmjdbX17/44ot2u33u3Llu/NQ0TYrppml2ywnff//97hOaptnN/4yNjdH94+PjdEBNR595YGDANE06zffff99xnPPnz1cqlbNnz967d89vzO74s88+M02T2md8fLybbGEY5sSJE9PT0+fOnatUKt394+Pj586da7fbX3755ejo6Llz52zb3rVrV6PROHfu3Ozs7OTkpK7r1OmenZ2lxVj9/f3j4+Oz5DMxMUEdujNnzpimScuJus9DB/65d702ev4TZ/49yJBOp5eXl7vOIMMwb7/9dqPROH/+fLvd7l4uimKlUjl37pzneXv37jUMg1r1iV+Y7v3L5bJpmolEorunO9i7dy8tepuampJl2bbtbiFEd21BL6eXaJpmmma9Xu/e4Y816MEL30bwLHJunKKn5kjdfBHEjrCiRxiUZo1UV1Rs6MHJFq84fMEVSt7WCp3GTHWTUxtR1QC85ryEakt9UHJHth0J9wRpdU9ORcBT14gNlCNpZIeQWEc+vQwA7Z94Y2D8jcT4m6lyVG+wWnW7WmWUWpSUfCIXD4SdesVxz2DrvIZHKR7RidNw3s83wujo6Pr6Ok0v/PyrXu7MgYGBdrvdDdF6ntfNs73cDX/PV9FYQRfff8+P+gd9Nh9g9gyDp/P/sj0kAKraIio90XrEyYaA8k8SxAS2OpJi8aoDSrqhdlx3hbybUB0JpPSOqBD01NG+KSAj7wA9wagUhwDcm8BEyA4zWo3R6ltFSPFxyBnB8axE+6e2p8rblTrwdGAqoteiWjWSrSOOkCpDkhOdnTUuW0Mp+PM+PfP2bTzv/HD/0xb49ttv7969SwsP792713WRnj7z6T2/JnrSOtD79+9fvHjx2rVra2tr3Vzw0w/2x93z2WefXbx4cX19/ek4zx93Ur/DJ/ehRc8w+FFRY0QS5YpNPE1St0QzSIhvPkZPEvHc4vfUXSnXiZOuJOKueqLqiarFqs3IFmVyHW3yfalJ0COBIn4iAqrjqW2ZyTfVKiNXAZc0z54qRzM1Nl1FfFNrxjIVnInF+wQzMLGtvxoZqMIthRx8GaHPVCWo4a9n3r6NYBOER0MLhBZ4zS3gQ4ueYbBZCu1kzo2TyiQRWpgmhDdUVwQ+2mIWPJ7oZ3+cNcI5WZpwN3nVFvNeQmvFFVdQbV4DqzziobjEFPpooRLVKUqc3UbLP6EtDAG47alaNNWIqU1Wr8fUelRvxPRGDMwgZ9+A8jAh+kyCFznSP4Hi+WyNk+v8QLhyD36f4dHQAqEFXtwCPZDp2wi+k0LyPF2IxLrbFjRX1FoASmSHbFFHbBTjrVW8LYHQk3DOozbeEbS2pLnIPuEEQ8g2ON2R+qgIO3xM1CQxqSkmW4vJDVY12HQdIpqgC21E5Rrk5TJQe4cmZ7qKGk80a1ZZUr3EynV+K+E+hQrQgI9v1j3DgEvCQ6EFQguEFujBC99GsGVUk9S3W5JmofCTFGwKqhGVG1HSUCTqDoKbJKEkAO4s+Jso+QRRCI90vCNpbpwWjcqGoDtxmdCOgKEO1Jxk0Z2uQAtJaUTUZlSuR7INOJ6ZelRHVTwCnSibr8EtRQyU9GsmCCPywPi2bI1LV2IUTAemXnHFUrB1wqOhBUILvA4W8AFmzzB47pkGdTAFKLvZIsDUgswGaj+h+8aCPIkkjrZ4lQih52OsJBgK/xTEIjlHpFx2pXZCtUVSsURUMJMTTBq17lwKqXYEPbU6m5mKZKuxTCWWmto+MPlmcuJNcfxf4hNv0HQ8Go0m30x89y8Dk9vSyCkRFbmJN5OTr7hTM9g64dHQAqEFXgcL9ECmbyN47nTlrrpYfaseZecUFDAi86oVyzbhgdLmd3im6DvC8hwLdlraicJPeKyaDV569H1a3GBHVJqxPiogTKWK/H8mv9uW+m5bBrVKoFNKTb2JcOfEmwM1qBZn6pzS4NV6TKlHswaXNbh+0tCZmtzeP/7GK+f3DLZOeDS0QGiB18ECPsDsGQbPXbPjuh0vuFIOnJ5swQJpiGzEMo2Y0ogqtQhE4uCTko4jR5QdQTb5oivlqIocFvUSABQwyisWr9mEkMng+wamwAbS/90bKRAhU6YP5H/gSIJICZwghJJuO/TgSJ87ut2nmMTkdrpUT1di5JztqXJUrqNcKVUOc+7BLzQ8GlogtMALW6AHMn0bwTciLUZ8ARTIgmawmhHTLVa3OYCpwerNqNJkQaRkCUivO6iZ19tS3gLpZ6md1GyKnoSZiaTmtwhDDa4vNUWYQcbfTEKZnUmjNh6FSukqC/QsR5JT2ymSdsvmaWl9uhbrn2Iy1VhyEriZqbEDZdJuBIH4UJE4+IWGR0MLhBZ4YQv4ALNnGHwj1SUUyJ443JZKHvrZdUfSLE53+AJhmM+7fA76mki+aygOlSiMyg0+W4dmnGYLeVcY8sSRTqLoIUFPiZr6khNvkKzRmwNj25RyRK5xhH2OAmgsVY+maqhDylS5dINsVgCvSBzVo8kyQqVbnun4NrnKy1Vk3lOVMGsU/ELDo6EFQgu8sAV6INO3EXwj1ZU0V8y34kVPyrtoKEKOCC1D3GBL0m0uj54iQGTW4mXSRATWJRc1oaTLSNJtMecIuivoDp/3xJwLeXfVEvqS4JAHc1K6HM1WooUmn60gvZ6usgOVaHKKNLzXY5kG0HOgjlV8YmJbcmp7sgymJbK6j/SDmy5WNKWiFVcbXKocNB3frHuGQdeEx0ILhBZ47S3Qgxe+jWDDKKjiREGSQhJBWwqaEDuCPnvO4XVHRC29KymuoLjQ15RNPt9J6G2JqHQIGmTjUO+ptSTVA/hqLjjrwO8p1/nRxdQXl/o/nUt90kn965UBNA5NbEP5ZznaX42kG7GMAfRMlrcnJ8lCfgpeJ1GCi4DfczKqVqP5ZqxosJoZy9bCPvfgFxoeDS0QWuCFLeADzJ5h8I1kg9PdeN6jtPBoE8rUWc0Wsw025wq6y+uuqNsSVugWm3M41eZyrqi341onrjqojX9MWCdCB4lmjdBuxPUd+rfUoX/LHl/Ujsyr35zPHplXaAdR/9S2gak3MxUmb7CDJl9oxvR6JFtlBiiAlrfKP+F7fretf3y7Uuey1Zhc3yoUDZhPz7x9GwGXhIdCC4QWCC3gQ4ueYbBl0FsJUk7ajkn45aBQJMEVNRH91Eg+XTE4pYkSetmIaQ58T8UVgZVQ8oDrmgevEho6C66Qt3nNZvtOf6+dWNIO/5v67Zz85blMph5LTqGDKDmxLVXeNkA4QXKNWL4RLRpcyeTlWjRVjW61aU5ulysRvcaqdS5T5zI1VjfxI5shS0jwCw2PhhYILfDCFuiBTN9G8I10l9WcmGJyCqmTp71GQy1pqCMVPSHv8QoRdqdtSHKDy0COOKa4vOxwus3pzahGGt6pOrGCalBBc6SiK/QdW1RHr8lfXkx/Npv66IqSqUcHGkgKDVRBUpeusWhdr6FTU6+zRXRtcv1VCL6nK0zOYKGVbHApwhKSqbMZkvtPhywhwe8zPBpaILTAi1vAB5g9w+A75VxRc4ScJ+kuuOZIDl3c0UlqNq+YnOaghJN2wWsgE5EG21LOFQqdhOaJikGW1I2t9k10JZmIn2rgrBP6Dpwf+HQmudsU/9LgUpVIurZ9YGp7f5nJ1Nl0NZqpRuU6qzbYbC2mViMlgwNBU5NVG6ROvh4dqDBJ0NZFwcDUZJGXr4FvKWA+PfP2bQRcEh4KLRBaILSADy16hsGW0R0Jcc92ItdJIo5poRg+78azdYhzoAzeFhRX0DwkgmjVZ66VIFRMSNBrhA9UtQTCpgxWUDAzNTi1yfXtm45/5Anv1lAen5zchk6hiW394ArhMlUwg2SJ+6nUY7l6pGiwJZOjq3i5FkmVtyXH3+ifYlLVSLLCJMvbsyY3MMWEFUvBrzM8GlogtMBLWKAHMn0bwbcCc5KDEs6cB0o6yoKMuiUTHEtQaSeEdZotFF2x1IrnPSnfJlkmJ553paIrFVyx2IprcDlJ7p6s9FWD6/vQ5t6pRnZ8ty1dRcQzPvkmLY9HnTy6idBrhPr5MpMuM2o9qjViepPFmr0eHSBEIel6DMVM1QhW7g1whciNMO4Z/ELDo6EFQgu8sAV8gNkzDL4RyuNdUnLkSIVWEroaKNjkFUvQTVZpgtw9a3C6LZQcbkdLKLalQlvMuWgxGmzFd7al4ba4ox0vemjopAqdcpOTG3zfW+VtxdP/Wzv5vxNgWnoz/t2biYltIAEpxzI1NoO2yy1ZzVQ5ojUAo2odYdB0DUTIaRLrTNWjqA+dBB19ts4pzVesqRlsnfBoaIHQAq+DBXog07cRPHfUcoKpE1WfNG9O/5QtIeeA85gSJNOCUNXkci5fakmlNn4G2/HhljTUklSDL3ZdV1vSnbjuxvvyp/6/7OH/lZxEIWdycntiYlsCEkYRcM2Vo9l6VG3EUlNMuhyTG7xc5+QGMu+DtqA0OEroma7EqPxRcmLbQJVJNdiSxQfMxzfrnmHAJeGh0AKhBUIL9OCFbyPYMlSNPe8liu1EoUWqjgiFEuFS4nWHU0zwHBFGJWi+F1riUJuUJUHJHeX0pRaqQeG3Eu0jrPqJfHEf+tmnIgnCc4wIZiWaRr4Ife6ZGgv0rGNAVTqwpxZVwDbPZevo6UyObQe/8iSTqYHyPmtyGZR8hlmj4BcaHg0tEFrghS3gA8yeYfCNEOu0xUJLKrQEzQHdHBqHCALmHKGIzksEQ2lIVAVXiKgDN1HgmSdL/mwDNCL0Rzb5nBun6fu+VBUSbyBVAiEIPMd0Y4v+A2l05I4odCKrjmDoBEg809UYCJLLoEnGAh9IGi2YfN7glDqbrYdxz+AXGh4NLRBa4IUt0AOZvo3gGymgi+c0m9MsPueKgy2pgBYjIGDBQ/N7qZWA7qZDquIdqdQRh2YShRZY6TQb+kXgprMlKBVbgu6i7V0jjfB9GYPrnyBoWI6QkiM2XYtkoZTJKk2RZN6BntT9pM4p2jeRoEfLJpTfyTJfbqCYSWmw2Wo0XQ19z+AXGh4NLRBa4IUt4APMnmHwjbKNmGLEVHRYgiVkpC0OuXyhlSDVncgmUa8THiWtbZpJ5KYTpU487wqqyarNmGaxyMtDmJOk3S1Ba0YLNt8nGzwRy2SzDT5VAx9dvskWTE5pYMFOQDM2UEbDe7bOZRs8YaJDHgk/E+AA7Z+MZKug9STknlG5/GamHDLUBb/Q8GhogdACL2yBHsj0bQTfSLNIeabJD7XjI9NJQpiEtLvuSsgOtSTdJZgI9xMln2ADcbHSz7cl3ROJ9hFRi7ME2rWpmrxm8gVX6Ms3o0WT05oxtYEfrRErWbzWgEJRts6DrQ5FSxCDk+tRpcHmDV5tCroZl2v8wEQkU4nKjViqElEbVLI4mkEbUuh7Br/Q8GhogdACL2wBH2D2DINvBJoPhD5BQ1dqIcRJ1ukooc+5JDvkEcZPlzDXPY6KotHIEzQX6XUAqCPKliA3CQeoI+W8RM5N9IEYyeJzBqc3Wa0Rw8Bg1SZHI5sD5Ui2zmWwGI/ItahusDmDlxu80hAyVbZ/gsnWo5kqQ+vq0ZJUR4VTqGsU/DrDo6EFQgu8hAV6INO3EXwrzZFkk882OQWFn4DIQiuZc3nN5nIWqxsxCBZNJ7S2pBjAR9QzEYV3nGyJShMcSzop/wQVE9bvInrebbEvVQf7nO4IRQs6Rf1TiGOmpqJp2nyJtDsYQKjiW/8UQ3E2Q3NNpLoTzUhE5ghnUob5cOUe/D7Do6EFQgu8uAV8gNkzDL5Tzo3nvATRJkJeCGl0WxxsxxWLV+EpsmBXcnjZQjM7CumbvNJEpkhu8ujINAXVxIWEYAnaR5pDwNQR+8Dd2WQVtK6zmRrW6QiDEhxMV1H6LpNYJ6legs67glL5aKocgdBmOToA9c2Y0hSydbirclNQG6zWDHWNgl9oeDS0QGiBF7ZAD2T6NoJvlMfqm3iR4JoTdrTFnR0JyXSbamzgT9UWZZNXTVAjAzEtEYt0ogqXbyVK7f7hjrRzOvHWucTwTHyoI5VaYs7l++AwNgB81HOELDsinvAiScXSVu4oW43QqKiG8GhUbbJFC0t4pJLID13pU7QdCOOewe8zPBpaILTAi1vAB5g9w+A7wdnEgp3we9o8mtk9EfVJJE2EKnUUJGExnm2wsonFu9LkdEssePECLWZyxcFOfLAlFtDHiXHRFQueCPREHNPA8h5oWANuykDPGCVYyjaQlCcK74hyKg1WacS0Zixn8iq65UFhlyVL+1Q5kq2x8HvDes/g9xkeDS0QWuDFLdADmb6N4DvRHBFE2wlFCBTbiUoHpQ6hjidhnJO0lqg4vO4in15siaWWmHfARa/aUmm2H4FRaBGLOmnZlE2+L4WkOVxI6myitBN+KDjocgankhwR6pYQBt3ySeV6REP9VCznogCVXBhNVxlc0ogWjJhmhJ2awS80PBpaILTAC1vAB5g9w+Abaa242pJUtLQjXllsoWC+6IqaxeuukPekogdGJdnidQ+E85ojFjypAD5QkHhqjqTbUrET11HAJKk2eEJ1cNnxfYDFcixdjanNWLoKCqVcM6Y1ORktQ+wWsFbZNCEEQZCU/GQbJNTaZEHFjKwRBmqTyzW5nMErzRA9g19oeDS0QGiBF7ZAD2T6NoJvlJ9O6NMJjdQqlTrJgieUPPHtmeTO6cRgW9RdgdbAI+75uB6eVDihjKnQSuTbaG8fbIEyGWrvRFqOECrzfcmx7ZB1m2KURrRgcUM2P0jcSdLYHlWaW24pgpsml7W4dDOWarKEOxmNm6mpSIqAL+jlSfCUZpAC5uObdc8w4JLwUGiB0AKhBXrwwrcRbJlME5oXWHR7kmJCf3jnTLLUTugkALqjI+UdTrH4gidmDY72FMHfpOX07f7BdnxHJ57vxAvTiZwHj1Wzed2RsgbXl5zaTjnlii4/7IkFE9WdA1NMphrVmjEZZfPwTFNVJl1lMjUm20AiXzPYTC2aLjOpiW2ZSSYzxQxMbk+Sjk+aawqYj2/WPcOAS8JDoQVCC4QW6MEL30awZTRHUkxwwisGxId3ziTemel/55IyOJsqeMKgy5U81H7KBquC+jNB1OKwzNfARCcOt+PDnXhhJpGfSWgOr5ls3hWHZ9KFVpJmjTi5Gcs2ooO2kDe5dAVMS0qDU2ox6BJPAl4HytsHIBLHZGpszhSLFp+qMOmJbelJ/GQmt2WIE0ozSCFLSPDrDI+GFggt8BIW8AFmzzD4Vig/MjjV5HWDLznCSFscaUsjnfjO6XipFddbiUKL5NM9KtohQM+9ySsGIQTxEvkWakUHWxJ0kCySerKlnBOHnjty7iaftUBypxixbB1JJNrhPjAVSX63PTnO9AMZKfNxBKzyRNs9BdUjZJModQi4PmvQfM8YbKYRsiMHv9DwaGiB0AIvbIEeyPRtBN9oK1IJ9ngRre5tCSWf0/GhtlRsxwutpGoJssFSqrqcJ+U8yG+gmZ1kh/JeotBKDrWlnTPJQaz3wW5H2EKTfdkGYQZFPT1k4OUmiz0NNBcNTEX6J8EPkioDKAljSCRVYTLNmGoL2QanNFAk318GZ13/FKMaYsbkFEcI0TP4dYZHQwuEFngJC/gAs2cYfCtSqIT2St2Vcl682BKHO4DOHZ34YBtiR7orZUkne6EllIhMcamNhLtsPqakc+IKoUNGazxJ0HfRE91IqFhCu5IIemMDQdZUg/QRTUUGph4rc1SimTqrohEerCJKLarUoqoRU5vRbD0GX9cUZFtIN2LZUNco+H2GR0MLhBZ4cQv0QKZvI/hOeiuuuqBKUi0QHssGC4FiRyhARFPUSDM77TsabItDHSnnCSqoPDm5yRGCJVTaywZRLbZAUgdyZVssthJ9lNsYqhtNPtNEYj1F4C/b5FJT0dQk+I9p+yaKQFGFH8ubXM7kCjayV6oJFSPa4kk4RBE1COOewa8zPBpaILTAS1jAB5g9w+Bb5dpxvR3XPKhrPC6V5yldCGqVtog/EOUcaok7iCYHGpBI9BOkyFAthiwSKQUVdJcveQJpF4r19ZcjJKUOh1E2eNkCGQmNe2YqLFV5y9RiRJAjiiJ5g6X+pgY5OgAlSkGraEzSDCh5ZImyZsB8eubt2wi4pFarjY6O+k+okY9/zyscHzhwoFarffDBB8+757vvvjs1NdXpdNrtdqVS2b179/PO/DX313o/5XL5iy++6D7AysrKwYMHu5t00Gw2r1+//sTOn795/PjxlZWVn3/+/9CZNd+nWq2eOHEin8///O+6dOlSu93++eeHZ/5WFvChRc8w+HmwcicrbirI3hXhoEXvpERJkE2BLOohQaw7YLFTLHQZyYTKEz6iKUD53eRLnrhzOqFZvGJwfalGLFNHrBPJIjJIV2IDU1CFy9bRuEm6jFBID1gkfyoNVjNYzcAlW93xpLMzVY2kqC5x/RVnjTY2Nk6cOOG30bVr12ZmZvx7XslYFMVKpXL79u1Hjx598sknz7zn6OjoysrKzZs3Pc9zXff69eurq6vHjx9/5skvunPv3r0vDWezs7OLi4vnH3+uXr26ublpmiZ9huPHj+/bt++J5/mF6Pn555+/qok/8WAvtHnp0qX5+Xk677m5uZWVlevXr7/zzjs/8yYhev5MQ/3mp/VApm8j+MEUg/QLuWhaR7m7CcdTsSDyTlNANDAqk/06aX6nfyoWvEndjGkmqOmx8HelwbY43NnKHfXJqIRCCgg4SBhDUJ80Bep4Ao488kVUGK5GZDUbPHqKTE5DTxE66nEahVFCF0L91oD5+GbdMwy4JBg9R0ZGTp48OTk5eezYsUwmE3AfhmE+++yz8fHxs2fP7tmz5+kzjx8/fvXq1a+++up56Dk8PLy8vHz+/HlVVenlkiRNT0/funWLbg4PD9OHOXr0aDqd7n7FgQMHxsln79693Z0ff/zx2NjY+Pj4N998Q3eeOnVqcXFxdHT07bffZhjmgw8+OHv27Pj4+IEDB7pXjY6OvvPOO+Pj419//XV3J8Mws7OzV65c8e+ZnJzc2Nh47733GIYZHR199913GYYRBOHYsWMTExNffvmlHz0VRTl27Njk5OTRo0ez2Sy9TzqdPnr06MTExKlTp+h9/Pf/4IMP6Jrg/fffHx0dVRTl5MmTTzyt//ynx7quHz9+fHJy8vjx48EO43vvvTc6Ovree++Nj48/cZ9Lly5duHChu3P37t337t2r1Wp0z6effkotv3//frrnww8/HB0d/eCDDyYmJhiG8aMnndHOnTu7dwsHvx8L9OCFbyP4CclqHW1CusMXPVF1QENXIJQfubaod+IqCJNAs6SAhGmLwTPXQqYIsu8m3EzNFhRTUJq8Zgmlx7mmPmBfk/CAENE30naJgvlsdXumCgBVgI/A1i2IrLLZWkwhq3vzooqFAAAgAElEQVTKSgdiugahTG7C0c0aqJYKmI9v1j3DgEsC0HP37t23bt2an5+fnp5eWlq6evUqz/OGYSwtLSUSCXpP13UXFhYYhmk2m6urq51O58KFC2tra4cPH37iS/ft2zcwMPDFF188Dz1Pnz69ubn50Ucf+S9855136L/8ffv2LS0tXbt2rd1u37hxY2Fhge43DGNtbW12dnZubm5jY4P6aydOnLh///6FCxdmZmZWVlbo4vHq1at37ty5fPnyF198cfTo0dXV1bm5uU6nc/fu3a4Xub6+funSpaWlpVOnTvkf42n0HB0d/eGHH6jLubGxQVfu586do1939epV0zSpq/v222/Pz88vLCy02+3r16/Pz88PDQ1xHHft2rUbN25MT09fvnz59u3bfhBnGOb48eNra2sMw/z1r39dXV29evXq+fPnL168+PDhwyciLbZtLy4u0qft7+9fWlqq1+u7du26fv06/dKFhYXFxUWK78vLy+VymZ586tSp1dVViv5ra2vz8/Pd+3Tn/gR6Mgxz/fr1VqvFMEylUrl37965c+fOnz+/sbFx+vRphmGOHj16586dhYUFOvcuer7//vs3btxot9uxWBDFYvd7w8GvbIEevPBtBD8GiVdKmiMUXOGtmWSB6BIPzyRGZhODs8nCbL8+HaddRluib0QhbquZvclj8Y61PBbyiinkW4nB6YFipz/fSvRRUiUoa5aZ/jLq5LF+r0az5W1ZUtFJYposckqEBZk0JvFyQ1ANAU2ZDY6SiWYbXKoaS9WjAzUEUgPm45t1zzDgko2NDbP30125VyqVy5cva5rGMMynn3768OHDzz///F//9V83NzepQ5fNZpeXl6empj7++OMHDx789a9/pV/kOA6F1Ke/NwA9Lcu6detWNPps6ZFOp7OwsJBMJhmG2bVr1927dycmJjRNm5ubm5qaol90/vz5S5cuMQwzMzNz7tw5uvPrr7+m4Fir1RYXFyORCMMwN27csCyLnnD48OH19fW//OUvDMP88MMP9Xr96cem6LmLfEql0t69e+fm5m7evClJEsMwFD3379//8OFDCqMcx83Pz1MEMQzj5s2bpVKJYZgdO3ZQ/Prkk082NjY+/vhj+l2e53VBje7xo+d///d/d9F8YWHBdV3/Ex44cODhw4c0DnvgwIHNzc2PP/7YMIzl5WX6pfl8/tatW4ZhMAzzTPQ8ePDgjz/+ODk56b8tHT+Bnvv27VtfX6dnzs3NNRoNelq73Z6fn2cY5siRIz/++OPY2Fj38na7/ec//3lhYaHT6Yii+PRXhHt+DxbowQvfRvCz0a4h2qIO385EOyaU2V0p104UZwcKM0l0uMMnFfJQ49hikpfBIcdtwagpqpaQayV00NYlR2YSO6YTfZkqUkMDU9tTU9tSZYhrws0k3uhAZSuhhBhoDUWgmillKZ2dATo7uQ63NF2D2HH/JDMwtS1V256uRjK1Vx/3fBzN2/r71q1b3bjnBx98cOLEifHx8YmJiY2NjUOHDjEMMz8/73kewzCHDx++f//+rl27zpw5c/fu3cnHn7GxsfX19WfaPQA9Xde9efPmM69iGGZpaamLdwzDXLt2bXp6mmEYSZK++uorugb3PO/atWsMw0xOTq6vr3ued+zYse5SkaInvf/m5ubjh8Xfa2trJ0+eZBjm4cOH/uV/92FmZ2c3NjZWyWdtbW19ff3y5cufffYZPYGi56lTp+7fv18sFulO27Ypes7Pz7fb7e7XUSsXi8WlpaWFhYVyubx///6nPTI/em5sbHRDjZcvX346D7OwsOA4DsMwpmlevXqV2md2drb7/OfOnaORh+eh58OHD5+OHtCl98LCwhXyuXr16v379y9fvqzrOsMwkUjkwIED1PJdR/vIkSMPHjzoPi31Pefn52dnZ/v7+7vPEw5+bxbwAWbPMPg5ab0RCuBBgcxBoBgtm3SFLugtKY84ZlyzxVIHK/qcJ+lefKtfk3CCQCfOxg/Qk1CFoiDU4ftSU1B2S5ehTdRlq0vXCKs8oQhJTUFNM12LpWuxrVx8ld3CU0qNTNiY09Vof3lbpr49XcP5AfPpmbdvI+CSgJX7iRMn7t27d/HiRc/zHMfZ3Nyk6DkxMbG8vJxKpaanp2lQjALQdO/nmV8agJ6VSmV9fb1QKDzzwlu3bjWbze6hixcvnj9/fmBg4O9g8f3333c6Hdd1O50ORU+68j1//vzKysq9e/eoi+RHzx9++KH3Yaepu7S5ufk89Lxy5cpfyOebb77Z3Nz0p3Qoeo6Pj6+urg4NDdGH7MY9FxYWZmdn/V/X6XRo4NU0zb871Jubm/Pz80+ELPzoub6+vmvXLnrbZ6Ln5OTk8vJysVhcXFykE6GQ3TVX1zLPQ89uDLd7CR1Q35MGN8fGxg4ePNhdHMzNzd2+fXt6etp1Xc/z6H8VR44cWV9f96Pn8vLy/Pz8tWvXKOY+cf9w83diAR9a9AyDH+9xtTx6hBDHBIcc6oVQYUlUN0gNfIJ0YSI8qnlSrhPXWxItS1Jt5I4US8x58UI7CW46W0QA1BX7ZLJCh57wY6J4SpMsN/g0EerI1FjF2BLe2KKzK8dS1SgSTUT3IwN+ZcQ6081YphlTGtGS/evFPbv+HcMwe/fuffjwIUXPXbt2ra+vHzx4cHV19ejRowzDnDhxwu8fRaPRp50p+hoC0HP//v2PHj16Yv149OhRCog0hNd9l4uLi57nHTp0yI93MzMz9OR4PM5x+G9G07SxsbGNjQ2GYfzoub6+3l0LMwzTTYj579b9rqezRq7r3rp1609/+hM9h6LnkSNH/BhEo5wMw8zNzfkTLyMjI/QquqxmGOajjz56ej3+Qui5a9eu+/fvHz58eG1t7a233qJfOjc3153CxYsX6TP40fPs2bM07nnw4EH/k3evor6n/+H9h2gkh+4JQM92u/3ee+8tLS3R9Yr/DuH492OBHsj0bQQ/oY6VuJhz0V6pQBczpjSjMuSMePRooqWdR9Zoq1BJUBxBa4mqK8h1IlkENmUhj0RTvNhG1r7USeY7icJMsk+mbUIk7U6y51ymyhKqeVLAhEQ8WD5J+khABWg1lqlFgdxNnADQrIF5PtNkswabt4VBWyj+uug5MzOTSCT+9Kc/zc3NPXr0qJsLOn/+vG3by8vLNIP8zjvv3Llzp16vZ7NZXddt2+76gF3r792799NPP/36668fPXr0+eeff/rpp0/XcrZarfX19ampqffee2/nzp00IED/1dXr9ZWVlY8//pjjuNHR0YcPHx4+fPjbb799+PDhgQMHJEk6evTo3Nwcjb5dv369Xq/rus5x3NGjR2kYoVqtLi0t6bqeyWQuXrx49erVt99+Ox6P08pKWifwM9Fz586dy8vL1IXsxj3fe++99fX18fHx/v7+/fv337x5k7pjY2Nj9+/f/+qrr+Lx+CeffLK0tFSpVE6fPr28vLxv375kMjk4OHjt2rUnopkvhJ4U39vtdne1PjY2du/evQMHDgiC8Pc/7927d/bsWYZhaPxRluV333332rVrvxA9v/nmm2g0eujQobm5uRs3bsRisad9TxpnOHjw4Pr6+pkzZ7q/D+Hgd2UBH2D2DIMfElzILfB4btUhoVA9Rtk8SV0n6JTQr+nF0USESk9BNrmswSomFInzrWTOi5cI09JgSxycloZnpLwnqDZHOZZQtjlQgfhwmpQlkQw73EmVeJ20851m51VDKFh8zgJ0IuJJxOAy9ZhusCVH2OFJQ66oNl/xyv3OnTvPq/c8evTo3bt3l5eXb9++ferUqYWFhW7xED1k23bXuMeOHfv70e+//56mXL/88svuITr4e771DvncvXuXDp6ujxFFkaLkBvksLy/X63Weh7utKMrMzMz6+vrS0hJFaoZhEonEpUuXNjY2lpeXL1++fPLkyQcPHiwsLBw+fHhpaYk+/MrKCq2eGR0dXV9fv3379rFjx/bs2UOjeMvLyysrK90nuXPnTsDK3T+jU6dO3bt3j7red+7cocmiSqVy//79lZWV5eXlSqVy48YNGh90XXdtbe3WrVvr6+udTiebzcbj8enp6fv37y8vL6+vr1+5cuXDDz/03//48eN37tyhOfc7d+4Er9zpaT/99FP3v7dIJOJ53tra2tLS0urqKo2KMgxD/c2/1+F///33p06dol9x8ODBO3fuPC/u+Tzf88KFC5ubm8vLy9euXTt8+DC1/JEjR27fvu1fuXejtJOTk/fu3fvqq6/80wzHvxML9ECmbyP48fItNKfT0k7KCS8bHFJDLanQkYan48PTCd2R0E3kiApxVIstKe+JOUcYnE4SPnlRB+G8ONSJDyFTH985kxjuxPtSlZhcJ4v0Ksm2EzVOJJtI4RFdzmdQorTVDq+bQs6G95sl5POZOpvCUbZg8SVbGHYl3eBSZaSMn/fxzbpn+Lzzw/3/NBY4e/bsrVu3UqnUP82Mwon8mhbowQvfRvAzII5JqD1Qvwk6JV62BK0laR0p1xaHZ6Sh6TghAMVO1RMUm8u5wmBLfHs2tetCdrCNjLwCGQ/4p1pH0jvxHdOgTO5TmoJmiqq5pQpHFOIE1RVVF62dW3VIWK0jZaQYAoKbBqtaXM7iNNSRIvmeM/mixectQTMFpYG1f8B8fLPuGQZcEh76o1vg66+/PnLkyMrKyhMh4z/6vMLn/zUt0IMXvo3gZ9AcwtRJmohUUvSuWoRvqZXIdxKl2WS+E8+Tpb3qYqmOOKnD51yh1Iq/NTsw2ElqjpjzIKWpuoLelrS2WGxjLd8n19EppDQFStaZrYFGVLM51cAqPlWFGBwKOStRWu+pNGO6yZVsoWjxaPa0BNXg8ganNFi5ARoROKeWEDAf36x7hgGXhIf+6BaYmJhYWFjoFvz/0acTPv9vYoEevPBtBD9MsQXRtwJKNROlzgDJvKPuHbl4D44khI88fnBaGuwki+1+UHyi8FPcMZ0otUTN5mWwd/KFFihC1Bbak3SSPuqiJ4o3szUOPaFGTGtGoclRg9abTLxLKMeVY2qTLdlCyRF0g81ZvOLwiiPkTL5g8GoDGSTNFEu2oJuvOO4ZbJ3waGiB0AKvgwV8gNkzDJ47OOXA7JnQHKnQTiqE6BPr9yb6L4mnyIxMYzH+p/PpkU5Sh/ompzl8sSUWW6LqgJmJuJ+SavP5diLX2oqi9sl1aGrC5QRuCmqDhyZHky9YvNLcEsvMEuFMlDiR1BCW5+S7wXdviUoT1adac4s6JNsAQX3AfHrm7dsIuCQ8FFogtEBoAR9a9AyDLaNCxA1FS7orFVpJ2rgJsUwvodl8trldNiM5T4A6sSsWXDHn8KWWuGM6PjKTKGA/OEBpLl6xhLxHC+ZRe9+XqccyVVaug/VDR/moSJsyM/WoBjEQUbMkmpFPV6OKEcuZWNFTVlD0dG6VNHF6gxm0eaWBJFLqVXdqBlsnPBpaILTA62CBHsj0bQTPPefwuhXTLE414UKieNNLDHcSO5Bwh1gxFu8tQXOoKyrqUGxHr5Fqi/lWIt+SSh1xeDautkWlBSK7nAdKEc0R+9LVmILmSz5nsiVbpGgIfERBEtQ0ZQKpFEAphR1c0TqbNXn0xVdjqXJUrnEKJODJ+Q0+VOYIfp3h0dACoQVewgI+wOwZBt8KK3GLlQ3wFyN1DmZ4kIZgGe6JxU68NJMcmo4X2nAzSVIeUm9glXelfDuZa4n5llCcjhdnB/TpOLjobVoQyvUNTEGzSK7HFANRTtqLmUUbE0ntY4XOk4Q7ejfTtZhqiqohphtsqh5NN1jNlDRLytTZgSrk5FR6lfWKe42CrRMeDS0QWuB1sEAPZPo2gudOaeTRt+4JGvrT4+A5tkAUUmoldk7Hh1u85gikHRNtRcjLW0LW4JAd6kh6Syi1xMGOWGyLb59PotGolcx70o7peB9449FqCZRE01ITiSDIgKCoc2shn66z6Uq0f3J7uhLRLW7IFeQGizbNGpeG4xnLW7zcRFJeMyXVYPVmWO8Z/ELDo6EFQgu8sAV8gNkzDL4RJUkiuSNec7nH1PGCaok5Ryp5whDUhkHxiRCnQ1b3iJNK4F5qibon5FxedwVCCQplJFJ4L2qu0AfGeHB30h8CoDaKnmixJ3iR6yzEh+tMthFJ15hULTJQYTLVKEpE6wIkj2pRInMEtjq5yRfMWC5Ez+D3GR4NLRBa4MUt0AOZvo3gO2mupDgi0utGLGfFwAZC+DpVxEBFzUECXSU88wVPLLWlEsKghDTEFfTpuN6JKx6a33U3nmmisoiWi2qO1AcyOtKuTlL4pKGIhEFVg9VMVm0ixDlQiVBakDSQNJatROTKdrUOQU1IdJhsweYLFpe3eNXgIIv0qpU5gq0THg0tEFrgdbCADzB7hsFzpytx3ZFyDl9wqbibqCL0icwP7W2n0u0Q2nS5QkvUWpLuSXo7rrYk0oCEytCsAaZkKq5Ja5j65CZk4LBmJ63rVGlDbXJ5S9BNuKLpGtxPtLRvqXewciWSmWLkWlQ3uZzNaSarm5zchGCcTG71yrnlg60THg0tEFrgdbBAD2T6NoLnjpU7KI0TxZY4Mh1H9ZIDRiUi1w51I1JLn8R63OS1ZjRv85onkjW7pDrII4GerkUuwRiEdYgDePE+6MZRTLV5xRbUJqE9fhwGpcFQEMgbWxJGSpPToEKMpLzc4Io2P+QIBYdXPVGx+aLJDdq8ZoZZo+AXGh4NLRBa4IUt4APMnmHwjTRHgpBRG1RJeQ+kyFQvU7eFoiepFso58y2CnragGKxicJkGaooKwFw0buY8cXg6mXPFggdGeuKxinnwezbhi+JsA1VHWpMWfnJ5S6Tup25DG75b45mtx/DTIDKcTa4IchBedwmvvc2XHIB3uHIPfp3h0dACoQVewgI9kOnbCL4VJQdBFohwG+e9BBJEllh0xB2dhGKg9yfnJWgVJ+WmyyKFzhVcYbAtloh+3PC0VLCFQVfKO2ChL7jCkMcDPZWmkK6gAF6ts3mDK1rsoM0NOYDFIVeA9LvFySSaic73cixV2WJHpsirWqhhkg0EVhVHyDRj6dr2gPn4Zt0zDLgkPBRaILRAaIEevPBtBFtmcDpe6kiaw6mE+wPr9DZKjnIWi0U6Kf8steOFtlRsS4UW6kAHW5LuCBrxC/OeqLelfFvSLUi6q0iqi7onFj2xT7f4rbR7nZNrrA6SpFjeEnOmkLeEPKg8OZSCUhbkGhqT0oQ0RIH2UVSuI7MEtroGpzh8psmmKpFMLezUDH6h4dHQAqEFXtgCPsDsGQbfaAj0H9KOmfhQm9IkE0k4G0Ltuolec80Wh2cSpY4E5uNpKefyBQ/1SRopns9avGzzssPrrTjqOME8j1QS4p6qCS1M2kQEejpCI09K4iFenHcEwLNB5IhJQdJWo1GDUxqc3uBySBNFMrXtKvjuY+lahMZDA+bTM2/fRsAl4aHQAqEFQgv40KJnGGwZLNgpdfx0XG9LKoo6wZykNGOqxWmEMyk/Hc+1pUJbKrXgVBYJbZ0Kqjp0uMsOr6ArCbFRBexIgkqU4/oQQ8WKW1RMEVR1jZjaiEIOCbRJJBIKuhCi0tHNuZNNGiSV69FsIyITnZBMPZqBzkdYsRT8NsOjoQVCC7yMBXog07cRfC8QLJGsEanchEeJ9LrNq2ZMNlmtLWUtTm1LekcqdhIlTyq4AqWhU2yUNyk2L7ukScmL0yIn2gKvu/G+rMVnLQ4nmaLcYOXK9myFkWusVmeVrTp5FNJD+o2k5nElcBYQSXvhu35rpg6hJbo/YD6+WfcMAy4JD4UWCC0QWqAHL3wbwZYpkmw7tIk6A8V2stiShjtxZNuhUSyQ0iUh10kU4G8ioURS6pzqsLLDpq0Y+OAbbNbmCq0EKOVMntTYS7orkXrPrUYjSGMCFmuxTCWSrTKpciRTicikln4rKW8LSMGDC3mrPQnloqhn2uryJEp1qGQKmI9v1j3DgEvCQ6EFQguEFujBC99GsGUUiwcggp4uAY0jVyh4Yh61R9Db2GKfcwXZ4UEdD275uGzEVDuWtWNpK5pqRkESX4+pBlxMlHiCQwS98OBYgmyRIVCBTKAhOOu2ZyqMUmXkCkP3Z01ORkEorxusDsmjLcTMNkBNL0OSk1cMVrNYxQBtXcB8fLPuGQZcEh4KLRBaILRAD174NoItQ+o0hVJbzLnCjuk45TwuduLowmzHi+1+1UaXOVLfBqd6gtoiDik0MWM5M6o7nNaWMhabbyc1G9kgZM5rrGzyfdlGVCECcCC/s0SoDVeZTHl7ZiqiVlnIxhPJjbzNI8IKNQ5RswQVnaGAYULFRFb9oBfhZZu0LRlhtXzwCw2PhhYILfDCFvABZs8w+EZkJc4XWuJQW9JdIUd+dE/UyA/S6CbimwBQgyCYRUjfDUFrRpX69lR1u+wg556tbtNNnsRMQdQE9Cy6gmqSPiKowqNcSakxmTIjV6IFky/YPCla4gddMWfzOeh2wmWVHT5jbjUgUXIQPIGNCKtmSXIz1DUKfqHh0dACoQVe2AI9kOnbCL4RkuYmr1r8cAfVSAgzQnAI3ZaaI6WbsXQ9mjXYrMVmiYSR7kpvz/a/NR0vdEStg4R7uhFNN6KqFdMcVrFYmSzbwY6s2ULO5HQL0Pn/qpEMuslmG9DR1E0erUe2BAC1eLkRzdQiRJGYy9Y5FDk1QSa61S9PejoD5uObdc8w4JLwUGiB0AKhBXrwwrcRbJkcEkTgndNdQQEjB6eYgmZTwSLUcoLUuBGDoGZLlA0ua3DDbWnntDQ4A9p5zRPTjdhALYLy9maMKHTGdS+huRJZuTdjirHlSGYaYFSCXAcpgIdf2eB0MM/zch0Xy42YWmeURkQzH3fEE+FiRD+bQqaOeKgS+p7B7zM8GlogtMCLW8AHmD3D4DvlwQaPGk8kfJokY47EuqBaMd1ldUciyR4uZwpYiFsxEB45/EgnPjyd0Nrg9xxqo8wT/qkBAhF9WtIRBGD7iqaQmUJSKduAPnveYmXIuoEvOVNHtzyIk+vgnAfjZx2xVYhwEOJkxUD1ktIUoASHvH4s02RVV1JCTc3g9xkeDS0QWuDFLdADmb6N4DsR2mMCoETcjeprFjxJtznNBqxBXBPK6rzcZFWbVcwYUSQW8m1JcfisyaoOr9oc6uQtQfMkrS2pnpBvsX0lW8gDkoGDOgg6WdXkCXSiOxP4aIlUKk5Geh2FSipJFhG3FCeQpHw022CyJousv4P+zoD5+GbdMwy4JDwUWiC0QGiBHrzwbQRbRrWlfIsIYTqC3oqjsd2Vii0k33WHVy00SWLxDdlhQTFj2Wa0gKomodCO51pgD9GnE4RDDrl4HYRMCdKtxPVlm1yqHE2XmSxW/qLuSYoJQKRsnulKbCspRPqLMiQMSlWPgLZuXCV6ILLBZeoxyhICrSX7ZdBT07RgK4RHQwuEFnidLeADzJ5hsE2KhFlO90QFveoSSbVLuVY83xJznpB3uYLHqw7pvwSBPAjnIAnnCCgObcXR2ekJuc5WfShpNBJk0IVwUCRWDCZbZ7CqN2nTkaCYyCDRniI6UE0BSSHC5kRCnPBD0f7pIgWPNJbBkfZPMW/zuvUy9Z4jIyPBVgiPhhYILfDaWoBl2R7I9G0E22SoLQ2CZU6EJFwH6276Az/UFYdb4s6OVGyDDhkNmtDkAKahE8kT9U5cbYlQ7PBE3YGUJu010l1p0OX7lFoUWaAagzV4gwOAouBeKJjsoMMPe+KwKxRsjqghc+kaejFlG82daA4FKkvI1DcgyEHYSiQFSSQ2YD6+WT85jEaDyJkC7hkeCi0QWuCf2wJPgoVvO3jiBRedRYVWHGIb5E+NqG7kiGs52ImX2mKhE4cChyMCxKjekQvWZNVDap4u5FU4l7zuSaV2stCKD7elPqURVesRpclmm0SSqMlmDFYzYnkjljOiBYstmOzwtJR3OJnw1MlNLov2JhFepytkTGjGyU1U0dPUldJEOX7AfHyzfsYw4MLwUGiB0AKvpwU4jnsGWDzeFWwT6G04JPTpJSjPvOZIuiMWXLFIhDP1NhjnIG3kSPAC7S2XUyEAmnPjw514DlqbkMsseNJb0/G3ZhIFT+pTDS5vIWpJM0LpeozIukG3HWjYRI6IltNrloQ2T4tXXVZzQCOiNVgZEVKUKBEPFLwhUHU3xYD5PJ7ys/9WVTXg2vBQaIHQAq+hBZ4NFo/3BhsEQUyS6il0Eqg38iQwybvxnCvmHbEwnSjOJHItMNFRr1NGv6aoehKqmgxet0UQdXpi3pVyHq4a9IQd4FGWwO+JeqNGDGWiTS5Vi6XroI5P16KpCqlkqiOprxgCgLXB6S4nOyzU6Qw+U44iEV/fantXgLMSuEHNl+k1emyKEUEIujzYUuHR0AKhBf7JLNBFhucNgudLNDUhPpzrxLV2XAZpiJRzE4S7U8x7fKEl5D2Qg2C/F4fsEK1/h3cIuk7F5FDnBDk5Pu+hQ0lzpdx0AhxLajOWszkVHPI8pNsrTLbCZKsx1C1VonINdCHZOiM3I9lGFCt3hE5Rd4oa/WosXYsO1CMZg1ROAUAROwiYz/NM4N+fTqcD7hAeCi0QWuA1sYAfFp43DjZFvp2gosSgU0I1Oq+abM4Rc15CtcUCKYYvtiTEHg2eFH6ijxO5I6gWcSqKQBEMJWwjCKHmPWmwnSzMJPtUg9eMGKTboSTHpSoR8HtWmQy4l9hMJQq2ugqgM1OPpCrRNOCSiHOUIwPlCK2ih6PriljaNwXNklRTCpjP80zwxP4dO3YE3CQ8FFogtMA/twUGBgaewITnbQbbId9OkApNgpu2qEL7EmrqRMNd0h2+2MLanPJzylU4m2BEIqX1lLC4QIXk3DhcToQ+xRHkmhLQNSLV9ghWgti4GlHqEZnkkYo2WEKUJujiyeId63cIcFbZdDmWrbGawRUdREUJ2RIKlYo2tOQKL1ux9KSf58MAACAASURBVEzrsGxQBj/YcOHR0AKhBf5wFlAU5ZlQ8LydwRMcbInDLWkEvPFg9sw5/KAnDrelkgfWpTxS7aDpUMAbIspNDvzFqJyHvwlsRLgSgsb5VjzvQohYs/mCh6OEHZl0XlKGY+BmPaobXN4R0IZko/soXYvR5ncq7J4hi3rV5HIWV4ACMo9Kpmas5ArDnliyuZL9kvWez7NOuD+0QGiB0ALPs0AwepZcftDlhlvCcFsquHzO4XOOMETKPHd2pHw7DtAkwhma85hw3n7sFFqiYpCUvZcoteJDJF+kOWh7l00BvUaZOvov4WACd7GKp2xJcDOJ/AY9gWbhlSarWVyOqIIUPV634Y2S1DzCncjOI+D68hVLzzNQuD+0QGiB0ALPtEAweqq0BdNgaQJdd8WcG0cC3eZ3TseLiIpuoWfW4EHxaZCSeEuQCeWx5sS1VrzQSQ52ksPteAmk9FIWvirp1Mw0WKLmBnL4AuGgA08SaWaHIAeEN8CCrNkojFcNDkFSk1WMGOlTwiHVIHxLTUqWDB84YD7PnH+4M7RAaIHQAi9ngQC0YRiGgCMIj6iGELSJIOPGazY31Ia0EeAS/UVipsGm6tFUZTsUhpAY52gWXmvH0aTkSbQNCVTKTU5pxvoIdKJOExqZIPrkNCCuhNbMBpcmX4m2dyLFQaqRRPRrmujUJDJwuFGmyhKOvK3Tsi/FsfRyhguvCi0QWuA1t0AwemZNNEZmDEQX5UY0Z/N5V9AIwZLmcCS+iWJPQn5EuZNZVBY1uHQlmq2zhVZSI1lx6MchKS9mwQEKF7UvS8rjH1MjQ/yItGMKpKUddCHpGso8ab4IzCC2pNmkQZPoweFrCBVTqoKOIyz5oXcc+p6v+e9zOP3QAr+eBYLRU/cktSVqLVE1okozOugKg20p7/JFTyh6gmqBRk6zwY60xZoM2WABHUAoLmKJhjvik2RFL2hOHDFM4kH2qRaY4becShL6pARLqimRBTvAmOi5g+Iz14zu8MSSi5J4QKor6C2w3st1TgYvMvzQvCPkXopj6dczdvhNoQVCC/wTWSAYPWULvUP5TqLogv+4RBPuJNuueyIW6VsJG+Tct9SGWwnCxoTOd82jGm6oTcKCmxYgmULelfrAUI/+SyR8Mg0WZaUEBAGaiHXGkQtC4kmQG+h8Lzk8ejfp4p1whaQr6DhCSROpk9ctTmkG1Rj9E721cCqhBUIL/PYWCEZP6Fd6guryg22UKA22xKIHbTjFFWRXyJqcShJEWcQ6ke8Bhrqi2hJy0/HcdEJvx6HYBhcVf0J30wYkFlyhj7Sxb7W0K2jqBEkSgUtKGo9KT+SL6oRFifa8Q3xYyFRZuYlQKwpKG2yqHM1UYzoip6xihBVLv/2vVPgEoQVeEwsEo2fOAdWxanMlT0DJJ/p6BMXiMyabtTndEXIOr7mC4giEOg7qlqoj6J6gt0TVlWRSEU+J6ajAHDxOS8g5Qh+h5iRwSZovwSffxFqe/hBOTxzVEO6UgKqgUIJ/mqlxmh0nHHkokgIlaJMbcsWhlpi3gxrVX5M3Gk4ztEBogV/HAsHoqZLi9pInDrak4bZUJCtxQBbcTz5H1vIlQvoJF7UlyY6Qc/kiJORYzRYzUJGDT0r8SCSOCNxhtd2HHDycTTiliHiS2k/aq47lPOn9RF7IFIhbKgx50nBLypkC1DSbQroCNib4xo4g2/BSIezxCxjqfh1zh98SWiC0wD+NBYLRUzZY3eYLLp83CWFxWyq1pKInFlrxYjs+1BJLLl9wwT4HQk9HxFrehmupYCCCuhMMSohYFkDFRJb2tqjZInxPUm8UI6VLqJzPVGMKOZWs3/kMIT+m3J0ylDlQ7ykTkN1CW8IbolKSeYLQ2Wa4cv+n+c0MJxJa4BVb4PbHn9/56Av/zy/8gmD0zDZjms0NtkS1zhUsdBkNtdCpOTydKHUSQ5445HIlF5iIhTnikFymSTmPSBERIZ+Dy2nxeZfLuZxK5OFUW0SvUbYOljmSF+KzVVapEe5Og1WMKHUk5Qafs3kNJExQ00QIwGLlZixTjaYrDGrmCTsysv5EuiP0PX/hb0N4eWiBf1YL+EHTP/4l8w1Gz0yTzQLNSC+lKZQ8abgjDbbFghffN5caakFjo+gIIKxDCp1TSCuQZrKaCeJjmZB7IIZp8rLF5RxU0dM6pT7ENC0oGqdrVHyY1ZpczuJ19GIiCSWTJk7N5AoOkvLpemygGlGMWM7h5EYkU2NkUg26VTNFJDbT9VjAfH6JmcJrQwuEFvjjWsAPl0+PX3peAWjDMIyClDovI3aJkGXehUhRyRMVk//0YurTuczojWzRBS2IaotFV8w5XIG0xuetaLoapY2XMtSFEd4EDzIYjbGQ76P9l9BtR9E7kunZOmqaqEAmuEZs0qJE4wKWRBueaGdnts6lqzH4m6ROHmpxhJIkWw9X7i/9mxBeGFrgn9MCT8Pl03tebubB6KlTYiQHgmwoRfIEvS3m23HZET6by3x+KXt0UT1+Uz1yI3tmJTsItjowieRdEvo0+DQ6LQn1h8HlXEG2UH1EGj1F+J4osrdEFdX2SKmDFNlg0TKEblBBtQVoy7VBvIzEUwNJoUydVW1Jd0g1KFEwpmLFmRqaSXP2L2VHfjkjhleFFggt8Hu2wNNw6d/z0k/+j9BTGGoj1gkt4pakteO56Xh+OqG2xE8vZL+4JB++qX13O/fdin70ZvbQ9YH9/57RqbNIEc9E9DNdj6kmP9wSNZvLNKJUBLMPnqNF8kpEFDOLWiXUeFJvFL6khWR6hlDVUx5P1YLEB2H2RC89SccLeYvTKRmowWpOiJ4v/ZsQXhha4J/BAv/3/5x84qc7Kz9idsf06J4bez669ZH/p3tVwCAYPUkcE6TxYOcgte65VgI/XvyzC/KBC/KRm7lTd/K1zdL4au7EinJocWD/JeGTCzGd1MaTPiAwKum2kHd53RFUi882wcaElTshoyft8ejlJPzHDShlosO9yWktSbbR40n72VFdb4k5Wyg4vGahFFS3pZFWouSIqsESeQ9W814Bt3yAscJDoQVCC/yeLfAEbnY3u8/cBU06oPv9oOkf77m+p3vhMwfB6KnZiHgi7mnxGRByQmlDd+O6I316Lvv5nHpkURtbK05tlOoPS9+t6SdXlG9v9B+4Kn50LrLvcizTiKENyYhBlR0rdZRvnrmjfXYx2adZQt6IlqDYjvU4EeQkDfOPM02EXQmV8HBLGzG5FlEb0RS0OijgCrpLGEY9UI9Qv/WX6xo900bhztACoQV+/xboYuUzB/T5/ehJ9/jh8ulx8KyD0RN9lq6guqJMfE+qWaRawtTa8FcXlW+vKMeW9PF7perD4eaPO6z/GBpb1Q/dTH9zPfnZVXHPudi7rTcz9WimEZWNGMo/De7zS8n9lwYOLWb6dJMrWLECIabbKkgitfGkaxNhTd2JQ3/OTSDoWY9oDUaDVgdd2hMwtgXZQcfoVo09KfkMmE+wIcKj/9MWCHg1r+TQ4OBgwBReyVcE3yTg2wcGBoKv/eVHA779dTj0TMR8Yie1QxdAR0ZGPv73j59GzCf2BFgv+K2pjqi2RMUlPUI0b07y78i5X8h+fVk59X1h/F6p/mik/mjY+o/hqfX8kaXstzf6v1pI7LvIv99h/uy9qRgoe8pa3KcXk9u+ZSNHhLG1XF/eYotWrOBwOZvNWYh4gjTEgGSmbPA5N6FapEETZMlEcbMWzUKxnWgZPe5Q0iiTCKFiBt1nI2QJCXjXv+Wh4N+zV3V0eHj4mZN8Vff/h/d55reLYlA4/h/e8+ef8Mxvf012PgGUz9ykpvg5a3Y/gAYYMPjVqERAWLUFsCW5InrYbSLO4Un7zmc+nZOP3cyNrZbKG0ONR8PuTyPmD4Nn7+pHbmW+vZ48cE386Hzsz+6bxTYCmKorfTaXOrigxI4KE+vFvpFWfAha7yAd0WyqsSEADQnxkkbCmhiTvLzuxDWSo0dhPIFOyo6Xc+OUD5R0dkL5PWA+AVYID/2PWiDgpbzyQ09PJJ/Pv/Jved4Nn/72kZGR5538P7H/mQ/wOux8Jlw+sZPa4UXR86NbHz3PgMFvEMmiJprRsxYnO7zm8DmbK7rCSDv+r+dSX1/MHlnQTq4Uv1stVh8MmT8MO/8xXH9YHL+nn/g+M7qY3H+F23OOect8Q+tI+2b7v7ycPbqks8el6oNSn+4QVfiWpLcTYBlpcOlaLFWNZhvIoesO4qGUpE534oQaWUJRPuENAU2TLRRtPmdu1fHjZJNTwk7N573n33R/8C/Zqz369ERf7f3/4d1+2wd4+ttfkz1PAOUzN6kpXhQ932+//zwbBv8ykIZJJIsGaoyMViIkbPIOmjU/mR349EL223ntMHE/a5tDtQeD1n8Me/+508ESXj+23P/1gvjpVfYv09t2Nv9l//nUoQVtbLVYezjUeDQEZQ5kowhBU6bG9k9BtJ3Sigy2xVIb6fmu5jBlYCYETWBXVi1h0BVKQFhOs6W8E6eymnknzLk/70X/lvuDf8le7dGn5/lq7/8P7/bbPsDT3/6a7OnC5dPzDTjUXaE/fdXI2yP06DMOPd4V/MuQI8pFJ9b0b28MfHY5vv+i+K+X+H0X+T3n2Q9nIh/ORr+4KB9e1M/eLU6tl2oPd9R/2GH959vt/9zZ2CyMrconvu//9obwyVzkbftfPp/LHr2uj68WjP/Yafy0s48IvYGATrVEECzVkAjSHQkkd66gexI8UIuk/BESReuRaqOXHiz2KF0SdcLSRKo+xYItFiAYnwiYz+Mph3//2hYIeCmv/NDTc3vlXxF8w9/2AZ7+9tdkz//9Pyf9M/1w3+z7H1v+PU+c4D/UHe/58+7Vs//e3RwZAYD6N58YB/8mHF1UDy/Kh2/Kh5eyhxYz3yz0jy4OfLWQPHBN2neJ33M+9uFM5N329l3etvG1YvXhjurDYeO/3nb/9rb7047Khn7mbubocvKLG+Lu2e1vN/7XqX/PT94r1R7tcP72J/Qa5V2yeLcILzIKlZARyppo1tQdMDuVXMpiR6KfFDcJgJL2pC3xOKpLjKomor4ZMJ8nZh5u/moWCHgpr/zQ05N65V8RfMPf9gGe/vbXas9HBxY+OnD9iZ+Rkbf+oRHWzt56+ucfXhX8mzD2ff7snfypFf30be3MHe34svLXm5nRxdTBG8lvbiS/+Lf45/PCp1fZjy9E3p/Z9ifnjffsN+o/7Gj8tNP9z5Hmo+LUA/3smnxoJbX//2fvTdibOLNtYX7Sd+9JwNYsy7KkmiSBLamqVJo8ABm7ExLAsw02YGxGAwZPmmuQbAiQhBAgEAgzBOiQpNN9z/dXvmftV7i5OHHodPc55+uYR09SripVld6qWu/ea6+995fC+4Zn5l527nFn6ftt+l/egeeOZu4lIamH4wUunkfCO3XTDLbngx0LAbTYJKykGk3Q0stFTi4E5WKQgkuolIwSyxCEopM7iy+t8Xt+dSzWd/gXjcAaN2Vl07lz5+7du3f3xb+FhYWVTX/Xwuqf8DpfP3v27Isz4//Pnj17nW/97D6/7QLy+fyjR48uX7784MEDwzB+9sivs3L12X8/a14BzVf+XGMcVuPmypo1vvWr8cBTdzNzj3Nzj7PzT7Jz32YWn2aO31Emv44f/Lpj8mb75K0t+2+E914Vxr8SRq9wfZcCH531/cH0FL7rLD7P6j90zj9NnXmsTD+I7bkRmbqaPH0vnX/apf+w1fzzNlSoY3mZsQKHXnEFvmM+yNLV2Xq1it4biSIHt70ixvKcWgwmC21qCVwnCyhRwzny5anjh7rOe659t/+btr7Oa3/x4sVCoZB+8U+W5df51up9Vv/E1fusXqOq6oszp0+ePHnlypXV+7zmmt92AU+fPp2YmPD7/f39/Y8fPx4fH3/N072y2+qz/07WbNv+0Stw+cqfvzQOK0D5Swu/9MVfRc+pG9r0nfTMw8zsk9zCs1zxeWfhT5mFp+lTD5QTD+STD+InH8SO3N1y7O7mw7cjE7cje2+FB65y79c9xe9y5k89lR9yc0+Sx+/H9n2z5egNbeFxrvSnbuPHrfWftm1IkHhTMURYnQW05SC4DKplTqvyaV1QKzBFGciSGlSQUasZSErVlWCNAlipMnNSFzO6lDXCrzxML/+5xiisb/qXjsDLd+GXli9fvjw7O5tKpbq6utg+O3fuvH379pEjR/x+/+jo6OPHj/fv3/9LX19Zv/qHrGx6nYX33nvv9u3b+/bt8/v9586d++STT/x+fzgcvnTp0muahL/tAu7cuRONRtkVfvrpp+Vy+fDhw3fv3t25c6ff75+Zmblx48a77777qz9h9dl/J2tewcqf/XP1UPwSYr68fvW3VtasfTsOfKkevqGduJs6+SA19yw3/zS78DRd/i5Tep7OP0tWnmdLf0rNP5FPPmifvr9l+mH7iUftE3ej/Ve5dw1H9cdO48eu2cfqsbuxqW+2HP06Of8oV3neXftpe/0v22F7ok1HlRoZMb+7jELIOVOU0T8+xLoYM1oTAXrWM44SilCNaTEYz+MIKF5iiRlDyulCZr3G0sqN/Z+0sPZDxrZeu3atVqvdvXv3/v37Fy9e/OCDD/x+/7Fjx27evPnWW29dvnw5n8+/znFW/+7X+dbKPoZhLC0tsT/ffffdmzdvHjt27MyZM1evXs1kMiu7rbHw2y7g8ePHb731Fjvs559/zq7BNM0LFy7s2LHj3r17k5OTa5x0ZdPqs/9O1vwsXK6sXHsQXsbK1ctrfHdl2H92Yeh8bPwLpGMev5+aeZyZ/TYz92167klq4am28Exb+FOq/GOu9Dxd+i618Ew5/W381KP2Y/ej+25Juy765p+myt9nF55qx+/FD99pP/6NNvcoW37eVfm+W/+hewPFzYVktVGxDoXmynxKDycrIhMzUVkQGJgssT1ODTWVEqcUQ0qB9UFC5ZJEhVdReCmcqqID0s/+DLZyjVH42U07duyoVCqffvrp8vLygQMHVu9z+PDhc+fOXbx4sVgsbt++ffUOb7/9tmEYuq6v3vS7WrPGTVnZtLS0ND8/v3379h07dly6dOnChQts0xL9u3TpUnt7+8rOayysHtg1dn5l0wcffPD48eP+/v6V9QcPHrx169bdu3f37t27snLthd92AV999dXy8vL+/fsLhUKtVjt79qzf7+/s7Lx27dqFCxfK5fLaJ13Zuvrsv5M1K0C5emFlBP5cGHzls7JpNWi+vGZlt1cWVob9ZxeGPomNXIztvyIfvKFM3VKO3laP31VnHiZnHiVPP0nOPkvNfZeee56Ze55e/C6Z/07Nfyef/rbj4DfS+A3+oyX3/DO19F16+kFi6nb7oVupUw/T80+z+vddhWdZ9HPPGnzWFKAppTJ0CrXPpCaaCLJTmAhVkxWqG5LIc9AqFYNqoU0uIOE9UeI7FoMJVAxF+SWmavrZn8FWvvLLf/XPzz///Nq1a/l8/uzZs3fu3BkZGXn5K1NTUw8fPqzX64VC4caNG0tLSy9v7enpmZiYuHr1Knv6X9n0e/tzjZvys5uOHj368OFDtunw4cOPHj0qFAo/u+fqlavHdvU+v7RmYWHhiy++eHnrW2+9devWratXr6bT6ZfXr7H82y5g9+7dS0tLn332WT6fP3funK7r7BS6rr8mZcH2X33238ma1aDJ1qz8/Fdw8+U/2T4vw+XLyytHWL2wxmPg9/s/rm3eubS595Mtez/vGL8aP3A9MXVTnr4P0nPmSfLkY+XEY2X6sXLyiTLzOD7zbXzhO3XhmXz0XnTiljhwyf+uYZ9/qh67Gx//KjpwSTx+LzX/NK1/3zV0MbxBLnOywSdNNMVEX0yqv8SKg1DTDpHluTcabxA+In2zEFILgUQ+yNbHELVHLhSrtfybayxVKpWxsTE2Ovv3769UKvv27Xv69OmKyXn9+vVK5f+Sj507d+7zzz9nX5menn78+PErg3vu3LlisXiB/r2y6ff259oPGds6OzvLvHVG8926dcvv93/44Ye3b9+enJy8f//+nj17Xuc4q8f2db7F9lnNDzDL9+LFiytw9qtH+20XMDIywgJlsizfvHnz8OHDfr9/YmLi9u3b09PTN27cePvtt3/11H6/f/XZfydr1kbPl7Fy9TIbopcR8+XlNQZw7TsysBz90IzssMJDZyODFzYPfb5l7Er7gRsdh27FjoDNbJ+63XHobsfRBx0nH8WmH7XPPk2cetIx87j90J3w2HV+x3nf1O3YwVsdQ19Edn/KH7+rTd9Pnn6YGvpM2hCvcijfhL7vlAdaQldhZniynpqsL7HaqCSPznOpqpip8DKFkqi8PLV6B7AKmh6mlkm/sTPHrVu3yuUyG6Zqtfr111/Pz8/fuXPnnXfeYSvPnTv32WefvTyO169fX3HJd+/e/ejRo5e39vT0DA4O9vT0rKPnr4Ym2SN49erVc+fO7d27d2pq6ubNm8xXvXDhgmVZfr9/dnb2q6++6u7uXvt5/Vn4+NWvsB1UVb179+6hQ4dW9p+enr59+/Y777yze/fue/fuTU1NrWxaY+GVx+A1f/6tW7eKxeLIyIiu61evXk0kEiusq9/vP3/+/PLy8honXdm0+uy/kzU/i57st6+Gy9Vr2J4vg+bK8hoDuDLsP7ugVMSdpvSBIf7RED+uhT9eDg9cjI5cio5+ER3/Mjp+Vdr/VWTiZnTi68jkreihu9GjD6JH7kePPJBmHkXHb/AffuLbrjtHLkf6PhM//oTb91Vi37XYga8SvZ9JG2QTpeMRNaLqoUgZ0sMsI5O57UpVUkqQxL9ofMQnS7xS4NSyyIzNl9SgKGdHIfvfiJ6WZV27do0NEzMzS6XSjRs3VgbOsqwrV66s/NnT03Pz5s18Ps/WfPjhh/fv339568ryOnq+Jnzs2rWrXq9fuXLl8uXL8/PzgiDMzMxcuHBh69atfr9fEIQLFy6Ypvmzj+nLK1dGfmXh5a1rLL/11lsXLlx4Oax/4cIFFvH3+/2nT59eoWLXOMhvhu/x8fGLFy9evXr17NmzH3/8sd/vr9frK4i5Y8eOCxcunDx5cu1T/+zZV8bh335hNYCyn7waK1evYXuuIObKwtqDtvbtoA5D/McG/1aRe6/E/6Eq/NEQdtSEnXVh91mx7xNx8FNx9Etp+AvuwNfhfTfEA1+LB76R9t3iJ25zYze4jy+2vqU7O8+8+b7hf6vU8vHFaO8nkQ/Pch+f5zcgw92goBAF3Em/SZ05KyIjOhWiPmOLITSMQ5goJBfhoauGBGe/IsRR65NjbGkSNedRdn6N37PGQExMTDx9+nR8fHxiYuLJkyejo6OlUunmzZsrX6nVal9++eXKnww9i8UiW7Njx4519Hx5cF5ZXuOm/NM3vXLq18Tuf+Jl/PdewOqz/67WvAKg7LevxsrVa9ieK6DJFn516NZ+bF7ohYKJEv9eJbQ9H9y2GHi7EHynEHi3FHy/GvzADH1UD368HOi9GOz/PDB4OThyhRu8Ghq4Guj7ovXDs96ufLM28+Y7RttbhZY/nAt/XBPes/w7loMbFB3tPhAaoqg6IuxVpL0ndbQpRvpQFRXx2EqFypOoFUnVJdI5sRadJPmsoElc1pRSOroZr/F71h6LK1euVKtVy7IuXbrU09MzMzNz7969Dz74gH1rtQl55coVy7LY1pGRkadPn/7s8Vd/8Wd3+/deucZN+advWj2S//RTrH3A/94LWH323+caBqPst6/GytVr2J4MNN/Z9vZrDtraT4JaRep5rBiifsJ8ohTatti2Pd+2db6tZ97fM9+6baF1e963Pe99u+L7oNb60SetH59v23G+9aPzvo/Oe98xnep8kzLzZuLo/9pe9L1b59/WW94zWv9g+DcolZBcQv07SN+p5jFlEFHyZQmdj+IVIkYNQS5zapVL6hJSkijUrpSF9sUAE4EiEA8+VNBIPL/G71l7RAqFwrVr127evHnmzJmenp7h4eFvv/12enq6p6enr6/v7t27c3NzLx9B1/Xr16+/9957PT09i4uLd+7ceXnryvI6ev4XW38rI7+ysMYj8a/YtHLelYV/xVl+6ZgrJ11fWBmB1Vi5es3Kzn/Xwi/dBbZepaLvCGvrUqIkxAqh9nygfaEtVuBiC8GeBV/XXEvPnOftYkvPvKdnwb214N1WbXnHannX8LxrunrKjsTsxo5Tb7Qf/9+xQ//Peyb3Vgk7v11q2UB6eCRZpgwJGURVtIRHhboSRxqmULyMkqIZ6olMa7AzHPwq9ExxytcknhT572ohJBcgXVrj96w9LoODg48ePbp3797OnTvZnoZhPHjw4MKFCzdu3Pjyyy9ZBOny5cvnz5/v6enp7++/fv361atXL168+Pjx44WFBfatZ8+esYVr9O8m/bt27dorjv/aF/NvtnWNm/JP37R66P7pp1jjgJFI5L/3AlaffX3Nk7n+1XD5yprfNkprPAl+v18zqZU6+c0NH7oidqCIR3D3WaH/vDDyRXjfV5sPfN1+8Fb79qI3O+9OzrrUWUd61p5bsCnzzYm5TR2n3tg8/R+sddu2OffIVXnoS3lDbCGQQJxdyBiCgqZxPLzyipDSUX6ZVfZkyezMMoVrb0hqTUpU+ISOwqDw6ysSqinXwmoNGUeppUau28/+ql9q27DGwB05cqRUKp0+ffr9999fvdvOnTvn5+eLxeLExMTqretrVkagra3tZ+/Iv2LlyklfXvhXnOhnj/nySVeWf3bPf8VKTdNWTrq+8PIIvIKVr/z58p5/1/LaNzFdC2umkKqBbERMm2y+3vNS/6fhPV9GD97qOPpQPf00NfcsPfcsNfdEW3iK/556pB6+HT/4dfvgJfHDc4EPzrXtOu/becH3zqe+gaub934aG/ssvqEjH4wVYGmqKOLJZJsiRKClENaUqJVSGXlHMomZoIqvCgr1lVdMUTaEBRIOfQAAIABJREFUWD4YW0ChJsUStXqYPmvV95Rl+e8amvWd/4kjsPZz9s/a+ksX/Ppa93/kSn7p7P9l3MUaF7C+6RXEXPnzHxmZtZ+WtClplqih+RC0lb2fSEOfR8avbpn8uuPYnfjpx9rCs0zp+1z5+6z+587qD1nzp079h2z1h/TCn9TD99r3XgvvucIPXeYGLoV2XQq8f6ltzxdb+r7c3H9jywYgMTXRbBiYJT5WCHbMBxBkp/WwTPUwaM0y12mJXRYETBCElgU5j+7EcORZlRBLAqrqorZmlRCO4/6RkVr/7j84Ap2dnWs/bf/I1o6Ojl+9vH/k+L/63V89O8+vFdL81eOvvcOvnn19BzYCK6D55wLk2P/gv7VvSqpGJmeFH7gYHvg0sufLLQdvxA7dik/fVea+TeWfZYp/yhg/dtV+6lr6a8/SX3uqf87mnyfnvlNOPYlP3IgcvRc7dj828zix8EyeuhcZ/IrfcTl44Fr8wC0ZVUJYphALFuHPfCi2EEzkWV0lWKOsS3vWEHKmSGXu0elILgTjC21KkdcM6EOTBJ2ygW7xSmUt3vN3rob7Bx+U9a+vj8D6CLw8ApqmrY2e6Zo4+Gl0+PPNY1diEzcSUzeVY7fV0w+1xSeZ0nc568eepZ+21n7aVvmxs/g8U3yeLjxP7b8sHbwePXqnfeFZcvE7rfCdVv9LzvpLeu557MjDzaPX+V1fhvLPshuQSkQtM1FsCbxnUCkGE4tticUghdEl6lnEabrAStCTpQksR1oRufyaLmi6oFY5GR8BtezW7Arn9/u7u7tf/v3ry+sjsD4C6yPw20Zgbej0+/0jn0X3X4lNXpcP3VQPf60eu62dfpDJP+u0qEan9ZftlZ+2FX7syj/PLv4pfeZbZfTzyKG7iZNPUvnnmfIP2eqP2fr/6Tr3/3Zbf80ufq8cf9y+72a49wvO+nHbBpYvlCjxaMJhClqVSyy0JRYCccph14xw1hSyhpAmyoCpmlhXOPRBKnLJKkLzANAqumlSxElM6r9ie66bn7/tQVn/1voIrI/AKyPwq+i5/8vEoRvJIze1w19r07fTpx9mis9y1e879R+6C993lX7oXvgue+Zp6uQj5cSD+PDFyL5rHccfJs88y5SeZ6s/5io/ZJb/s7v2187Kn9PFH5JnnnQcuhsd+JJ/d6kNfY3UqpgyIyyrPVGA50656iHNEDrr4Z5auLsWztXCKvAxpJaCSiGksGbulNsODNXFZBXVleQKdPVK+deppWw2+8oorP+5PgLrI7A+An/XCPwqdKI67a3UybvZmfvZ/JPO4rMu/Yce/fuuyvPOxWeZhT9l556lTzxUj95NHL4b6z0XGbm0ZfLr+IkH6tyTdOFP6dLzrPVT1/n/3Gb8pav858zid+rM49jhO5HRL0MfLvvR1yi2EATRSe2MYnkuUUApz3gxqFa5FJSeQq4mdS2JiVJILQWUfCC+GMS3CENZrKnRooMadbBmR6/zq/6uYVrfeX0E1kdgfQReHoFgMPg6OHPqXmbmfmbxSVfpeU/+Wdfis9zi0+zso9TpR9rMY+3U4+TUrfaJG9Gxq5GBi5vHr3QcupWYvqfMPUkvPktXvs/Vf+o595/bK3/pyf+QOfNEnn7YfuibyPAX/Ed13walGIjl2xJ51DmOzQNG0XKDko6QwVngkqaoGaKC/hxBpRhQSyGlhEqgrCg9vHidPobYSN8sCYnCWlVCXv7BL4/F+vL6CKyPwPoIvOYIvCZ0+v3++W8780+7Zh/n5p50zj/rPP0odfKBNn1Pnb6vTN2OHfgquueLcP95YeCTLSOft++/Fjt0Uz52W5l5mMw/yxg/dJ396/baX7eVf+qa/047+Vg+/qBj//Vw3/ngH80WoCcrcgy/u4AWRixYRADKCi8htylWCCZKIU3nc6aoVMk9r4gs40gxBNUCgLKecUDhfOhliFx7OZPJvOZ4re+2PgLrI7A+An+vbnf2YfbU/cyJe+mjd5LT97VD3ygHv46PXWsf/2rL6OVo/wXx4zr/fjXQd27z6KXY/mvyoVvqibva6YfpxSfZyvddS3/ZWv4xV/wht/A8deJh7NA30b1fSrvOhd7TfRsSxVC8hNbt+C+ZnAorPYe8dWQfJYrBBHU3Uqti2pBSBvpoIkFTF5F0ZEKrpNbCaUOSizwqzxcFtSSujZirt65H4dffivURWB+BXx2BzZs3r0aPtddMfZWc/EqZuJqYuKHsvx4f/WLz4KVo38Xwrk/Ej5b596qB7fnWrjnv8Kcdey7FD15Xj3yjHf0GXeROP0gXnmVrf+6u/pBbeJZa+C514mH84NeRoc+EHUttb1d9FHM3RaqOjNJKchnmZ6KINpkkRUIsXtV5Dd2KwgqSOMVEiUuU+VQ9wtKKkrVwZinSY4XlPCcXeAXFltbqa7TGTw0Gg4lE4jekcv7qoK/vsD4C6yPw/9MRSKfT/0iOw8inseEL7UMXtgxeQGnO3iXh4xr/B4N7u9S2Nd/aOevNnPZ0znmHL3bsv6JMXUd0Hp9bqVP30+XvOvUfukrPs7NPtNPfqkfvxfZfi/Sd5/5g+rcVWzYkdUE1JdUIowpyhYonFagzOwrFox2xUuHThqDpoqbD9mTF8hRDStbCiikmKrxiiBlLylYFuRBSUG0knFoz12gN9FzftD4C6yOwPgL/xBF4fza8y4rutMIfWeL7Ff7tUnB7qW1bsW3rYmv2jDd72pueccfKqNGx59PY/i+VI1+njt5MH/k6deJuZuFJzvixZ/FZdvFZZuaROv1AnrzdvudKeNcn3Lu6b2vBuyFtQLFEoXO01mDKeRZJJzOTkFSHZj4D1SfZp5SpiX3KVAnUiGgAXxF9jHV+aw3evf/vYD7/iWO1fqj1EVgfgfUR+NsIfFgJ/7Ek/rEivF3i3ioGehb9bxV8nQstPQstiRJqd6CDBjSXkbHP4+NfyAevJo98nTp5J3vmQXbhSa74vHvxu875p5npB+rBWx2jVyMDn4sfLQffKvu2l1o2aLqUNCJKVUSBZCoj3yBAK0guImCFBapW+HgJzYpl6qwJTSjqeCIvkxrJoZhIzpS6LamnHkmZEbn8d1Off/vF60vrI7A+Ausj8I+PQMCPRPNCaPzSFqXQRhlAAqRB5VDaAKyh4hzaWUIvtO+yPH5JOXg1eexmZuZe9sTd9Pzj7PzT3OnH6ZMPk0fuKfuubxn8XNr5Cf++0ba10AL0VKv4plzmYyUuVggCHAsc9dSUNEPSqlzWFJJVAVlGhJvMIO3IB9Cio4Tge1IXU1U+bYhJXUpb0bQZpQP+errRPz4460dYH4H1EVgfgV8aATjTVdQwii+0yXl/HMIhxGzaF1GWM17mO/IBFEUqBOMlTqmK+79Up77Sjt1KT99On7qXyT/NzTxMT9/TDn0jH7gZG7kc7f+E31ELvlNt7Sl4d9ajGxL0NaUiJAgc5RILGaHjW8aUeupINGJVQqguHi+XUUIJ5y4BZNWq2FmTsiayMxUdHTuSOtoiMXr0l37V+vr1EVgfgfUR+JeOAP9WgNxoPl4IxeYDsfm29oW2F8oi+NmsUUcH3GgOfTvK/L6b2UM30oevp47fSp++n5l9lDl2Jzl5Q953pWP0UrT3E+l9M/S27t9e8b1XbdlhhDe8SF2XNER7pLQZRgF51JYXgINGmLVojxc5WKlgSNFfU9WltC7mDCkDmaeQpJhSypCoSCg6fDBsVcq/Mfj+Lx3W9YOvj8D6CPx7j0BrW6tcEWKFYKwY6sgH25mNmQ+iUVu5QVGyBSoyF5Qr8OgPPug5dE2buqad+CZ96k762C3twDV5/HKs/3x09znpgxr/ViWwreL/yPQlqqgNvwHiJNIhKRUxpYtpJLPzsEMhWqKew2RIEjYDFhMFPp4HtipFPgufHSL5pC6lKnwaqqZGxw6AcoX2L6278P/eD+r6r1sfgf9ZIxCM+ZMGzEHoLykrEv3ZoGdH+0sK8JDtSWEeFuzBSsKuozdSU1e1yavq8ZvaxDV59FK8//yWjyzxQ5N/3+A+NAIfGa2JKrq4x6uhDYiVo1kSwkFKhcoe01GSejgJPpRxqyG5wqVNxIXQl7hxQaEkpcCnDV4zBNUQVDjvAiRQFGWS6XJZXP5/1uiuX836CKyPwL/pCMRmeKUqaGZE0UW5irweWH4o+h6KlUKyDuCLFUMsfkPEKEtMZ/AKDJy8oh78Up24ouz5ItF7dvNHlvTHqvjHCr/LQuVioDAdRNaFDUk93BAe6ShyrDLu0ggn4bND5ongVBXdNCGeR8K7oOphxRAVU0zXpe5lMWtxmiXKpqCYvKKHUqaQMoSUgV5JSRROpvqhCDrxgbXaHf2b3sz1n7U+Ausj8F8yAtH9AQSxjbCqw/BUG+anEC+G4kW+PR+QdUExCT0LQea2y9UGwsJ8rAiJMt9RDB35KjlxWdnzaazvk/aPjMgfquLHS9LgZ1FypnlAp84n0OWYJ/SkBpmwNMn8RIm5ioiqyRXUBwFiVlnLI6Ry0vVJiiEmzXC2Fs5YYtoSFUPAlVU5pRpSq6GcJWo6ytY1OFPy9BlN2xDkkzpKNcVkTcxaCDpp1DIeVi0FxZjXjzJOVR5ADGMWTZ2yFtA8WeW7alLOklQ0o0c9ZsJ0SiEtcrEi15EPgMigDlANGVaRSxRCiYWAUgwkyqGEjkLOzIxP6nyXJXWiBB9s7XgFPUSVKoqW5iyxux7G5VUbfEX7fDA62xY+5eePtXBHWrgjXv5YS+iIJ3TY0zbp4g+5I8dawsdb+GNe8WRr9EwgOhvcPBvcvBiIV3iZ+krLFSFpYJZKlPjonL99PhieaQ2fag3P+CMzbeGZtva50JbZYOR0m3CspW3C1TLubNnrbBlzevfaveN275gdC3sd7lF7y5izdb+rbdLTNunx7Xd7Ru3eUad72OEatjuHbM5Bm72/ydHfbO9vsu/eZNv5pn33RvvuJtvuTfbeJnsfNjmGmpxDzfa+TfhzoNk+2OwYtjkGbY5+m2ug2T9iax1u9ozanCN21x6HY8DmGnY4hmz2oSbnsN097HQPOdxDNtfgJsfARlsvO4jNOWjHSfs2OQZwTNeQ3TVkdw7YHH3NOG8vXVIfLsDe12TbvdHe1+wcwLfcQzb/uL1twskd84hnfB2FUAKTrijnQ7EzfuGw2zPm8Iw6PPiNdteQzTmwyTWwyTnQ5By0eUadrmGbZ4+9dZ8zMOEMTrr4o+7IqZbomdbNc4H2+QDaxJZ5zQynrIhqSGqJU4tBpRRCfQZdlCsC2yRXBdUM0xvCIROEvY24X6jkkDQk1MSBc4YcEyLL8GeiFIoVA+j3pSNemigigKuUhSSFXlOmlLHCqiXJBiwX1Cqr8opO5RwrfNoMyxVOpnPRe8fH8iH4fPSQqAbOQt1xJM0MIzfawIJmollOHPUkIZWJl0LM7kmUuTg5p1TEBztna5GeerinHqbEa8SgITGEDSTKVQHDUhFUI5y1xKwFuweJMGZEM2E/JeD5hmKQQwpHrmtT15J7v4j3fhL9wOS2lXxdi+7GRVKsGPZWTVLrklaXMnUpXQ9rpoQjFDlUz0DZtlCizKu6mK5FSeqDoWOlhdglYdB0QbYEpSYmLTLgMNR48dlxUG2jTGNriLIlyroQKyHmw3CNjs8pJrqrJS0xZUI1xMoQQ1NUCOLgupDAmwj7FBfPFEcVYAhezwofK4XGvpIHL8Z31bd8bEZ3GOGP6uGOfJCETbi/yRpat7G7j75GiA7pKw3neBYaItDBTWVkQbzAxxZDLDKFGnRVEQElCisxWKTKnsFEOZCsclkAHIdLbwAxbliiysE+NdALVK2K8cVQfKFNKwU7DT6jh7IGjzuH1CYRDx+uCgr8FfU+npU8p5WDVOSJSxqiRsQCTRp8ykDoXy7xHXjyiMmFlOpFXikkXehel4AkK6RUOPTYg/JfSBpCxhK6l6RcPZy2pCS63QnJmkhtpETNENIW/gtFQUXEk5rnN88GpJOt/PEWYdoXPd0WPu2PnGnbPBuIzLRFZnybT/uip33h062b59ois/7Nc23t+aBsCLIpxOkNYZkFjacKfVDwSRSEOAoDkvKhKMTy3Oa5kDDta5t0tx5w+ifcoUPe0GEvd6wlMOVum3K3HnD5DriCk17uiI8/6gsd8fkPuL17CVlGnM4h4BdBWJOjrxmoN2i39zY1795o6yP8IrRy9DY5d29y7trIwMvRb7P1brLt3ti06w1b/0b3UJN3YKNvcJN7yO4cxMfR39y86012WHt/k22gyTXqcAza7H1NzoFmZ/8mZ3+TvX8T8HcIK5t3v4n9e5vcAzbnQLNroMneu6l510ZHv20FQ4Gq9AF6DtsxAey1+Sdd/ElvdK6tYyEUW0TT7c0zPv6wx78PE4l3r9O7x+nCeTc6BzbZ+zfZB5vco7bWA27/ARd3yCMc9UROeDvOtHbMtnYsBDoKIQAxgIC8M1KxyPlQYjGA6GgFUMIK32BWM6R0fTOq3liiaklABHqpEiho2zBPEgjXAkmxcy3KzBx6I4CteJPZMSuiXMIrmrIiWi2SWoogH7rKy4UAHmMD4KVWYBwkdU4zpaQJc0nVmbMJDQ3JaACRABeU5hEA/RS51cxIyooyJGUCQaUihPbB20ubkRTVoyAhNiK6aSuctsKqLtKVM1yGEwmM1qW0IWQtKWNKKUPU8F8sYLZgmEXYlLHCR24kh8537FyOvlPk3quEBi8AxQhxYIVhnquIiknYZwopS0xZYpImmASdBXBPRYExIGYUIh/CQfxqXYSjXcXQKbqoLYWVGtpNJso0qegYGXKFaQfm0ZqSYklKTVQNACuZQVBuxqucUpNSS5FUXUpbQsoM43XDL8VEyKoSx0ohav0rkcGHn6lUJXTEoEAQOl1WhI+t9h1GdOdSBHGnRUAn8LBIsykE8uFULZKshTeoVV5FXw042iizhDwiMVkWlEY/d3wtVRXlAhfPBwFACO03aixhxib1EgEzr5SDShlVQdUKh9bwYG3pgITOsUooWQ9jQEHWcnI+oJaCWYPvscRuS0oZAszJWjhlRhhuqhXEo0gCxdx/AV3q8gGlECDRFkaEnjBerXKYOc2GTIrNJzStAX8bNi8YEMwEaoVPQp2KDsyazmfqYtdZKbcsZmtixhIyNSENQxj9QRtDbAq4nTRLd+RDW+YD0TN+acYXOe3fMh9oX0BH0niFj1eITMkHkyVOowBazsSpYU3gfuO9Ih0Cnl3AehUUc4LdVGpQiutstEhBvK5jgQvP+IHRx33iCcD0lrlg9HSAmb2BKU9wyiscb+WPtvDHfKHDXv9Bj2evwzVocxJuEt4BNAk6Ha4hu43QEyYhDMNm95DDO2x39TXZd20kRGu2AdretPVudAzbbINN3mHYnv4R4CaQd9ebAN/dsDFhMA40YbcB2Jv2vibXQLN7sMk71OwcIusV6NkMVO3d5OlvahmyeYeaPUNN9t6Njv5mAneApnPQ7hpyAEz7mnDBsG1t3jF764QTxvtMqzTTGjndFp5tC017Q0fcwiG3f9zRus/lGrHBsKVTO4eanKPN7jFb6wGHdNyzZcYXn2tLzLfJC4GOeT9svSqUfXhUChxaw1Z4WBA6HgP0jsWURhQToWHSkJIGuy9CuhbuRDPbvwEi3D0CR9w+XdSscLa+haUmZ2uRrCUxe4egB2iCNrQVMWWFU6aUrIcVS5QrXKIQSBSCSV1IAdSkrAW1Hxw1wkeVbA6GIwjnkoGZKEHxkrYimfrmNNnOSTKi8eaT7cyeKPFYNDLdkTYJCnVqPgZFNoNLcndw/bD+VF1k3cySVTFdFbpYFcqqqBlSxhDTOsUwYKUSwpL1t/ti+x/18B8NPMZkKlIHMzhw+JPZ77IJr5ZQCWadVkfN9XgexdQ1zA1sKiL0gMHOyZVQyhDSppA04O3hwtibQverMdqgBAUZYRVmdMMupt3ITNZFtYxAN4NmxQR0ZpbCncvhzrqYqYVTuIMAbgxRWYiVuHiZS9UiWi0MR4Hi7zCtiqH2QqCjFJQJCT8yN+9cirA5Ml7gMAcvBJUXEAyPxERX9g2Uw94AFKVEg1UW0mUhw1SmJT5VFXO6mCxxcjEoFwNAVXj0mA2Ya9yRp3h/mddKfBZuPgmbDIlcYw69OTFX82qVz9UwtSZKfEoXempipyFoBpc2hawl5iyxBwZ/GOnzdIfkMp/WhZwpsWOyo7FOSoliMF4MymWYunIFRq4GloBcksYvpBmJap1ggEqYGMAlowY+jye4GFQrHDC0LmaWROq6x6ctmoQNMW0Jal1KwgcJa7VwsiYlWHgOUgR8YnkwKTQN4FGIV/j2YrAj36aUQim4/HxnTequI4EVlsLfvAPYxaohqrj9NErkACoWHg4WE8RDgB6lIpB6Lrh5NhBb5DoWQ7E8H1vktswFomcC0sk2kAaHW0KHvMFD3tAhr3/S5T3gcO+xe/qb7Ds3wqgcgPfNLFDnAECK4AmuLnAHm2zN2LOZLbuGnXDqd21q3r3J0dfs7Le5hxwu2IzYk3no7oEmZ99G+643QQL0brL1bmra9SZMzsFm16DNNWhzD9mco3bHCGxPxhvYd210DzR7YVTaHIObHP2b3MM2z6jdha80kz0LO5TxBo6hZu+Ywz/hChxyC9M+/nhL6Kg3dMwrnPK3HXFzRzzCEU/ooMs/4W4Zd7r32N2jdteIzbWn2bvfETgI2oQ74paOe9tP+5V8KFsVNRRhEBKGkNAFGHrk86asCNliYga1Fl+8dXSbWMVFOMv0UmmGmDWFDDoyAivZTIzpnBAW7rMVgTFY4jO62GlKnZbYvURASUBMRg184awl4ckHLoAcQzZKme+phbfWI1mL6DkznDLFlMFrJuAjZVHEgzBOMyOqGc6YIsIJZFVlzm7WrDA9QpJc5TIAPhxcNaTITPuW2fiWqXa8ESa67zKvHIYbjiYkyiG5zGm6mDFALDQC0MVQxkKpClwDLkPQDAFfN+BHM8MtUeI/qEVADhCTsLLA7FNYfxUhXuYyyxG1hhefeevEctB7R8Yj7PQXFijsBmACx9AzZwlpE+BAjiP56SUkMeKy62HZgsfNmvXS4IdZfFypiqmqkCxxSRSEg6WVWopoS+HsUnjr2XDPkpRdkmAFmxKGUcf4s5eRJjxILTECZeBGvMh3FFD0PVEGGHbWpK56NFvb0r2cQEfhElzVriUpVgwqBhiDRAVF5jakYAQJWlXIAIOEZAUImMEaxgfxcpFLlYV0VVCIJ2I2MJwFes/pOYNBmyoLWolPUmcOzE5FPlbk4kU+AZcf3eHprhDGlfhOU+wyhazOqwYHAxtuO68aNMmQh0tBMSGnc9jNJIdIh3qLkIWTi4F4oU2uBORKABRSlU2kLOkKQS3GNmACRzE9VjUqlKzyWRMkMRMSpAwe748pqLUwuQ9Er7B7ZgjMUkBR/ZqER1wn2z4fSBTalFKAWjnx9NTCvo6BG0KhP6UqapakmoJWE7N1KVeXMiZeWroejoAeDaCyppg2Yf9jU5WHy1DhiLUBFjObHTY+1QyMgzDimYPfPhcSp1uBmFNe/3536z6X/4C7dZ/bPWZ3jdl9ex3+PXbPAPGYcKJBCDoHYeU1k8Ho6NsIsAMgNsN+JBayeefGpo/etO9ucg7Y7b2gJuHsg4u0r7jYrkG7a6DJM9Tk6ttk++g/mj96w7Zzox3I2+webPYMAz2dQ/DinaP42Iea8Blssu8my3TE4Ri22Qc2eYdtLfg0+4abvIOwQ11kctr7mx2DzZ59zsBhT+ioJ3jIGZhytk26ApOe0OGW0LEW/yE3TOwj3sCkMzjpDB10BQ54/Pi4feNOz157y7jdf9DFHfOKp3zt88SOmUKyJsHcI1IeHnER7Bt0ypYEvh63BnKRJNHcIGfIFSXTjHy9CscKjEFMAvAF169Z4ZQVztYiObxdkXRNwgRvYlaOl0MaHuMGSSpX8P4ndSFbk7I12E0NF7sqpYywWuK0EiZ+oGoF9leuFoatBHCHG4vjkFerkqWchWNErCI8IUy9aVPqrMFngu+oiykrEp3paF9IxBfk2PEYAzhGX9KphQygmVd1LmXwYPnxCsPghVlXE7rOSl11PlXj1ZqYMHnV4JMmn7Lgn6lVEGVkOTIbhSZ4iitQlg0fr3Cywas0eSR1RpUyqgSWPjMncYWG2FUPd9UjSSMiIxFcyNWwpptekzS95sxKha9WxcgkjbAMWACUw19ecfCZM15C8wtozJkOqSIkLUmrSSkTnmUafIigWULKQhApbUHPniSQBe+B4BLAOlaAIJS5/7EilyhzGUNEJzfQpkQekvkMtlrn4qVAvAxqVcXUK0ItrxkRtQKlZ5fJd5kIleQsKWmBqlMsmIrwQajPsFwGmRgvwUuF4V1GAAcUp87nLAANQk8V8LLxCgczuBhSCqFEPhQrBOQKCEe5wqkUkFHLHE0+aFGfMkFpM9KdebgJsNqCZgpZ8BeiRiWZG33nyzy+W+aQJVUBB08xNdIlNACdapeQoQ4bmyYcpYJZDsyOEc6YkYwppnVeLodixWBHCXMOiO2SkLGiuEOmKBu8TD8Kbxe1WU4UqadTMZDWAX+dNSlTo51fsKvQIdC8JBu8Yom5JbF7SehcCidNuAAyMVxZU+iyhK11KQNODXhNQST2KMM3wauCp0SCJVJFMYFYgds8Gwifao2eDgjTvuCUxzfucA1vcvRtdI/YPUQCtux1efc6W/c5Qgdd3KTbPWIHnLHPgM2++03brjccfRtdw01OhFmAevj0wVtn4SNywJvtvc3Nuzbaeht+NOJLCC7BArX3gda0keFp27XRtnuTY8jmHXF4h5u9QzZwowPNTgo6OQGUTXDt6URA5MFmW99Ge99G10CTb8TuG7H5hps9g022viagJ4WV3CP2lgPO4JEWcbpFPOZtm3T69jsRMdvn9E+62w6526Zc/NGW4CF34KCTn3RBtGJ8AAAgAElEQVQFDrqDU97ApKf1AAJrvn1O/0EXP+1rX8DLECtzss4nDF42BRmTNAwTPMMlrtOUumrhLPwMhAS76lInIpCiZvJJ8pw0Q8yBUOPlalCuBBNleDnxQgBVwOvh9HIkV8Pd71kO9yzBPUSuHQwcRE3h1pR5iA3Jv37hgIO9+RtrSeGaBpLiwYBjBLqMHk54daakmGKyLqkWqQYBDSG0tqWgRxLOUIQMMSmN0ApAH2c0w1tOxWPVlGxoSl6VT8nEJzIuVUriR0lJoCeMPrKBwFdotbBaD6eWIp1nw11LUmYJ8w34RJNTDS5l8jkLRjHQE5SuGM+DQyA0wFvGCEegSV1K1jCSmJMoJkPJ3yFmJMIaLQHL0qaQISxDBNhEEDhjCt1L4WyNGqNRWJVZ38BcMM6wmZjhz2IzMmmG4oVQYrENEeAqx2ZHwB/mKlxwZy0M+qXExyuhWCWUqIQQGa5L25YjXTVJqwrt8wHsT93XiYUgE5vQgyVuxoohTRc6KaAtEwENrxEjwGOysWB1Jcr8BhbSUstCtmHoYRbFbIw9AAcMfZiYiWKCZCQbYYYIqKtErjeC5sAypHLKQM+QYggZXYCiHi2LYQ9nTUEph+Lwu8FAES4LiEH97QOelIKYuErZFFRLyNXFlIWZH04EpZPiUaOAVYJsb8ZsJioITGGywoiH4gVWxITyR3GbBaUKTqenHtlWjyR1uO3oTZ8PxBaolECJU8u8VhHUEt9VD6dMQdVBEikV1DZVirxc4lTMt+T+IyyGI9NlSAr0XzTT0ODC3jEbFkfKFFUd4Ii514ROoKsmbUWEKkJUAz3BxGE1JjrCUw1vI+iwWJ6LnGnjj7dwhz2Bgy7ffodvn9M9anP2b3T0b3TBI3Z6RhFFaZvwtu538Ifd3JS7ddzlQijc5gKu2Ry733D2vuEa3OQdtXlHQTJSaGhj005QmYC5QXCUAErCU8JWICYozheM5Itv0Vf6mhzDiML7Rh2+IZurr8k91OwaBPsJNBy042i9AEeGzv8XYYqdHe5hh3PI7oTf7WjZY/eMNLtGmlx7bb4JZ9ukxz/hdu+xuUeanYObXEPN7mGbb9zZNuEOHfa2HXT7DzgDB92BSU9gCmuCU962CcSLgoc84Rl/bAHMEnt4iPFELFUFG4POhhkznLXCnfVwF6iVcM9ytGs50lnHJpomhVw92rkU7VwKpwk1lEpILgXlUiCRD8pViDE0U+xeinQvRTqXGmChGXz3UnjrchQoYMFiStei6dpmOOCEaywkxTx3mIEsOvQipE6BJsJQ8ANkcFnh5JKUWsYsTmXPhEQpqJSCiKlWQfall6MMWcgfB8qwwO+WIx2JgqbUcmpVS86rDG6wJzWDYHEqoE+RkglBgMKrYyCLqyWrmSG+qofkSjCpc501KVkNkUokjJ49VFkjXuUZF4lAdhUBiUQxmKxwXZaYNbgMaRYVOFVgTpkdjRMBggk96H3MABNgAKVNEZoEcHoAEFUnL54YVYSpyZ0lSxkKAYaSyB3PB5RSMF4JyZD6IOBMYRiyZ5dAzgDsYFZDA6DpvGbwoHShpESqJHmxuDaGNsQkEFjTGWVyGjLwS5h91jgv6DUDbzoesIqwgamcZFiCoe46jFsGxsTvYOpDBqcZwcQLhgXLGqasCE4PeTyfNCVNl1B/vojQW6xIDePouVEBPWKGTEulzIMlYDegQvFEMr9ZyjyOVqXqojgIVA5waUEq8xmTTxsImjOaNV7iOgpgWvHLG/8FP62Sy4xbpbPjNJCUxgVr4nmoqbYuRXrqsOzkSkgt8/HFtvhim1wCw9JpSd1WGARWDYFITJ4olc+lyjxrI4q5mgx+Rhghzd+gUABxDmy+AXEOuxVvAlGu7EllRQDQHiptCl2YG8MI81GJfnrKJbSKKtNEavBaTdSqXDwfkE63cse8wUMe334wfa4RG+zKIZtr2O4esbeOO7iDbumQVzrkFaY8YEKnPMGDTv9+u3uUiMVGsBshb7CTBKmNoDnph5p2vdncS4F4EjCBiByy2fqbbMx/p/gS3PzeTQxqm3e9gcjPQJNzxOYcsXmHbK7eJsduGJXuwQYsIoYOZgC6KBt9yHQlO5esWhfC607HkM0x3OzaY8c0MLjJNdrs3edsPejxjjt94y7fXqdvj83Rv9HRu8k94mgZc/rGHK37Xa0HXK0TrsCUG/G0E63CtI877PUfcPkPurkj3siMv2MB9k4SJhWCquxly5hiFwxGkisRQdkF21NQa2JyCc44iQSFzhqIy9xyJH02otUBr6kKrxSDSQqHshIQQCJLzJwD+Zi0IszoYzEcAFBFiOeDciGk6cBQxIWIXVWpxHiizIG2M8MpQ8wYaHJDfjcENIyThYiFPFaE++n9B7ZCkwe+EgYEnjQxVQvL5HvR+4U4NZACFh+fmFMVM6dZaa2Y1I4psONOatmZVHY2nTmdggaLNC2xPLimRBmgoFThICPyQ+YehcIFRQ8q1YBSCSZBbpBVTm6+UoWRm9Dh4Gu1cEOHUAgyIUF3TeyuCSCLTQGwC16CeAbovRBHasA9KqwLSiGogAcLsbgWIzooOMF116UkdbtIkMhMpSgL6R9g9hJkwdcEaJZRxqirLuFuVrncstR5Vuw6K+bqQm5JTJns4nHLEMeHNSYmLRa4fsF4UnUkevtgLcGsJsdco0B01gKxk9LhZBNJCqCAi1mFiYYaS4iYl0MKJPE0uLBpQSWoFSlB8NQwEkFMEJhimiIjlkxrVn4J2ERuCIhq6DlIz0QsA9OvIm5DVUVkHVQLPRaY/ZgjwKJ74ATyHGWCgg5P6VxW50jSRDMY+eDMdGfiA0YAQbVQCmVrQroGl0etgXdnJ2Vzw4uJC48gkvFJgwLpUiEI2Uo+kChiYk8jzZ+4cwoLoPIKDGRw/GxuZ4JQBIsQVSC21wqDy6+hQwkNukQcELgLlB6gI2BmJjqV2PQg+F+i2FgMkR2ZceGKgYvPLEVSVbQvjS0Ew6f83JEW/wF3y7jLNQzQpI/Nu9fh3w8GMHzMKx72CIc8wmGvQMH3wITDN8YMNwaa5MITorFoOymEmIXYDAkRhdFJdGl3gaBsdgw3N1Nw3N7bcO2bdr3ZtPMN26437b1vOPro0/8mqIAhhONtuxFBsg+QbJNpoShgxexQpklyDTlaRx2+EfCnwGimUqKdycLd5Ohvgim9x+kdd3nHXb4xh2+PzTsCk9Y90uwZtbtHbK37XL79zsCUW5huCc/6pTP+8EwrWeXuwKQ7dNQbPdPWvkjouRQh200gYAITlYXyjOLaOmJBXRBXkLuANDnQTUoV7BP40KVI+mw0uxzpWYqoRU6hVrKIMQIcxUQFwju1BocjxaJGL2IpgIYKwgOJxSALUqVrYAYAQGaDXQUcWJFOhIyk7prYsxTJWPDZk8RfaVaE8VfMe2WiKHp6SRhQk5SaBCUj0bXAX4PLGJxqSAmKyqZNIXEioVYyqaWuVFlLzySzC6mc0Z0zunKVzmwpl83n0rOadkJVilwCEeAAeEYDkwp7X0jXBVNOLXPpKlCD0bhM3sjMGjjFVT7NhN6kasoYiABnDC5rCTmLsZlSz3JUqxEzQJcng9uFuDtlQkdIplJIKYYU2JtcvBSCChsSCC6FSQXoSVJ2mB0N5Qz4DVgkZAhjJfFyMIPkCqIaKYPPLYnZs2KqBkY7UyMSstYIAqs1xIFx42qUWklB5obt2UBk4DJMaSLuVFNIGzziaaDpxM4V/SmbBqpiRyG4QakESeIuwfyEwdhIPQLYlXnE2UuhhiBAFzAl1ohJYULTxmMnKhWYToilwPsA0mmGlDUBRuzJQJSQuSqgwMHjMncGSi4zgntPig3EmhYCsYVAusp318NblyLdNSlrcMkK6eEZ40u+OYJ6SCGABBqCDygeuGQN/g6i9syqpWIlDZlrRYQ7T2Z5jBhbtcyphYCcD8gF+sAMpFtC35XLiMHFGaNcAlDi+qnbKOgCNsFURGSvkoCfATRGn9gTXBs9FnIhoJYClDjQwFygfxkaGqUidJkSxAwFXi6Bvkgt0ztviPECpFGb5wLcUa9/v8u71+GFGhzQ6R5xePY4oACd8vBHWwRImlr4I97gpDt40BWYAO64BiHAdFBQCE50P7xyex/caqYzR3AcYEdC+r4mW98m10CzZ5ik70MwKpt2v2En1hKwCPtxo713o233m3bwp286+t9wDLxh79sIEOxrbv4YInywnITRK0SqrRfhe/YndFR9OAhkRsS6UryIVEpMTk8srXvE4R5zuvY6fOOO1jG7H6EwsA1uGN023z5nYBJWZ3SubUsh0F4MRs74hOMe7ohbON4invRtmQ8gAlAhy2g5zN6WZE0iEwnxw0QZodIUvfkUVkaAGG4Wic8TRZ4JD7V6JAV3HpymWgWhhm8tR4GbiJ9Ay51aijIzhL0UpH4n2R9FnAFGFPjWLEFD1EhkXEGOVFDdDDpJokexZmjaNCuikbMPXDbEzqUoNhGwktcvMPmHaggpk+9eAgXUaQopkK1QgyK4jwNKyoySquZSJS1bynae3d51dnv3J291X3i7s9aVK2Uzs6l0VcjqgkoGNdMJUSj8hXiTVMnpipgq85CykIK18cwjEQBmgVLmNINPIQaLpzpnij01MQvimMtQIKuhVSC0kquQiylVvtPke2qgX2FBQ+iOWA2M6EIAUF4NKHpAxWERU2JOOsLRZgSyrSLzVhH6i6HYB2I4LGIGzC0jGTJXE7U65KIaxejA1eJ95JOMRIZdEs4thTNkFMchxQFvkIQ9TgpLMpAB6w0RPmxbDapViL5z9QhieiZlTBC9FisGNySNoKJDrJ+gokophPbB08HeRJAd5EJDr8NIhBrceebXM+Fuo8hImVNoNkOwmAJqnQZiUKka6GTVakw4nRai7TmwgVLKjKTqkSSE+wKlePJKKRCbb2mfbekyhR48HI3IfkLnkzgO6AKK9eNnq0SaIMX+xQzJJnzmHWA3kAkoskLSB6kBZyQlI6aVV0ohGSgchIDpBQOC4WOMMt0whCCQ8oTYEaZNJsoDAwv40yBOAKWrYUYVMIVCmocXEkjaGJMgCxAxpSfbBKSuIIsG6AmrXJB1UakhHSVW5NoXgtKpVtB8B1wtYw7vHod71OEcsnlGHS1jLt8+V+CghzvSwh/3QdlDEnr/Pod/rNm31+YecUBOtBsfEgM17EeoKUE4NntGmlpGbL4Ru2eo2T7U5BiGU+/pb2odtvtH7S34s8kx1Ozai5wlMlc3Ofr/d/Pu/9W86z9su/7D3vvGxo//w9G7EUTnEAxD28Amx2Czc4gd30nJRYi/4zNEXvwu5vi/2bTrTew5AiPXNQLe073H0bLX5RtzQQDPUqRokvDvdbSNOQLjrrZxd+uYq3XM0Tpu9x9wBKbc0klfRz4Ee0QXNs/7o7P+6Bl/dLZtM6ATrFGiyifrUvpsFDkhNXi7jelZJ6wEaU6pPpArwfuhXDViHklfDOrNhPS4ewkWK6Kr5KwpNUlbpoiNAbc6fXYzLDKw8zy8QpJGQoNMhgwz2RBIJOFwVw34srUu9SyFwbcuST11hKqYDcHoJqQSNSLCYmdd2roUyRHFlNShgUtZQtqCwAOUXzlEGkl6GsltZ1Zq/GhcOa2qs8lUMZsxO3O1ns76tq6lbZ2Vrlw+o9ToASPunt5ckliSspBmFyJVIbpE3goyAAHTOAVeBygKYCTKhVAcJd1CxB6Sq1thfCKMa3zXFFMgf2H1y6RpgR8G7ZGQMblOCxCPJueWxDhNXAko3VAcOBNQqshGJwVLCI4v9QpiKjGFpKCo/UGYmDIQR2FOWxqyB0h3EpVQvIokMQqQwB7Cq2dAV59gINgIghGrVgwqxTa1FITuG2YmSAkWyCXCh1ElkkI+igZWR+hcApI22M4Kh75GgBvoP+nJgEwMjwK58zxE7/gA7ND+iCZD0BAUMGHeKz03vFoOycVgnDRTBCt8BpMDU2BFmCQoa0W21sNdCL01glGpZTzi4AHKoa5lSS0GlEKrVg50UfQfUR1kWfBwxpej4H3Iqu1alhAfJKlTFjE+XB50l2yCalw/5rR4MfAiPwwUDIsygS1lZiYh5sosB86B/VIwsISPZTFOtaJTpK7PWSKm1jpCOgxk44uBxEJbiua9LGwcyFehwy/zapFj8ghcGBm2WWQEiI2WzpiuMJ2CKafEPjxGQFtuy2xAOOELHfL49zt9+1zI0dyD/EvnYLN7xOHdC1rQP+GGbumwN3SopW3C7dvn8u6xeUaa3MM2JFyydMzdlIsJ7rKJNPM2JPOM2N1Dzb4Re+uoo2XE7oTiHSlAzt2bWoZswTEXZEnDze69DvsgvmXvayZe8g3X0Bu23W/Ye9909L9JR0CCpnMAkXTb4CbQoLhCEAJMoo/QE9m2jt5m205AOXTyAzbXiN095nSPOb37nC0HnG0HPW0T+Hj2kn5z2I7kzgFbK4XmW/e4Wvd6W/a4Avsd/JRDPOaRpltj88j4YpUVO+BPcO0LoS1zgViBo0gmCbYtMbkkddURAk5CNYGpmoxBEuGSToheadxHJk6kXC8KMZmY7EFZ1iIpCw/ni/xOIrxIdw3RUp2sGEgvYSGSi4M2X/EKB9AkfShADeALHjBrwJHsrIe7l6Lbz0ahbiYbouEaU9AccgtI65H9nAZ1KPYshbtwIjFXZwoeZCdr8NxBoSKyjxdeSFuRpBWJzcQVPZ1a2pq2etIL6e6a0FMH8ZoGVSqpdYJyYqUaJ2W5p5RgiqwhvOkgCpF7UmOKLnrOK0K8ysUqSDDN6EKKdJoyYi+wQJUKbIsG/pJihDxrXBUYALK0aKoDK4VZrU5vkNVQ2oLHpBwqpG9Cvo5MU/LPQmwkGSfLFLh0QNwOFvPQTClrSd1Lka56WDMQHVGhQGqLF6n4cZFL6VJKlzRkeEuKzuFJIHZFq4oy5GshOKBgTjFNpil4mzShjQU+VhA5BzVMyg0V5qfQtSxlIL8n6rLMbWgkd5dIxMSMRFKTIc8HLC9QiWEKqZFoDY1Io6QIaFMAQcpAHiv7kWzIkNhUEUmvA7cClHxNguFpEPkIQwD3BjOJIaqY5BFxYoEU5NcjiwDGo1wKquVQssKpFR7CY4Kw7mV4LjkSSWQtxNTIfKbCU+Q+kwK2Ud2PJflAqwwDAW548gUP3fgWiz5RS1H2GiDGhUkCfHwSycI4XddSuHNJ2nouopGEE/rTPHz/DOZqTH1KOdRdlzoN9MjLUgSAtKVkaBtSN6Lt0AYyLRubwVj6IIJahWBs3t9+xs9yh4KTEDO2jDsppR3Qyew7zx6Yoi1jUPP497t94y7vHvjynjGnY6jhicNghNCy2dZw3jfZezd6hpq8w3aoOBtGqIPpljzDToqSIwEJcfbdG53DCIV79zrb9jhahm2OPiQXOQZIvzkIKZJryO4esnuHKcMdW8nOZVH7fmjggZL4L4LvKzJS5sK7h5tbkI3u8h/0BFEowMcd8QUPIfLjG3e5R4CemCcGm5FBP2R3DTrcI47AAYdw2B2d8W+ZC0K4hgQeRLRZsRz2CIF3Jg1jAhIILmmJ285GUyaE3wzLFJauU4um6ywgzsh0iiMXQ7EFOJKkB4JmiOWSM/4R2ETyMgYTlDwOQhMvLct7eREPgSzfgESfuUEqdVpUCHBJvUgReQtvOwXo8R4iuIS0y4hmQv2OWL8FHX66FiF9jwgpC1L48Nzil1YFBJRIOwnhnSF0Apr5LUfb43kludyl1btTpaxS5XKW2FUH2sIAwitG/cMR+EW8i3qJ4/pJ9o/QGQ2jALEkPF/M5WS7wIIB2UWmaNYAEhHWAF6zJiwDaP6KSC2Fw0cyGLxElDiE+D4ly+B9rHKJKpeqgZ1MWZRZRJncrAwSuYzgxxgsQEpFrhhbj3RVOiaNAN4gxJ1K4DrB7yHcTZXeqnwi3xbPIw4s6+jDlqNPz1IYNHeFwtFlxIGJ0UZKNwWjGhlTjdAZuRRUCAmpFrKFOHACAsqwTMk+gJEqQBy15WEnl7kkZKVACpKeNRhAwnhRrUiagW5FKRNSXqYKavwMJuKBsAmqNCahp+IOsLpZQSe1CrFV1oAz3lMTu0B6kjFL/0UiYx2aWAoIUmyaCoZCElQkRpKyM5PlkKYjwxI5djQ9gspFrA0VRlTS2TXozhJS9Vko/wVdQv4+NKQNQSX7mQnK0CJWi0zXQogJ8kmWBDuR3hmMFOZq0utqkLxEumthZKNSME4pc3IJYSVWRaIhlWBFWJlSRMfkj+wjmj+I52rQvi+STZFc0LEQ3DzbFp5BBj13FCVIIGbc7/KOOd0jiLBDuzNia9nr9IzYnUMvYujDcNXh148gXN68Cxp4FpNp3r2RJbkjJxJJ6JtcpJxn6UNIkYRpyURFhJukqCcN0ybbEMzY1lGbe6gJGUdIqUQSETTwqDyCSJR7sMnZv8neuwlIvZuOQxVAXqRgUq49wSiLVrGETt9QU2CP3b/f5Z/0BA57ucMt/NFW/mhrgDJNMUkQf+ocsKEKCdmz7hG7b5+LO+KLzgXbF4Lt8wHU56Z6YMyoZEksLM8vSa8faOWqyIxHCiWLsBDrYSI0o2nKEGfxGbByVV6G90NRTSbarTQo/nQd6NaASKLmWZGXnCUxxRJ5jng2oD+hwmP0JMOrwHmJKCdlCDPEiFusIsWuG+8zPHfNDHctd2TrmzNWOGeJ8RJIJIooQviRsUSFTLyMyTJwYB3j6UWEE/GZ0KSUM7hOk+84EUtUNbWWU/JJSj/lkkRNYkDIBVYpts6C+7g2hCihi0xbkXQ9qtYkqO5IpIhJAmUlkGFJcSRK1ybjndHEpFon97SCCC1CMZaIHE0Ymw23DK8zZSdDyk5R6CRl9KfpajstmrpeaKQgQaeXhZEY9LqR0B2iV4R6VFY5iQxtWKAwvJgUIZRF8kIYMfEybEm5EICQphCSdRhbndAIQkmG0SZtfKKAaFUSOUUsZxJZAxQK5hJlsuJrENJA1FmD6jZhAPdZNiAERfkgc1PiJW4Do2k0UkKlqwgQKcDKBgXDhESszmjSCOfI9FPA0YpyWWQ546SKIkOV+FelHGpM4BZ2oPpJkOn01KXtS5FOExHPLKSgYHNYmkeiymqlNKxCFppXEX4BKamWOQ20LqlVKSoHD8KEpBm0FGrVIBrAIkLMHWa6VCZuYGE1htcrszdmyBeyW7gJeeJGmYSgghkVlHwN48AMcCSZvEi7TFFuiVpFk9EMkkzg42OWZkUQdNxv5gdRJSoqMkLJVDk4RHhYGyIEmnhxSSDF+faFIDLZzwSip9siJIznj/naDnp8+5zeMUfLnibfnqbWvTYkeu+1u4ebmBaShZIc/Y2gTcO+G0XgxT5E5ZT6IB6y7UKKESur4R6mfErm4yMiRJJ4Cu/g631N9t0bnX1NbmRe2l0UCGpEyZFbaYMJjOg/bFK4/JT0yVRNjZxLMj9XIkgsv9450OwZgbmKRKMRG2TwJDPyT7j9Eyh60jKGIkmksQdYOwftnhFnyx5kAXj22n37Hdwx7+aFIHPVE0UeGVkYcOAR/AN6r1hljRjqbFGZIuLWk/Taq1Y4czaaXIpAgo7EQdwjuCMoOAZfG3aiTq430XyKhSAelHDkJ5IkCPl5eHUNMYPHQ6TKMlH4cSbUMFAXkuiHmV0rtS2osU0wXkRWMURpVN+IjCyYqCzxPGkggYL8ZTiVsO/qLzhH+JiIugCXQe0BlSiJCOlGwpFI+MSWyIHNHYVEbFGOzcRUnYNAitXbJXRmzxgLzCJjBWEWQjqLiqUhMg7BH1PCoPYa895KZG0QwJGEhoxislWZSd4wz3UR8k8LFgYNDviEhpEO0R6IqRipuDobtK8EuRgkgy8fnwkl8R4lygIRfRAqpGqIAiWXIsgrJ/OfPDYqs0TadUaesmFESLAEd5CFoWQKZrxQ2hNFU+La82jXAWcUbiXl/oPwYefFJKHqMMgoR4DuDoMdwgokT5Y4VBoqUK0i5BpRngOKCZnIK0dEiBwESiVqHBQJ/8R1UrYlkc1UOIClqSK/k7LNEEyHNEyAroJiQZrOd9fgVqsstELBxKzBIQUTAU1kaJB+qGGormAcW6C7CCIGR2BOAf0MlUrVAbUp0YKcBTyU4CJJK0qxPDjpGKAXzEPjmMhppZgDqi6FUOOjCGojtRRRUdcDX4EwnhLn5QqXRfIvwmhMZgHhhY6iUCmU4EPBU8pAwPXHSqCr4RC9oE5QK7pRf4HecEpbAmtskifIvAY6MuVihtoXQyylvX0+JJ1qFadb+aPwaoOTbn7KGTpg5w+6QhMu/7g9MOH07kVBDQY6ziFYoJ4RFHBr2etyjzmce4BEiHqjoFGzfTdS15GeBAGQ3Tlqt68o5Bvp8DY7oZ57EMny7l6YnKx+B+MrYT/2Uvh+sMlJVZQIMRvRfGI5YcmyhUbhD0JeitpvbCXo94053HsA64gXjTk8Y3YUnUOepcsz6qDkKDvsTZADTZ5Rm++Aq+WA03/IJcz4OuC7oc5WRx5tvJiHqOr05iOiGI7lQx0wS0HDQVnJwpIW49zFTD3SuRxJkdKIJlREe0lMghYLjdeeIBhRDh2xILUuJpE8g5xxEKBVRG+hZ6K4bQbxB9xWxMopPJWoApJYaTW43nDGwyhtA34tqJbRkgxeagl6DFaqg2EBs7woF47Y8IWAUgoh3k2MOasdA8O2JsYNAnpI7uFFqYYkHo1unotLxyPR6c30hPOqEdRMJCYxEGeXAQsRjzSPKykFmGgvUeW15QhqylEpDSabZ9Y0cYtQ6SfLAY2iyqoB0qy7ThpVVIEAe8DmEpITSBS/RYUqVk1KpdofSYOXi4GOeZ+cb+upS9uWYF9DCIUSmeBJiDXGbwGEEbKjOCRC23h3VAgQw4gtg9ZgghYkU2KZ6FqWIU22C80HFU4thuQCwt2JIrQu7MgsPZLt3FEItufbmNyV+TSSkcsAAAkKSURBVIsr0IESBEiBFVKw9+F6MoUMZAYN0wp5AXIhgHJIushqy4tKOYTEqRp8cxaBAQwVghCvFQJKMaiiREgwAbciABGSjkpW6UooXQnmECdBM/eeOpgaJKtVkOaoILNVIgaTotIQZFHeURVBuk74KRjxRqiRHDEQ+RS6oeegYc8yQhq4xnifBkqGKL0XiEnMRUM5zxQnTMy0QsRgHwAWrBXmFr04vhRHvY9QwkRJQWKL8cjiMTLCSaRwoMonkjTIraNIEYd6ekhV4pkJyWoxYHDJOmDKXprtSROK4ol/S8pk8y2zShiVxngDYjxQ0Iyq1fHxRb59LhQ+5Y+cCognWqWTreIJhOCRYHPQE5r0IKfokDs45WybsPsP2FsPuDx7bL4xJwXo7b4xp2cYmiTGbLLCmg5SLDkHbS5y8+0DKFjH8I7pmdjOyBfq2+Ts3egEXELIyaqNsJpJ2HOgyYbKIEwx2tTcuxEKJNTxdLhHkPjkHLRDwklxf2IGmpwDTb49zf4xm2dvI07lGG4Gbo45qdIHZFigAoYdriF8Wkcpm3PM0TrpDh73RuYC7YUQSUwaeTIssAA+0ZBgHtYlbRkyF4T4ysAUNqrI6qGZD0wlS64lEwmPWTmULMGIwENCARP4sLUo3ueaJJvIW1MsKEaoYISELEPEi0EWddUl0gxFupcaTj2hp5SEewjeMMkyJkC5hqm2U0gpkHaFUvhUi1X9QVk28O8WRJFwmXUBacegv1gBSrCc7OEH2OmUfafzK0wCcjfMcPjI5vYFuX1RjZ1JxI/FVENIWjzQk4xrHNyKoJwaKxaH8owhDQJJmH4MkVWqVsl+PpTw8KJoK3JbQnIpgORAquGQMfgui0fuHxIKokyGmLGQftJloYkkKAUznIaNT7+oymXrolJsSyz61KK/m1QHKXYlCAWL6bOwecFKo4weQrJpCzVKMhYZZPTi4Hpg78NOxJ0qQp0dLwXlCoSfDUkALFZkx+C9I3Oe2mSi5inWVERwNTBTWGEUrmMRzYMp/oZ7qrGM/hUNeykkFwLJMjyANCpsQeGTMlCtFTm1gAKkICr/X1Hn2pXGGUXh/Ki2KoJgXCoyvNyWF2CEcSDY/oS2ZqHmtvqhKzZttI02qZXbAIP5i13PPoP9ahzDcmbOe84+ez+Ois+kDAp5uWwhkwl07Hz5hCm02o3UGT12/UigIKZO73gIZa47Q6AhFBQRM0jwq7IWCX/APPKU1CSoP2Fu4pMh9FL7RCtImjhO45GMsmo2ebgVQ5J4RGtpmx/7ojY8Vp6khUfgY2nyJ+zKD+yPQPGOJeH9gJGcWF4HOBhhVWD9KnB+xAoChXuM5hUsqojr3DMpAyQipNkPC3j4mcS5nVIwEt+GxbHsNnNqKSKCsKXvlJak58B2buC2MMM+SbGaxbjq8J4lcvVup3q3c/ClILjvXuXTTvHj8zwez63Ch5z3e877mHM32b2rTP79xu5VLn9FcpEg4y8b22/xpVv1hN15zvZGYiUL8ezrdOYVkGOLscvOqSrJjK8kuwJFbJzkErXqaeXSFExdiFQKS+kSHQAgSJ+OcuPVumHrkqtMMxVcmVr5NpPup1JnK+mLtfULgZlRUYUHFa3OWFAb/RRj/rv09vts8c+t/X8YEWg3ppqs1cFxm6YULH/GQjmMtYc11o5aSDtuzWxkaxZ1NDprJ7I3DPbq0HYtc8L4RgroEUhPM0bwIlCk8Qh64dydxJTOk7kjpQYUsdQBeFE6Guxx9M5ca0bABsFHOA9/XgqMSzSE6Yl1OvKINtG18Yha1bCIBCShEa4gIkMzB6RGgRaZzPWGKxrYGBeDuEbVkDkRl/u0fPilUZ+G9WG78dlvfGhINGQAQuKMK61Hs22ZDSA5y5NlkQ1JY6eMJqOxeCI8kyZZtiKvgY89URv4ozsklUvtuEpdlvv9RVw+BZWC44d3eWK+1DKmzqgYzB1p14c82N8nDrp6TMV+HOU+cuGcfezp13J3gRzXpYyq55ByymknVRRLA4Sg3SOOGb5okNMlZpBLEsFEvkNaYwxFCTTLYqNa4jOht5Uq7MXlTuxePJbCBdt2ZvP7fPNf+sXOnEgY6w3xM4MxfoO23l8rks/qg3w4LfZmriPeZXuCXdGMQQGVDkYhOXkhf1je0fwXQHPjpUemDSMvGO/RVxLUoaCQncdyhVjz/QI2u69qfRI5LbJhPrMCU0DV0ClJH7f8ZDoAadRZ+qNG8VuwwTz5J1pOHkE9SfzWglnVjj5b0j19c3PkdUG5ELxjT4pft3z6db+zqDWnwOU4hE0BkXbJ6haXr95GDolCY5hvjJLcp4+4gR5vpi4WZfKpmdNTtVIZVkRhPpuxfBRh0rQugcyfeugkCooEU6Konan3w6ISqMklAjAoSlJAg26OSgfAkgEw127z1dudyqet2t9b+5+3a3fb7vq598dm8Trnrqmt+V83MTm9htOe+nFl/aeVzNlatp8SgH2NONAF9S77BoLyusxM6y9JFhmFPgXr81vimJDhU7nLTO4SDjGFWOkg2zIRTzIqaD+Vvkit/vwN1fB8lbrZX117+X9LmyQ1qbDs8bNvMoTfz75Ln6+mL1NCh6zYf83PF7RJn4pmdvNdeve3Te8GtunhvWxAIMfpKw0Pjk+DCsXxLPghAEdFabUnGUMCpOfCr2fyIq+3FQ7rUGy9u1wKMzMdL8pHE1bD/tydiAVnw421b231R91H11kA8gGkLUN4W4p2uKiEOPBKbcmIGNFlyRaQm0aB7hXbBp5tndZ4QpjSmE+ZVYPIBSQgQSbaJNSauB7eT/Yedtya2cAKSkAJK+3fHNaH7Wbc8ydh67ZF7G3igmu//dcx3vi7FqqU3hQrqXbAa8YqBbOacfYUN+LCZFTCveAt0SdJ8eJNEZLC0k0GSeotyqcx2+ATdvrLg4FFK+8RBx67e+2I5L70R4XGgG1w82H3eABMnexyXPZpq4u9R9wIUkgr4awIss8qANgXGiwNlFCKzMe9nCZ51550WDU6loygHIHaeSCP34TUo8+po0tKBQxQHqG40o0rITD8QnMoJgu5RGOoc+86szLm7pEwciK3HkfuP9zfoYNUr/6rAAAAAElFTkSuQmCC;" parent="1" vertex="1">
          <mxGeometry x="320" y="310" width="447" height="311" as="geometry" />
        </mxCell>
        <mxCell id="9vM-ji-AnAJC31aWE_Pd-4" style="edgeStyle=orthogonalEdgeStyle;rounded=0;orthogonalLoop=1;jettySize=auto;html=1;" parent="1" source="9vM-ji-AnAJC31aWE_Pd-2" edge="1">
          <mxGeometry relative="1" as="geometry">
            <mxPoint x="360" y="300" as="targetPoint" />
          </mxGeometry>
        </mxCell>
        <mxCell id="9vM-ji-AnAJC31aWE_Pd-2" value="&lt;div style=&quot;&quot;&gt;&lt;span style=&quot;background-color: transparent; color: light-dark(rgb(0, 0, 0), rgb(255, 255, 255)); line-height: 180%;&quot;&gt;&lt;font style=&quot;font-size: 19px;&quot;&gt;Status&lt;/font&gt;&lt;/span&gt;&lt;/div&gt;&lt;div&gt;Red -&amp;gt; Offline&lt;/div&gt;&lt;div&gt;Orange -&amp;gt; Reconnecting&lt;/div&gt;&lt;div&gt;Green -&amp;gt; Online&lt;/div&gt;" style="rounded=0;whiteSpace=wrap;html=1;align=center;glass=0;" parent="1" vertex="1">
          <mxGeometry x="380" y="200" width="170" height="80" as="geometry" />
        </mxCell>
        <mxCell id="9vM-ji-AnAJC31aWE_Pd-9" style="edgeStyle=orthogonalEdgeStyle;rounded=0;orthogonalLoop=1;jettySize=auto;html=1;" parent="1" source="9vM-ji-AnAJC31aWE_Pd-7" edge="1">
          <mxGeometry relative="1" as="geometry">
            <mxPoint x="720" y="300" as="targetPoint" />
          </mxGeometry>
        </mxCell>
        <mxCell id="9vM-ji-AnAJC31aWE_Pd-7" value="Button to&amp;nbsp;&lt;span style=&quot;background-color: transparent; color: light-dark(rgb(0, 0, 0), rgb(255, 255, 255));&quot;&gt;Close the Window&lt;/span&gt;" style="rounded=0;whiteSpace=wrap;html=1;align=center;" parent="1" vertex="1">
          <mxGeometry x="580" y="200" width="120" height="90" as="geometry" />
        </mxCell>
        <mxCell id="9vM-ji-AnAJC31aWE_Pd-11" style="edgeStyle=orthogonalEdgeStyle;rounded=0;orthogonalLoop=1;jettySize=auto;html=1;" parent="1" source="9vM-ji-AnAJC31aWE_Pd-10" edge="1">
          <mxGeometry relative="1" as="geometry">
            <mxPoint x="310" y="400" as="targetPoint" />
            <Array as="points">
              <mxPoint x="240" y="400" />
            </Array>
          </mxGeometry>
        </mxCell>
        <mxCell id="9vM-ji-AnAJC31aWE_Pd-10" value="&quot;Challenge 1&quot; row" style="rounded=0;whiteSpace=wrap;html=1;" parent="1" vertex="1">
          <mxGeometry x="170" y="320" width="120" height="60" as="geometry" />
        </mxCell>
        <mxCell id="9vM-ji-AnAJC31aWE_Pd-13" style="edgeStyle=orthogonalEdgeStyle;rounded=0;orthogonalLoop=1;jettySize=auto;html=1;" parent="1" source="9vM-ji-AnAJC31aWE_Pd-12" edge="1">
          <mxGeometry relative="1" as="geometry">
            <mxPoint x="310" y="450" as="targetPoint" />
          </mxGeometry>
        </mxCell>
        <mxCell id="9vM-ji-AnAJC31aWE_Pd-12" value="&quot;Challenge 2&quot; row" style="rounded=0;whiteSpace=wrap;html=1;" parent="1" vertex="1">
          <mxGeometry x="80" y="420" width="120" height="60" as="geometry" />
        </mxCell>
        <mxCell id="9vM-ji-AnAJC31aWE_Pd-15" style="edgeStyle=orthogonalEdgeStyle;rounded=0;orthogonalLoop=1;jettySize=auto;html=1;" parent="1" source="9vM-ji-AnAJC31aWE_Pd-14" edge="1">
          <mxGeometry relative="1" as="geometry">
            <mxPoint x="310" y="510" as="targetPoint" />
            <Array as="points">
              <mxPoint x="240" y="510" />
              <mxPoint x="300" y="510" />
            </Array>
          </mxGeometry>
        </mxCell>
        <mxCell id="9vM-ji-AnAJC31aWE_Pd-14" value="&quot;Challenge 3&quot; row" style="rounded=0;whiteSpace=wrap;html=1;" parent="1" vertex="1">
          <mxGeometry x="170" y="530" width="120" height="60" as="geometry" />
        </mxCell>
        <mxCell id="9vM-ji-AnAJC31aWE_Pd-17" style="edgeStyle=orthogonalEdgeStyle;rounded=0;orthogonalLoop=1;jettySize=auto;html=1;" parent="1" source="9vM-ji-AnAJC31aWE_Pd-16" edge="1">
          <mxGeometry relative="1" as="geometry">
            <mxPoint x="380" y="630" as="targetPoint" />
          </mxGeometry>
        </mxCell>
        <mxCell id="9vM-ji-AnAJC31aWE_Pd-16" value="Mod Version" style="rounded=0;whiteSpace=wrap;html=1;" parent="1" vertex="1">
          <mxGeometry x="290" y="680" width="120" height="60" as="geometry" />
        </mxCell>
        <mxCell id="9vM-ji-AnAJC31aWE_Pd-19" style="edgeStyle=orthogonalEdgeStyle;rounded=0;orthogonalLoop=1;jettySize=auto;html=1;" parent="1" source="9vM-ji-AnAJC31aWE_Pd-18" edge="1">
          <mxGeometry relative="1" as="geometry">
            <mxPoint x="543.5" y="630" as="targetPoint" />
          </mxGeometry>
        </mxCell>
        <mxCell id="9vM-ji-AnAJC31aWE_Pd-20" style="edgeStyle=orthogonalEdgeStyle;rounded=0;orthogonalLoop=1;jettySize=auto;html=1;" parent="1" source="9vM-ji-AnAJC31aWE_Pd-18" edge="1">
          <mxGeometry relative="1" as="geometry">
            <mxPoint x="500" y="630" as="targetPoint" />
          </mxGeometry>
        </mxCell>
        <mxCell id="9vM-ji-AnAJC31aWE_Pd-21" style="edgeStyle=orthogonalEdgeStyle;rounded=0;orthogonalLoop=1;jettySize=auto;html=1;" parent="1" source="9vM-ji-AnAJC31aWE_Pd-18" edge="1">
          <mxGeometry relative="1" as="geometry">
            <mxPoint x="590" y="630" as="targetPoint" />
          </mxGeometry>
        </mxCell>
        <mxCell id="9vM-ji-AnAJC31aWE_Pd-18" value="Speedup Options" style="rounded=0;whiteSpace=wrap;html=1;" parent="1" vertex="1">
          <mxGeometry x="483.5" y="690" width="120" height="60" as="geometry" />
        </mxCell>
      </root>
    </mxGraphModel>
  </diagram>
</mxfile>
